<svg width="152" height="240" viewBox="0 0 152 240" fill="none" xmlns="http://www.w3.org/2000/svg">
<path d="M84.9156 191.762L55.1045 234.239C33.1471 240.71 10.692 231.142 3.50195 209.793L15.7251 161.398C23.3023 178.157 56.5425 196.851 84.9156 191.762Z" fill="#FBE291"/>
<path d="M41.4986 124.784C39.8394 132.97 46.8635 136.399 52.0625 131.642L66.0001 138.722C60.1928 156.697 72.7477 160.735 78.5551 142.759C87.1832 145.58 95.4794 146.299 103.499 145.414C107.979 150.226 112.182 150.834 115.943 146.133L122.636 145.691L96.8068 187.117C66.6638 201.331 20.6474 182.913 11.6875 151L22.4173 105.703C27.1738 113.667 33.5895 119.917 41.4986 124.784Z" fill="#FBE291"/>
<path d="M43.6002 111.178L41.8856 126.609C34.6403 120.415 28.2798 114.276 24.187 108.081C18.8221 99.9508 17.4394 91.8758 23.0809 83.8561C23.7999 86.4556 24.7401 88.9444 25.8463 91.2674C29.7732 99.6189 35.9124 106.035 43.6002 111.178Z" fill="#FBE291"/>
<path d="M52.0625 131.698C58.9207 118.811 73.1349 126.388 66.332 139.275L52.0625 131.698Z" fill="#FBE291"/>
<path d="M104.052 145.635C97.9684 146.852 88.2894 145.359 79.1636 142.593C80.9887 127.273 102.172 130.038 104.052 145.635Z" fill="#FBE291"/>
<path d="M142.325 128.932C143.21 139.662 129.328 144.695 116.497 146.078C118.709 142.096 120.202 139.164 120.755 134.629C127.89 134.076 135.08 132.085 142.325 128.932Z" fill="#FBE291"/>
<path d="M145.423 110.349C146.805 115.05 145.976 120.525 142.436 126.443C137.292 130.868 131.54 133.302 125.125 133.689C123.687 133.799 122.193 133.744 120.645 133.633C117.824 149.894 107.315 153.71 102.338 141.598C101.895 140.602 101.508 139.441 101.176 138.224C91.0547 128.6 83.5881 131.311 78.0573 142.704C73.7432 154.153 66.7744 155.48 65.1152 149.618C64.4515 147.295 64.6174 143.81 66.1107 139.385C66.2213 139.054 66.3319 138.722 66.4979 138.39C71.9734 125.116 59.3631 120.083 50.9563 131.974C47.7484 136.122 42.7707 133.965 41.5539 129.153C41.222 127.826 41.1667 126.277 41.4986 124.618C44.1534 118.7 45.2595 112.948 40.503 108.136C37.7929 106.035 35.3594 103.878 33.147 101.555C33.0364 101.444 32.9258 101.333 32.8152 101.223C28.8883 97.1301 25.9017 92.7054 24.1318 87.7277C23.6893 86.4556 23.3022 85.1835 23.0256 83.8561C26.8972 70.7481 35.3594 66.2681 47.5272 68.5357C49.1311 48.846 58.6994 36.457 84.8049 39.2224C85.6345 24.1233 92.9905 16.3801 112.625 22.4087C118.266 17.4863 122.193 11.9002 120.645 3.99109C130.268 4.15701 138.288 8.96882 143.1 15.7164C151.728 27.9948 149.958 46.8549 128.554 57.1422C144.925 68.3698 147.856 87.3405 134.748 98.8446C140.224 101.499 143.985 105.482 145.423 110.349Z" fill="#F4F5F7"/>
<path d="M75.6238 67.4849C75.5685 67.4849 75.5132 67.4849 75.4579 67.4849C74.7942 67.3743 74.2964 66.7659 74.407 66.1022L75.6238 56.921C75.7344 56.2573 76.3428 55.7596 77.0065 55.8702C77.6702 55.9808 78.168 56.5892 78.0574 57.2529L76.8406 66.434C76.7853 67.0424 76.2322 67.4849 75.6238 67.4849Z" fill="#EF5E8C"/>
<path d="M106.762 85.5153C106.043 85.46 105.49 84.9069 105.546 84.2432L105.988 75.0067C106.043 74.343 106.596 73.7899 107.26 73.8452C107.924 73.9006 108.477 74.4536 108.422 75.1173L107.979 84.3538C108.034 85.0175 107.426 85.5153 106.762 85.5153Z" fill="#161E2E"/>
<path d="M83.0351 84.9069C82.5927 84.9069 82.0949 84.6304 81.929 84.1879C81.6524 83.5795 81.929 82.8052 82.5927 82.5287L91.1101 78.823C91.7185 78.5465 92.4928 78.823 92.7141 79.4867C92.9906 80.0951 92.7141 80.8694 92.0504 81.146L83.5329 84.8516C83.367 84.8516 83.2011 84.9069 83.0351 84.9069Z" fill="#4AC1BF"/>
<path d="M98.1342 39.2224C98.1342 39.1671 98.1342 39.1671 98.0789 39.1118C97.9683 38.5034 98.3002 37.9503 98.9086 37.8397L106.873 36.1251C107.481 36.0145 108.034 36.3464 108.145 36.9548C108.256 37.5632 107.924 38.1162 107.315 38.2269L99.351 39.9414C98.8533 40.052 98.3555 39.7202 98.1342 39.2224Z" fill="#EF5E8C"/>
<path d="M121.53 32.2535C121.53 32.1982 121.53 32.2535 121.53 32.2535C121.972 31.8111 122.691 31.8111 123.078 32.2535L128.775 38.0609C129.217 38.5034 129.162 39.1671 128.775 39.6095C128.333 40.052 127.669 39.9967 127.226 39.6095L121.53 33.8022C121.087 33.3044 121.087 32.6407 121.53 32.2535Z" fill="#4AC1BF"/>
<path d="M118.156 44.0895C118.543 43.9236 118.985 43.9789 119.317 44.2555C119.76 44.6426 119.815 45.3616 119.428 45.8041L114.063 51.888C113.676 52.3305 112.957 52.3858 112.514 51.9986C112.072 51.6115 112.017 50.8925 112.404 50.45L117.769 44.3661C117.934 44.2555 118.045 44.1449 118.156 44.0895Z" fill="#161E2E"/>
<path d="M3.50195 209.793C6.59921 219.029 12.6278 226.053 20.205 230.533C14.287 226.109 9.64116 219.859 6.98637 212.116L18.6011 166.265C17.4396 164.661 16.4994 163.002 15.7251 161.398L3.50195 209.793Z" fill="white"/>
<path d="M34.364 103.546L33.0919 101.555L31.4326 98.9552C31.8751 99.7295 32.3175 100.449 32.76 101.168C33.2578 102.052 33.8109 102.827 34.364 103.546Z" fill="white"/>
<path d="M22.3068 85.9578L25.404 92.3182C21.9196 93.8668 21.3112 101.997 24.1873 108.966C19.0436 101.278 17.5503 93.5903 22.3068 85.9578Z" fill="white"/>
<path d="M143.1 16.6567C137.348 12.6192 131.596 9.85375 125.733 9.24536C124.903 17.5969 121.751 22.9065 115.28 23.8467C108.256 23.3489 102.227 23.7914 97.6917 25.6166C100.015 30.3178 94.5392 34.5765 90.6123 31.4239C88.8424 34.4106 88.1787 38.4481 88.8424 43.647C82.2054 40.8263 73.9645 41.7666 66.7745 45.3063C69.3186 51.0583 61.0777 57.5847 56.0447 53.7131C51.0669 59.9076 48.9099 67.9826 52.3943 76.8873L48.9652 73.1816C43.545 71.8542 38.0695 72.5179 33.9767 75.7258C39.5628 80.0398 34.8616 89.0551 28.114 86.898C27.8928 91.8205 29.3861 96.2451 31.4325 100.006L26.6207 92.5948C25.7358 90.1059 24.1318 85.6813 23.4128 83.6349C27.4503 71.4671 35.7466 67.3189 47.5272 69.5313C49.1311 49.8416 58.6995 37.4525 84.8049 40.2179C85.6345 25.1188 92.9905 17.3757 112.625 23.4043C118.266 18.4818 122.193 12.8957 120.645 4.98663C130.268 5.09725 138.288 9.85375 143.1 16.6567Z" fill="white"/>
<path d="M15.1165 153.379L16.831 146.244C22.3066 145.359 25.7357 131.642 20.9792 128.711L25.3485 110.238C24.2977 108.8 23.3021 107.307 22.3619 105.813L11.6321 151.111C13.0701 156.31 15.559 161.177 18.7668 165.602L18.6009 166.265C22.1959 171.243 27.7268 176.165 34.4744 180.369C33.3682 179.595 32.262 178.765 31.2112 177.935C32.7045 179.042 34.2531 180.092 35.8018 181.088C25.9016 174.008 18.2691 164.495 15.1165 153.379Z" fill="white"/>
<g opacity="0.19">
<path d="M89.4507 114.497C88.2339 117.594 80.9885 120.636 74.4622 118.092C67.8805 115.548 64.5067 108.468 65.7235 105.371C66.9403 102.274 71.0884 107.252 77.67 109.796C84.1964 112.285 90.6675 111.4 89.4507 114.497Z" fill="white"/>
</g>
<path d="M65.5785 141.201C65.595 141.207 65.6117 141.213 65.6285 141.219C65.8221 141.284 66.1671 141.381 66.4978 141.381C67.9116 141.381 68.9599 140.249 69.0445 138.895C69.0458 138.874 69.0464 138.853 69.0464 138.832C69.0464 137.747 68.2875 136.867 67.4223 136.521L67.4065 136.515C62.3746 134.601 57.5565 132.302 53.007 129.782C51.7963 129.054 50.2482 129.515 49.5919 130.7C48.8629 131.916 49.332 133.47 50.5274 134.121C55.2742 136.801 60.3479 139.142 65.5785 141.201Z" fill="#161E2E" stroke="#161E2E" stroke-width="2" stroke-linejoin="round"/>
<path d="M88.4112 130.036L88.4112 130.036L88.407 130.036C86.9332 129.944 85.7407 131.134 85.7407 132.527C85.7407 133.909 86.8521 135.021 88.234 135.021C89.5467 135.021 90.6344 133.993 90.725 132.652C90.8189 131.318 89.7852 130.128 88.4112 130.036Z" fill="#161E2E" stroke="#161E2E" stroke-width="2" stroke-linejoin="round"/>
<path d="M115.169 149.235V148.638C115.169 149.235 115.17 149.235 115.171 149.235L115.173 149.235L115.177 149.235L115.185 149.235L115.201 149.234C115.212 149.234 115.223 149.233 115.234 149.233C115.257 149.231 115.28 149.229 115.304 149.226C115.352 149.219 115.402 149.209 115.453 149.195C115.536 149.171 115.617 149.137 115.695 149.092C123.215 148.429 129.608 146.787 134.516 144.301C139.494 141.78 143.014 138.352 144.538 134.139L144.538 134.14L144.541 134.13C145.37 131.762 145.604 129.226 145.198 126.536C145.092 125.596 144.443 124.861 143.627 124.57C142.774 124.212 141.761 124.398 141.091 125.047C137.116 128.539 129.797 131.1 120.265 132.086C120.255 132.087 120.246 132.088 120.236 132.089C118.916 132.265 117.858 133.439 118.05 134.872C118.225 136.186 119.39 137.241 120.815 137.06C128.547 136.271 135.229 134.434 140.123 131.767C140.054 132.026 139.977 132.278 139.89 132.523C138.823 135.472 136.08 138.118 131.784 140.185C127.502 142.246 121.783 143.677 114.982 144.251C113.588 144.349 112.588 145.56 112.678 146.919L112.678 146.923C112.772 148.229 113.878 149.235 115.169 149.235Z" fill="#161E2E" stroke="#161E2E" stroke-width="2" stroke-linejoin="round"/>
<path d="M105.016 149.511C105.027 149.511 105.037 149.511 105.048 149.511C106.405 149.511 107.562 148.414 107.485 146.984C107.468 145.749 106.497 144.535 105.066 144.525C96.6383 144.25 87.5428 142.826 78.716 140.359C77.374 139.977 76.0194 140.832 75.6577 142.097C75.274 143.44 76.1284 144.797 77.3953 145.159L77.3953 145.159L77.4015 145.161C86.5981 147.725 96.0802 149.232 105.016 149.511Z" fill="#161E2E" stroke="#161E2E" stroke-width="2" stroke-linejoin="round"/>
<path d="M94.6788 132.246C93.657 133.193 93.6569 134.848 94.6784 135.795C95.1335 136.242 95.7645 136.514 96.4195 136.514C97.8014 136.514 98.9128 135.403 98.9128 134.021C98.9128 132.809 98.0095 131.807 96.8988 131.603C96.1107 131.422 95.2334 131.703 94.6788 132.246Z" fill="#161E2E" stroke="#161E2E" stroke-width="2" stroke-linejoin="round"/>
<path d="M40.5326 127.923C40.5535 127.937 40.575 127.951 40.597 127.965C40.981 128.195 41.4899 128.384 41.9964 128.384C42.7575 128.384 43.5038 128.054 43.9388 127.511C43.9532 127.493 43.967 127.474 43.9801 127.455C44.7883 126.288 44.5134 124.8 43.426 123.984C43.4195 123.979 43.4129 123.974 43.4062 123.97C35.2129 118.133 28.9699 111.765 25.1925 105.765C21.3952 99.7325 20.1927 94.2499 21.6992 90.0569L21.7011 90.0516C21.7762 89.8389 21.8609 89.6256 21.9545 89.4136C25.0216 97.4481 32.2674 106.279 42.0425 113.956L42.0601 113.969C43.1424 114.781 44.7155 114.621 45.5618 113.493C46.3712 112.414 46.2146 110.847 45.095 109.999C39.5159 105.622 34.8981 100.931 31.5257 96.3505C28.1508 91.7668 26.0625 87.3482 25.4554 83.5037C25.3468 82.5473 24.6762 81.8036 23.8397 81.5248C23.1115 81.282 22.0855 81.3089 21.3541 82.0125C19.3086 83.7728 17.8281 85.8996 16.9946 88.2791C14.9471 94.0102 16.4062 100.776 20.5165 107.608C24.6369 114.457 31.4945 121.507 40.5326 127.923Z" fill="#161E2E" stroke="#161E2E" stroke-width="2" stroke-linejoin="round"/>
<path d="M141.519 129.204C141.528 129.209 141.537 129.214 141.546 129.218C141.922 129.406 142.355 129.49 142.712 129.49C143.613 129.49 144.452 129.03 144.913 128.204C148.513 121.802 149.464 114.035 147.305 107.967L147.304 107.964C145.426 102.742 141.383 98.7862 135.68 96.5364C134.396 95.9961 132.917 96.626 132.434 97.9261C131.902 99.2115 132.539 100.688 133.844 101.164C138.305 102.899 141.219 105.798 142.601 109.635C144.252 114.282 143.501 120.5 140.576 125.775C139.842 126.994 140.316 128.556 141.519 129.204Z" fill="#161E2E" stroke="#161E2E" stroke-width="2" stroke-linejoin="round"/>
<path d="M22.7276 86.3406C22.7714 86.3465 22.8155 86.3494 22.8597 86.3494H22.8601H22.8604H22.8607H22.861H22.8614H22.8617H22.862H22.8624H22.8627H22.863H22.8634H22.8637H22.8641H22.8644H22.8647H22.8651H22.8654H22.8658H22.8661H22.8665H22.8668H22.8672H22.8675H22.8679H22.8682H22.8686H22.8689H22.8693H22.8697H22.87H22.8704H22.8707H22.8711H22.8715H22.8718H22.8722H22.8726H22.8729H22.8733H22.8737H22.874H22.8744H22.8748H22.8752H22.8755H22.8759H22.8763H22.8767H22.877H22.8774H22.8778H22.8782H22.8786H22.879H22.8793H22.8797H22.8801H22.8805H22.8809H22.8813H22.8817H22.8821H22.8825H22.8829H22.8833H22.8837H22.884H22.8844H22.8848H22.8852H22.8856H22.886H22.8865H22.8869H22.8873H22.8877H22.8881H22.8885H22.8889H22.8893H22.8897H22.8901H22.8905H22.8909H22.8914H22.8918H22.8922H22.8926H22.893H22.8934H22.8939H22.8943H22.8947H22.8951H22.8955H22.896H22.8964H22.8968H22.8972H22.8977H22.8981H22.8985H22.8989H22.8994H22.8998H22.9002H22.9007H22.9011H22.9015H22.902H22.9024H22.9028H22.9033H22.9037H22.9041H22.9046H22.905H22.9054H22.9059H22.9063H22.9068H22.9072H22.9076H22.9081H22.9085H22.909H22.9094H22.9099H22.9103H22.9108H22.9112H22.9117H22.9121H22.9125H22.913H22.9134H22.9139H22.9144H22.9148H22.9153H22.9157H22.9162H22.9166H22.9171H22.9175H22.918H22.9184H22.9189H22.9194H22.9198H22.9203H22.9207H22.9212H22.9216H22.9221H22.9226H22.923H22.9235H22.924H22.9244H22.9249H22.9253H22.9258H22.9263H22.9267H22.9272H22.9277H22.9281H22.9286H22.9291H22.9295H22.93H22.9305H22.931H22.9314H22.9319H22.9324H22.9328H22.9333H22.9338H22.9342H22.9347H22.9352H22.9357H22.9361H22.9366H22.9371H22.9376H22.938H22.9385H22.939H22.9395H22.9399H22.9404H22.9409H22.9414H22.9418H22.9423H22.9428H22.9433H22.9438H22.9442H22.9447H22.9452H22.9457H22.9462H22.9466H22.9471H22.9476H22.9481H22.9486H22.949H22.9495H22.95H22.9505H22.951H22.9514H22.9519H22.9524H22.9529H22.9534H22.9539H22.9543H22.9548H22.9553H22.9558H22.9563H22.9568H22.9572H22.9577H22.9582H22.9587H22.9592H22.9597H22.9602H22.9606H22.9611H22.9616H22.9621H22.9626H22.9631H22.9636H22.964H22.9645H22.965H22.9655H22.966H22.9665H22.967H22.9674H22.9679H22.9684H22.9689H22.9694H22.9699H22.9704H22.9708H22.9713H22.9718H22.9723H22.9728H22.9733H22.9738H22.9742H22.9747H22.9752H22.9757H22.9762H22.9767H22.9772H22.9776H22.9781H22.9786H22.9791H22.9796H22.9801H22.9806H22.981H22.9815H22.982H22.9825H22.983H22.9835H22.984H22.9844H22.9849H22.9854H22.9859H22.9864H22.9869H22.9873H22.9878H22.9883H22.9888H22.9893H22.9897H22.9902H22.9907H22.9912H22.9917H22.9922H22.9926H22.9931H22.9936H22.9941H22.9946H22.995H22.9955H22.996H22.9965H22.997H22.9974H22.9979H22.9984H22.9989H22.9993H22.9998H23.0003H23.0008H23.0013H23.0017H23.0022H23.0027H23.0032H23.0036H23.0041H23.0046H23.005H23.0055H23.006H23.0065H23.0069H23.0074H23.0079H23.0084H23.0088H23.0093H23.0098H23.0102H23.0107H23.0112H23.0116H23.0121H23.0126H23.013H23.0135H23.014H23.0144H23.0149H23.0154H23.0158H23.0163H23.0168H23.0172H23.0177H23.0181H23.0186H23.0191H23.0195H23.02H23.0204H23.0209H23.0214H23.0218H23.0223H23.0227H23.0232H23.0236H23.0241H23.0246H23.025H23.0255H23.0259H23.0264H23.0268H23.0273H23.0277H23.0282H23.0286H23.0291H23.0295H23.03H23.0304H23.0309H23.0313H23.0317H23.0322H23.0326H23.0331H23.0335H23.034H23.0344H23.0348H23.0353H23.0357H23.0362H23.0366H23.037H23.0375H23.0379H23.0383H23.0388H23.0392H23.0396H23.0401H23.0405H23.0409H23.0414H23.0418H23.0422H23.0426H23.0431H23.0435H23.0439H23.0443H23.0448H23.0452H23.0456H23.046H23.0464H23.0469H23.0473H23.0477H23.0481H23.0485H23.0489H23.0494H23.0498H23.0502H23.0506H23.051H23.0514H23.0518H23.0522H23.0526H23.0531H23.0535H23.0539H23.0543H23.0547H23.0551H23.0555H23.0559H23.0563H23.0567H23.0571H23.0575H23.0579H23.0583H23.0586H23.059H23.0594H23.0598H23.0602H23.0606H23.061H23.0614H23.0618H23.0621H23.0625H23.0629H23.0633H23.0637H23.0641H23.0644H23.0648H23.0652H23.0656H23.0659H23.0663H23.0667H23.0671H23.0674H23.0678H23.0682H23.0685H23.0689H23.0693H23.0696H23.07H23.0703H23.0707H23.0711H23.0714H23.0718H23.0721H23.0725H23.0728H23.0732H23.0735H23.0739H23.0742H23.0746H23.0749H23.0753H23.0756H23.076H23.0763H23.0767H23.077H23.0773H23.0777H23.078H23.0783H23.0787H23.079H23.0793H23.0797H23.08H23.0803H23.0806H23.081C24.2805 86.3494 25.2375 85.5266 25.5783 84.5042C25.595 84.4541 25.6077 84.4027 25.6163 84.3506C26.397 79.6143 29.2643 75.3734 33.5214 72.6404L33.5214 72.6404L33.5261 72.6374C37.6962 69.9268 42.7941 69.1419 47.4187 70.4222C47.5908 70.4885 47.7484 70.51 47.8425 70.5194C47.9624 70.5314 48.0744 70.5313 48.1278 70.5313L48.1356 70.5313C49.5175 70.5313 50.6289 69.4199 50.6289 68.038C50.6289 66.9459 49.9049 65.922 48.7798 65.6335C42.7469 63.9549 36.2109 65.004 30.8415 68.4103L30.8392 68.4118C25.4189 71.8716 21.7075 77.3043 20.6592 83.4547C20.3912 84.8406 21.3262 86.1538 22.7276 86.3406Z" fill="#161E2E" stroke="#161E2E" stroke-width="2" stroke-linejoin="round"/>
<path d="M145.091 83.0617L145.092 83.0467C145.38 79.2478 144.804 75.4574 143.544 71.9603C142.29 68.4272 140.465 65.1748 138.124 62.3195C135.797 59.425 133.055 56.9067 129.784 55.0107C128.563 54.2696 126.996 54.7425 126.346 55.9492C125.711 57.1277 126.078 58.597 127.255 59.3213C127.263 59.3259 127.27 59.3303 127.278 59.3347C129.919 60.8669 132.263 62.9916 134.246 65.4569C136.22 67.9114 137.769 70.688 138.839 73.6263C139.849 76.5534 140.322 79.6786 140.111 82.6792C140.007 84.1387 139.693 85.6602 139.22 87.0796C138.746 88.5001 138.113 89.8757 137.313 91.2617C135.706 93.994 133.688 96.4246 131.278 98.2064L131.278 98.2063L131.267 98.2147C128.843 100.059 126.04 101.332 123.006 102.077L122.99 102.081C119.949 102.881 116.726 103.153 113.471 103.099C110.214 103.045 106.89 102.719 103.544 102.281C102.748 102.143 102.044 102.644 101.865 103.359C101.693 104.049 102.04 104.836 102.796 105.138C102.814 105.145 102.832 105.152 102.851 105.158C106.23 106.285 109.673 107.075 113.233 107.471C116.799 107.867 120.504 107.814 124.169 107.013C127.854 106.264 131.426 104.651 134.427 102.285C137.419 99.9255 139.822 96.9451 141.645 93.7547C142.546 92.1775 143.413 90.4507 143.996 88.6431C144.576 86.8445 144.92 84.9445 145.091 83.0617Z" fill="#161E2E" stroke="#161E2E" stroke-width="2" stroke-linejoin="round"/>
<path d="M59.7056 86.0016C59.7187 86.0089 59.732 86.0159 59.7454 86.0226C60.0321 86.166 60.4013 86.241 60.7854 86.1312C61.1264 86.0338 61.3895 85.8159 61.5618 85.5473C62.0048 84.9923 62.1028 84.0695 61.4087 83.4929C59.1059 81.2439 56.9478 79.0267 55.1213 76.663C53.3011 74.3075 51.8734 71.7615 51.03 69.0808C50.6603 67.757 50.3988 66.3899 50.2942 64.9775L50.294 64.9746C50.1913 63.6392 50.2928 62.2347 50.5565 60.8104C51.0839 58.0164 52.249 55.2025 53.7932 52.7531C55.3299 50.3157 57.346 48.139 59.6822 46.3861C62.0923 44.6193 64.7055 43.2351 67.5222 42.3316C70.3704 41.4181 73.3217 40.882 76.323 40.7749C79.3277 40.6675 82.3181 40.9903 85.0807 41.7872L85.0832 41.7879C86.369 42.1553 87.7661 41.4301 88.1446 40.1055C88.5118 38.8203 87.7876 37.4241 86.4644 37.0447C83.0847 36.0709 79.6044 35.7312 76.144 35.8447C72.671 35.9586 69.2588 36.5848 65.9652 37.6637C62.6593 38.7467 59.5177 40.3448 56.714 42.4619C53.9127 44.5772 51.447 47.212 49.6068 50.2024C48.7094 51.6607 47.8434 53.2139 47.2026 54.9016C46.5831 56.479 46.0088 58.1965 45.6616 59.9328C45.3162 61.6596 45.1423 63.4506 45.2002 65.3038C45.2588 67.1786 45.6099 68.9805 46.1268 70.7036C46.1297 70.7132 46.1327 70.7229 46.1359 70.7324C46.7156 72.4715 47.5242 74.1448 48.4453 75.6415C49.3713 77.1463 50.4669 78.5288 51.6708 79.7901C54.0645 82.2977 56.7441 84.35 59.7056 86.0016ZM87.183 39.8308C86.9618 40.6051 86.1322 41.0476 85.3579 40.8263L86.1875 38.0056C86.9618 38.2269 87.4043 39.0565 87.183 39.8308Z" fill="#161E2E" stroke="#161E2E" stroke-width="2" stroke-linejoin="round"/>
<path d="M103.707 55.8116C103.748 55.8167 103.789 55.8193 103.831 55.8193C104.298 55.8193 104.705 55.6119 104.816 55.5556C104.822 55.5525 104.827 55.5499 104.831 55.5478C105.05 55.4383 105.221 55.2522 105.312 55.0248C105.455 54.6695 105.473 54.2602 105.316 53.8785C105.157 53.4935 104.85 53.2095 104.479 53.0612C104.475 53.0596 104.471 53.0579 104.466 53.0564C104.459 53.0533 104.451 53.0504 104.443 53.0476C101.235 51.9057 98.3099 50.5142 95.8882 48.5672C95.2839 48.0728 94.6378 47.534 94.0503 46.9999C94.0397 46.9902 94.0288 46.9808 94.0178 46.9716C93.7268 46.7291 93.427 46.4303 93.1445 46.1478L92.2683 45.2716C91.2246 44.1743 90.3316 42.9678 89.5378 41.6456C88.0251 39.035 87.2617 36.0925 87.5147 33.2362C87.6708 31.7867 88.0303 30.4222 88.6787 29.1752C89.3416 27.9005 90.2067 26.7799 91.2782 25.8095C93.4108 23.933 96.2885 22.839 99.3165 22.5762C100.094 22.5248 100.823 22.5238 101.641 22.5238C102.45 22.5779 103.181 22.631 103.956 22.7337C105.534 23.0061 107.084 23.3286 108.623 23.8062L108.645 23.8127C109.391 24.026 110.199 24.295 110.961 24.5672L110.981 24.5742C111.822 24.8543 112.734 25.1398 113.654 25.3699C113.664 25.3723 113.674 25.3746 113.683 25.3767C115.467 25.767 117.392 26.1222 119.402 26.0631L119.403 26.063C121.34 26.0043 123.43 25.5935 125.307 24.6247L125.307 24.6248L125.319 24.6184C127.151 23.6412 128.673 22.1187 129.65 20.3476C129.657 20.3358 129.663 20.3238 129.669 20.3117C129.999 19.6532 129.798 18.9758 129.371 18.549C129.338 18.5156 129.302 18.4845 129.264 18.4561C128.752 18.0721 127.779 17.9257 127.182 18.6648C126.676 19.2174 126.137 19.7025 125.565 20.0833L126.12 20.9154L125.565 20.0833C124.994 20.4643 124.36 20.7619 123.691 21.0206C122.984 21.2376 122.318 21.4209 121.679 21.4665C120.953 21.5185 120.171 21.5185 119.444 21.4665L119.441 21.4664C117.947 21.3633 116.428 21.0004 114.922 20.5164C114.912 20.5131 114.901 20.5099 114.891 20.5069C114.159 20.2978 113.424 20.0357 112.687 19.7197L112.664 19.7104C111.8 19.3645 110.942 19.0791 110.047 18.7994L110.047 18.7994L110.042 18.7978C106.507 17.7145 102.671 17.1962 98.8192 17.5411L98.8179 17.5412C95.0029 17.888 91.0265 19.2776 87.9586 21.9916C84.8972 24.6997 82.8976 28.5779 82.4833 32.6433C82.0156 36.6916 83.0136 40.7805 85.0541 44.1624C85.5779 45.0354 86.1551 45.8423 86.7223 46.5797C86.7318 46.592 86.7415 46.6041 86.7516 46.6159C87.377 47.3551 88.0041 48.0393 88.6883 48.7235C88.8697 48.9048 89.0491 49.0693 89.2112 49.2179L89.2175 49.2237C89.3856 49.3777 89.5357 49.5156 89.6839 49.6637C89.7052 49.6851 89.7276 49.7055 89.7508 49.7248C89.9318 49.8757 90.1246 50.024 90.2993 50.1584L90.3067 50.1641C90.4896 50.3047 90.6534 50.4309 90.8017 50.5545C90.8117 50.5628 90.8218 50.5709 90.8321 50.5789L90.8472 50.5904C91.5565 51.1361 92.3035 51.7107 93.1134 52.2314C94.7196 53.2639 96.4555 54.1344 98.2653 54.7187C99.1425 55.0109 100.07 55.2423 100.992 55.415C101.907 55.5865 102.817 55.7003 103.692 55.8098L103.707 55.8116Z" fill="#161E2E" stroke="#161E2E" stroke-width="2" stroke-linejoin="round"/>
<path d="M122.182 15.2558C123.324 12.3799 123.759 9.29228 123.512 6.25904C125.85 6.57001 128.132 7.12654 130.273 8.01237L130.287 8.01793C133.373 9.24186 136.239 11.1022 138.513 13.4287L138.513 13.4288L138.521 13.4369C140.848 15.7643 142.649 18.6235 143.762 21.7485L143.763 21.7536C144.881 24.8407 145.415 28.1986 145.308 31.5579C145.095 38.2168 142.215 44.762 137.388 49.2174L137.384 49.2211C135.006 51.4409 132.083 53.1467 128.923 54.3248C125.784 55.4954 122.348 56.038 118.798 56.3111C118.742 56.3154 118.687 56.3244 118.632 56.338C118.053 56.4829 117.607 56.9286 117.462 57.5081C117.442 57.5874 117.432 57.6689 117.432 57.7506C117.432 58.4677 117.9 59.1286 118.679 59.2843C118.7 59.2885 118.721 59.292 118.742 59.2948C122.555 59.8071 126.507 59.6966 130.362 58.6611C134.219 57.6249 137.837 55.6703 140.879 53.0304L140.894 53.017C143.884 50.315 146.231 46.9323 147.832 43.2736C149.438 39.6027 150.235 35.6027 150.349 31.6742C150.463 27.7343 149.836 23.735 148.462 20.0159C147.088 16.2944 144.913 12.8005 142.103 9.93188C139.337 7.05128 135.894 4.87677 132.188 3.39447C128.467 1.90584 124.538 1.22732 120.703 1.00173C120.684 1.00058 120.664 1 120.645 1C120.64 1 120.635 0.999987 120.629 0.999974C120.516 0.999693 120.223 0.99897 119.908 1.09942C118.657 1.46815 117.815 2.80822 118.185 4.13901C118.962 7.206 118.8 10.5168 117.621 13.3937C116.995 14.8515 116.168 16.1894 115.148 17.3114C114.118 18.4446 112.879 19.427 111.48 20.2044C110.297 20.8466 109.827 22.3684 110.403 23.5196C110.416 23.5459 110.43 23.5715 110.446 23.5965C111.136 24.7174 112.582 25.225 113.815 24.5628C115.689 23.5672 117.383 22.2234 118.786 20.6471C120.254 19.059 121.364 17.2429 122.178 15.2676L122.178 15.2676L122.182 15.2558Z" fill="#161E2E" stroke="#161E2E" stroke-width="2" stroke-linejoin="round"/>
<path d="M69.4813 90.71L69.4813 90.71L69.469 90.7059C69.3205 90.6563 69.041 90.5824 68.7216 90.6463C68.4218 90.7063 68.1518 90.8764 67.9722 91.1363C67.7801 91.336 67.6403 91.5837 67.5704 91.8494C67.479 92.1967 67.4926 92.6541 67.7789 93.0558C68.6198 94.3125 69.6277 95.3136 70.6454 96.2182C70.6534 96.2253 70.6614 96.2322 70.6696 96.239C71.7202 97.1145 72.9408 97.9281 74.1643 98.569C75.3678 99.1994 76.6982 99.7792 78.0427 100.188C79.3704 100.593 80.801 100.895 82.3161 100.895C82.707 100.895 83.2286 100.754 83.5759 100.251C83.8655 99.8478 83.8796 99.3881 83.7879 99.0395C83.6962 98.6913 83.4846 98.3742 83.1926 98.1552C83.1747 98.1418 83.1564 98.129 83.1376 98.1168C82.3807 97.6248 81.6056 97.1725 80.8557 96.735C80.4925 96.523 80.1351 96.3145 79.7886 96.1066L79.7734 96.0977L76.512 94.2182C76.5118 94.2181 76.5115 94.2179 76.5113 94.2178C75.4511 93.604 74.3371 92.9913 73.2347 92.385L73.2297 92.3823L73.2118 92.3726C72.0293 91.7532 70.819 91.1753 69.4813 90.71Z" fill="#161E2E" stroke="#161E2E" stroke-width="2" stroke-linejoin="round"/>
<path d="M9.19409 150.171C9.19409 150.218 9.19753 150.266 9.20439 150.314C11.2048 164.145 22.9701 177.532 40.3296 186.24C51.6285 191.945 63.4516 194.809 74.4069 194.809C83.0543 194.809 91.1291 193.013 97.9906 189.274C98.2864 189.124 98.6982 188.848 98.947 188.388L124.756 146.994C124.767 146.976 124.778 146.958 124.788 146.939C125.391 145.819 125.165 144.325 123.934 143.567C123.918 143.557 123.901 143.547 123.884 143.538C122.765 142.936 121.272 143.16 120.514 144.389C120.513 144.39 120.513 144.391 120.512 144.392L94.9964 185.25C81.2182 192.381 61.1779 191.164 42.5562 181.798L42.5553 181.798C26.5903 173.788 16.1495 161.87 14.2001 150.045L24.8269 106.326C24.8291 106.317 24.8311 106.308 24.833 106.3C25.1174 104.972 24.2654 103.713 23.0238 103.359C23.0022 103.352 22.9805 103.347 22.9586 103.342C21.6313 103.058 20.3724 103.91 20.0177 105.152C20.0141 105.164 20.0108 105.177 20.0077 105.189L9.22261 149.38C9.20366 149.458 9.19409 149.538 9.19409 149.618V149.618V149.619V149.62V149.621V149.622V149.623V149.624V149.625V149.626V149.627V149.628V149.629V149.63V149.631V149.632V149.633V149.634V149.635V149.636V149.637V149.638V149.639V149.64V149.641V149.642V149.643V149.644V149.645V149.646V149.647V149.648V149.649V149.65V149.651V149.652V149.653V149.654V149.655V149.656V149.657V149.658V149.659V149.66V149.661V149.662V149.663V149.665V149.666V149.667V149.668V149.669V149.67V149.671V149.672V149.673V149.674V149.675V149.676V149.677V149.678V149.679V149.68V149.681V149.682V149.683V149.684V149.685V149.686V149.687V149.688V149.689V149.69V149.692V149.693V149.694V149.695V149.696V149.697V149.698V149.699V149.7V149.701V149.702V149.703V149.704V149.705V149.706V149.707V149.708V149.71V149.711V149.712V149.713V149.714V149.715V149.716V149.717V149.718V149.719V149.72V149.721V149.722V149.723V149.725V149.726V149.727V149.728V149.729V149.73V149.731V149.732V149.733V149.734V149.735V149.736V149.738V149.739V149.74V149.741V149.742V149.743V149.744V149.745V149.746V149.747V149.748V149.75V149.751V149.752V149.753V149.754V149.755V149.756V149.757V149.758V149.759V149.76V149.762V149.763V149.764V149.765V149.766V149.767V149.768V149.769V149.77V149.771V149.773V149.774V149.775V149.776V149.777V149.778V149.779V149.78V149.781V149.783V149.784V149.785V149.786V149.787V149.788V149.789V149.79V149.791V149.793V149.794V149.795V149.796V149.797V149.798V149.799V149.8V149.801V149.803V149.804V149.805V149.806V149.807V149.808V149.809V149.81V149.812V149.813V149.814V149.815V149.816V149.817V149.818V149.819V149.821V149.822V149.823V149.824V149.825V149.826V149.827V149.828V149.83V149.831V149.832V149.833V149.834V149.835V149.836V149.837V149.839V149.84V149.841V149.842V149.843V149.844V149.845V149.846V149.848V149.849V149.85V149.851V149.852V149.853V149.854V149.856V149.857V149.858V149.859V149.86V149.861V149.862V149.863V149.865V149.866V149.867V149.868V149.869V149.87V149.871V149.873V149.874V149.875V149.876V149.877V149.878V149.879V149.88V149.882V149.883V149.884V149.885V149.886V149.887V149.888V149.89V149.891V149.892V149.893V149.894V149.895V149.896V149.897V149.899V149.9V149.901V149.902V149.903V149.904V149.905V149.907V149.908V149.909V149.91V149.911V149.912V149.913V149.914V149.916V149.917V149.918V149.919V149.92V149.921V149.922V149.924V149.925V149.926V149.927V149.928V149.929V149.93V149.931V149.933V149.934V149.935V149.936V149.937V149.938V149.939V149.941V149.942V149.943V149.944V149.945V149.946V149.947V149.948V149.95V149.951V149.952V149.953V149.954V149.955V149.956V149.957V149.959V149.96V149.961V149.962V149.963V149.964V149.965V149.966V149.968V149.969V149.97V149.971V149.972V149.973V149.974V149.975V149.977V149.978V149.979V149.98V149.981V149.982V149.983V149.984V149.985V149.987V149.988V149.989V149.99V149.991V149.992V149.993V149.994V149.996V149.997V149.998V149.999V150V150.001V150.002V150.003V150.004V150.006V150.007V150.008V150.009V150.01V150.011V150.012V150.013V150.014V150.016V150.017V150.018V150.019V150.02V150.021V150.022V150.023V150.024V150.025V150.027V150.028V150.029V150.03V150.031V150.032V150.033V150.034V150.035V150.036V150.038V150.039V150.04V150.041V150.042V150.043V150.044V150.045V150.046V150.047V150.048V150.05V150.051V150.052V150.053V150.054V150.055V150.056V150.057V150.058V150.059V150.06V150.061V150.062V150.064V150.065V150.066V150.067V150.068V150.069V150.07V150.071V150.072V150.073V150.074V150.075V150.076V150.078V150.079V150.08V150.081V150.082V150.083V150.084V150.085V150.086V150.087V150.088V150.089V150.09V150.091V150.092V150.093V150.094V150.096V150.097V150.098V150.099V150.1V150.101V150.102V150.103V150.104V150.105V150.106V150.107V150.108V150.109V150.11V150.111V150.112V150.113V150.114V150.115V150.116V150.117V150.118V150.119V150.121V150.122V150.123V150.124V150.125V150.126V150.127V150.128V150.129V150.13V150.131V150.132V150.133V150.134V150.135V150.136V150.137V150.138V150.139V150.14V150.141V150.142V150.143V150.144V150.145V150.146V150.147V150.148V150.149V150.15V150.151V150.152V150.153V150.154V150.155V150.156V150.157V150.158V150.159V150.16V150.161V150.162V150.163V150.164V150.165V150.166V150.167V150.168V150.169V150.17V150.171Z" fill="#161E2E" stroke="#161E2E" stroke-width="2" stroke-linejoin="round"/>
<path d="M1.08328 211.15C1.09 211.184 1.09845 211.217 1.10858 211.25C4.0776 220.842 11.7004 229.225 21.8614 234.249C28.1939 237.415 35.0386 239 41.8304 239C46.6957 239 51.4633 238.208 55.9572 236.501L55.9736 236.495C56.4295 236.313 56.8512 235.973 57.1212 235.613C57.1276 235.605 57.1338 235.596 57.1399 235.588L87.2828 192.613L87.2962 192.594C88.0501 191.463 87.7403 189.99 86.677 189.192C86.6622 189.181 86.6471 189.171 86.6317 189.16C85.5009 188.407 84.0281 188.716 83.2306 189.78C83.2242 189.788 83.218 189.797 83.2119 189.805L53.532 232.127C44.1966 235.284 33.5412 234.454 24.0769 229.803C15.3092 225.472 8.81671 218.419 6.09156 210.47L18.1886 161.916C18.1924 161.901 18.1958 161.886 18.1989 161.871C18.4689 160.521 17.6528 159.25 16.3869 158.888C16.3609 158.881 16.3347 158.874 16.3083 158.869C14.9584 158.599 13.6872 159.415 13.3254 160.681C13.3223 160.692 13.3193 160.703 13.3165 160.714L1.10662 209.83C0.921167 210.363 1.02493 210.867 1.07445 211.107C1.07765 211.123 1.08063 211.137 1.08328 211.15Z" fill="#161E2E" stroke="#161E2E" stroke-width="2" stroke-linejoin="round"/>
<path d="M39.688 124.811C39.686 124.821 39.6842 124.831 39.6826 124.841L39.6365 125.117C38.4071 129.478 39.9776 134.099 43.6464 135.908C44.4395 136.32 46.1792 136.937 48.4615 136.451C50.7376 135.966 53.4078 134.414 56.1325 130.778C56.252 130.673 56.33 130.556 56.3791 130.458C56.3792 130.458 56.3794 130.457 56.3796 130.457C58.611 127.266 61.8758 126.953 63.7247 128.025C64.6712 128.586 65.4679 129.603 65.7019 131.206C65.9351 132.804 65.6135 135.038 64.1965 137.986C64.1372 138.057 64.0934 138.128 64.0617 138.192C64.0359 138.243 64.0165 138.293 64.0017 138.338C61.2277 144.756 60.9381 150.628 63.7802 154.168C65.0263 155.74 66.8663 156.591 68.8208 156.591C68.8427 156.591 68.8658 156.591 68.8899 156.591C69.2389 156.593 69.8104 156.595 70.3506 156.312C74.7606 155.285 78.3457 150.535 80.1274 144.076C80.6537 142.182 81.4415 140.451 82.3803 138.99C84.4914 135.776 87.9203 134.242 91.6705 134.842C95.7511 135.497 98.9245 138.41 99.9876 142.46L99.9894 142.467C101.553 148.259 105.403 151.938 110.379 151.555L110.388 151.554C116.255 151.049 122.06 144.648 123.187 132.471C123.361 131.072 122.331 129.871 120.965 129.762C119.565 129.594 118.366 130.631 118.265 132.001C117.778 136.963 116.463 140.579 114.876 142.966C113.278 145.369 111.472 146.443 109.997 146.575C107.968 146.735 105.86 145.042 104.854 141.182C103.318 135.215 98.5791 130.885 92.5411 129.936C86.7809 128.987 81.4734 131.378 78.2746 136.234C76.9872 138.165 76.066 140.366 75.383 142.7L75.3778 142.718C73.7066 148.864 70.7911 151.126 69.2279 151.459C68.8058 151.542 68.4899 151.519 68.2477 151.44C68.0112 151.362 67.7806 151.21 67.5553 150.929C67.0857 150.342 66.6572 149.204 66.6957 147.385C66.7337 145.585 67.23 143.19 68.5134 140.189C70.5671 135.987 70.9904 132.444 70.3714 129.624C69.7503 126.794 68.0965 124.78 66.1765 123.646L66.1765 123.646L66.1687 123.642C62.1698 121.33 55.9604 122.082 52.1865 127.635C50.9155 129.353 49.6418 130.511 48.506 131.121C47.3746 131.728 46.4858 131.746 45.8174 131.412L45.7959 131.401C45.1712 131.107 44.6472 130.473 44.3622 129.55C44.0921 128.675 44.0604 127.598 44.3486 126.501C44.3582 126.485 44.3678 126.467 44.3772 126.448C44.4481 126.306 44.4741 126.175 44.4838 126.078C44.4855 126.061 44.4867 126.046 44.4875 126.032L44.5309 125.728C45.1371 122.725 45.9663 118.606 46.0863 114.408C46.2062 110.21 45.6236 105.787 43.2703 102.271C42.5065 101.127 40.9381 100.874 39.8377 101.608C38.693 102.371 38.4398 103.938 39.1717 105.039C40.8206 107.538 41.271 111.011 41.1216 114.684C40.9739 118.318 40.25 121.973 39.6959 124.771L39.688 124.811Z" fill="#161E2E" stroke="#161E2E" stroke-width="2" stroke-linejoin="round"/>
<g opacity="0.3">
<path d="M77.3993 204.238L85.7359 192.279C85.9531 191.967 85.975 191.56 85.7925 191.227C85.61 190.893 85.2545 190.693 84.875 190.708C53.7687 191.97 31.5721 182.162 17.5986 161.936C17.4016 161.651 17.0708 161.488 16.7246 161.506C16.3783 161.523 16.066 161.719 15.8992 162.023L13.4103 166.559C13.3161 166.73 13.2744 166.926 13.2903 167.121C14.7117 184.576 28.5995 199.79 45.8562 206.086C52.0776 208.362 54.6867 215.734 51.2132 221.322L51.21 221.327L48.6703 225.468C48.6696 225.469 48.669 225.47 48.6683 225.471C46.6264 228.736 43.1103 230.819 39.3038 230.972C30.5963 231.299 21.1005 229.552 13.4801 224.185C13.0557 223.886 12.4733 223.962 12.1391 224.359C11.805 224.756 11.8302 225.343 12.1972 225.71C23.4769 236.99 38.3701 238.964 55.3203 235.216C55.5561 235.163 55.7651 235.028 55.9086 234.833L77.5341 205.575C77.7639 205.265 77.7939 204.849 77.6113 204.509C77.5558 204.405 77.4836 204.314 77.3993 204.238Z" fill="#161E2E" stroke="#161E2E" stroke-width="2" stroke-linejoin="round"/>
</g>
<g opacity="0.3">
<path d="M77.9011 192.921C78.4385 192.856 78.8265 192.375 78.7765 191.836C78.7265 191.297 78.2566 190.896 77.7164 190.93C76.5977 191.003 75.4733 191.026 74.3319 191.05C73.7428 191.063 73.1492 191.075 72.5496 191.095C72.2024 191.106 71.8859 191.297 71.7136 191.598L71.4924 191.985C71.3072 192.309 71.3179 192.71 71.5201 193.023C71.7223 193.337 72.0823 193.512 72.4539 193.477C72.6056 193.463 72.7578 193.449 72.9105 193.434C74.5351 193.282 76.2177 193.125 77.9011 192.921Z" fill="#161E2E" stroke="#161E2E" stroke-width="2" stroke-linejoin="round"/>
</g>
<g opacity="0.3">
<path d="M100.883 182.414C101.147 181.951 101.002 181.363 100.554 181.075C100.105 180.788 99.5104 180.903 99.2008 181.336L98.9243 181.723C98.7066 182.028 98.6775 182.429 98.8489 182.762C99.0203 183.095 99.3635 183.305 99.738 183.305H99.7384H99.7387H99.739H99.7393H99.7396H99.74H99.7403H99.7406H99.7409H99.7412H99.7415H99.7418H99.7421H99.7425H99.7428H99.7431H99.7434H99.7437H99.744H99.7443H99.7446H99.7449H99.7452H99.7455H99.7457H99.746H99.7463H99.7466H99.7469H99.7472H99.7475H99.7478H99.7481H99.7483H99.7486H99.7489H99.7492H99.7495H99.7497H99.75H99.7503H99.7506H99.7508H99.7511H99.7514H99.7516H99.7519H99.7522H99.7524H99.7527H99.753H99.7532H99.7535H99.7538H99.754H99.7543H99.7545H99.7548H99.755H99.7553H99.7555H99.7558H99.756H99.7563H99.7565H99.7568H99.757H99.7573H99.7575H99.7578H99.758H99.7582H99.7585H99.7587H99.759H99.7592H99.7594H99.7597H99.7599H99.7601H99.7604H99.7606H99.7608H99.761H99.7613H99.7615H99.7617H99.7619H99.7622H99.7624H99.7626H99.7628H99.763H99.7632H99.7635H99.7637H99.7639H99.7641H99.7643H99.7645H99.7647H99.7649H99.7652H99.7654H99.7656H99.7658H99.766H99.7662H99.7664H99.7666H99.7668H99.767H99.7672H99.7674H99.7676H99.7678H99.7679H99.7681H99.7683H99.7685H99.7687H99.7689H99.7691H99.7693H99.7695H99.7696H99.7698H99.77H99.7702H99.7704H99.7706H99.7707H99.7709H99.7711H99.7713H99.7714H99.7716H99.7718H99.772H99.7721H99.7723H99.7725H99.7726H99.7728H99.773H99.7731H99.7733H99.7735H99.7736H99.7738H99.774H99.7741H99.7743H99.7744H99.7746H99.7748H99.7749H99.7751H99.7752H99.7754H99.7755H99.7757H99.7758H99.776H99.7761H99.7763H99.7764H99.7766H99.7767H99.7769H99.777H99.7771H99.7773H99.7774H99.7776H99.7777H99.7779H99.778H99.7781H99.7783H99.7784H99.7785H99.7787H99.7788H99.7789H99.7791H99.7792H99.7793H99.7795H99.7796H99.7797H99.7798H99.78H99.7801H99.7802H99.7803H99.7805H99.7806H99.7807H99.7808H99.781H99.7811H99.7812H99.7813H99.7814H99.7815H99.7817H99.7818H99.7819H99.782H99.7821H99.7822H99.7823H99.7824H99.7826H99.7827H99.7828H99.7829H99.783H99.7831H99.7832H99.7833H99.7834H99.7835H99.7836H99.7837H99.7838H99.7839H99.784H99.7841H99.7842H99.7843H99.7844H99.7845H99.7846H99.7847H99.7848H99.7849H99.785H99.7851H99.7851H99.7852H99.7853H99.7854H99.7855H99.7856H99.7857H99.7858H99.7859H99.7859H99.786H99.7861H99.7862H99.7863H99.7864H99.7864H99.7865H99.7866H99.7867H99.7868H99.7868H99.7869H99.787H99.7871H99.7871H99.7872H99.7873H99.7874H99.7874H99.7875H99.7876H99.7877H99.7877H99.7878H99.7879H99.7879H99.788H99.7881H99.7881H99.7882H99.7883H99.7883H99.7884H99.7885H99.7885H99.7886H99.7887H99.7887H99.7888H99.7888H99.7889H99.789H99.789H99.7891H99.7891H99.7892H99.7893H99.7893H99.7894H99.7894H99.7895H99.7895H99.7896H99.7896H99.7897H99.7897H99.7898H99.7898H99.7899H99.79H99.79H99.7901H99.7901H99.7901H99.7902H99.7902H99.7903H99.7903H99.7904H99.7904H99.7905H99.7905H99.7906H99.7906H99.7907H99.7907H99.7907H99.7908H99.7908H99.7909H99.7909H99.7909H99.791H99.791H99.7911H99.7911H99.7911H99.7912H99.7912H99.7913H99.7913H99.7913H99.7914H99.7914H99.7914H99.7915H99.7915H99.7915H99.7916H99.7916H99.7916H99.7917H99.7917H99.7917H99.7918H99.7918H99.7918H99.7918H99.7919H99.7919H99.7919H99.792H99.792H99.792H99.792H99.7921H99.7921H99.7921H99.7921H99.7922H99.7922H99.7922H99.7922H99.7923H99.7923H99.7923H99.7923H99.7924H99.7924H99.7924H99.7924H99.7924H99.7925H99.7925H99.7925H99.7925H99.7925H99.7926H99.7926H99.7926H99.7926H99.7926H99.7927H99.7927H99.7927H99.7927H99.7927H99.7927H99.7928H99.7928H99.7928H99.7928H99.7928H99.7928H99.7928H99.7929H99.7929H99.7929H99.7929H99.7929H99.7929H99.7929H99.7929H99.793H99.793H99.793H99.793H99.793H99.793H99.793H99.793H99.793H99.7931H99.7931H99.7931H99.7931H99.7931H99.7931H99.7931H99.7931H99.7931H99.7931H99.7931H99.7932H99.7932H99.7932H99.7932H99.7932H99.7932H99.7932H99.7932H99.7932H99.7932H99.7932H99.7932H99.7932H99.7932H99.7932H99.7932H99.7933H99.7933H99.7933H99.7933H99.7933H99.7933H99.7933H99.7933H99.7933H99.7933H99.7933H99.7933H99.7933H99.7933H99.7933H99.7933H99.7933H99.7933H99.7933H99.7933H99.7933H99.7933H99.7933H99.7933H99.7933H99.7933H99.7933H99.7933H99.7933H99.7933H99.7933H99.7933H99.7933H99.7933H99.7933H99.7933H99.7933H99.7933H99.7933H99.7933H99.7933H99.7933C100.152 183.305 100.484 183.112 100.662 182.801L100.883 182.414Z" fill="#161E2E" stroke="#161E2E" stroke-width="2" stroke-linejoin="round"/>
</g>
<g opacity="0.3">
<path d="M38.4065 177.764C27.8133 172.562 18.2382 165.086 14.9163 155.412C14.3534 153.536 13.9533 151.603 13.7321 149.617C13.6719 149.076 13.1895 148.683 12.6471 148.732C12.1047 148.782 11.7018 149.257 11.7409 149.8C11.8983 151.991 12.3418 154.084 13.0279 156.08C16.1326 166.329 23.7891 174.825 33.4052 181.056C44.9134 188.513 59.3487 192.813 72.5576 193.039C74.3659 193.095 76.1116 193.038 77.8451 192.926L77.8472 192.926C84.5941 192.476 91.1894 190.901 97.178 188.076C97.3515 187.994 97.4978 187.864 97.5994 187.702L100.641 182.835C100.864 182.479 100.838 182.027 100.59 181.701L120.675 147.804C120.856 147.499 120.862 147.121 120.69 146.811C120.519 146.501 120.196 146.304 119.841 146.295C117.739 146.24 115.638 146.184 113.592 146.129C113.351 146.123 113.116 146.203 112.929 146.357C111.673 147.391 110.39 147.83 109.177 147.768C107.964 147.707 106.694 147.14 105.478 145.924C105.31 145.756 105.088 145.653 104.851 145.634C95.2757 144.864 86.26 143.434 77.9126 141.347C77.4579 141.233 76.9853 141.45 76.7757 141.87C76.7759 141.869 76.7741 141.873 76.7691 141.882L76.749 141.918C76.7335 141.946 76.7068 141.992 76.6816 142.038C76.6339 142.126 76.5625 142.263 76.5072 142.422C75.0234 146.383 73.2422 149.007 71.5614 150.504C69.8632 152.017 68.4165 152.271 67.4502 151.925C66.4888 151.581 65.5538 150.481 65.2402 148.266C64.9292 146.069 65.274 142.951 66.7178 139.011C66.8095 138.76 66.7975 138.484 66.6843 138.242C66.5712 138.001 66.3663 137.814 66.1152 137.725C60.7471 135.808 55.7092 133.508 51.0011 130.88C50.6106 130.662 50.1229 130.73 49.8067 131.046C49.7394 131.113 49.6904 131.178 49.6636 131.215C49.6374 131.251 49.6135 131.287 49.6012 131.305L49.5988 131.309C49.5955 131.314 49.5929 131.318 49.5907 131.321C49.5788 131.335 49.5673 131.349 49.5562 131.363C48.7053 132.466 47.7688 132.979 46.9 133.116C46.025 133.254 45.1122 133.029 44.2815 132.462C42.6132 131.323 41.3167 128.804 41.7701 125.53C41.8199 125.17 41.6708 124.812 41.3805 124.593C34.3339 119.295 28.2168 112.905 23.1359 105.365C22.9097 105.03 22.5035 104.863 22.1069 104.944C21.7103 105.025 21.4015 105.337 21.3247 105.734L20.3845 110.602C20.3459 110.801 20.3692 111.008 20.4514 111.195C24.5832 120.56 30.4513 129.653 37.6856 137.46C37.2929 141.207 38.16 144.642 40.0096 146.57C40.9996 147.602 42.2914 148.21 43.7705 148.11C44.9989 148.027 46.2429 147.463 47.4567 146.45C51.1677 149.383 55.1112 151.951 59.2875 154.071C58.8342 159.165 61.0288 162.896 64.4469 164.117C67.866 165.338 71.9759 163.856 74.9651 159.595C76.1483 159.853 77.3008 160.036 78.486 160.178C82.8946 160.757 85.4164 165.492 83.3643 169.455C83.3642 169.455 83.364 169.455 83.3638 169.456L76.7855 182.059C76.7852 182.06 76.7849 182.061 76.7846 182.061C75.4223 184.643 72.6074 185.69 69.2617 186.067L69.2545 186.068C66.9141 186.35 62.375 185.843 56.7599 184.45C51.1842 183.066 44.6653 180.837 38.4065 177.764Z" fill="#161E2E" stroke="#161E2E" stroke-width="2" stroke-linejoin="round"/>
</g>
<g opacity="0.3">
<path d="M147.031 113.944C147.031 113.907 147.029 113.87 147.025 113.833C147.023 113.815 147.021 113.797 147.019 113.778C146.973 113.364 146.911 112.796 146.68 112.248C146.671 112.184 146.661 112.132 146.654 112.099L146.652 112.088C146.648 112.065 146.645 112.052 146.644 112.044C146.642 111.93 146.62 111.817 146.58 111.712C146.572 111.649 146.557 111.586 146.537 111.526C146.531 111.508 146.528 111.494 146.514 111.425L146.512 111.417C146.504 111.373 146.491 111.312 146.472 111.238C146.45 110.931 146.371 110.694 146.322 110.549L146.316 110.53C146.31 110.513 146.307 110.498 146.293 110.429L146.291 110.421C146.278 110.354 146.255 110.241 146.212 110.106C144.792 105.318 141.284 101.399 136.309 98.6663C142.327 92.8171 144.656 85.2915 143.529 77.7963C142.406 70.3339 137.874 62.9823 130.319 57.3497C146.138 49.1143 150.845 35.9683 148.06 24.5771C145.212 12.9245 134.545 3.30409 120.552 3.04656C120.252 3.04102 119.965 3.17108 119.77 3.4007C119.576 3.63032 119.496 3.93512 119.551 4.23067C119.71 5.07714 119.815 5.92275 119.868 6.71239C119.894 7.10499 120.148 7.44576 120.517 7.58303C130.219 11.1949 135.63 20.9748 135.677 31.2418C135.724 41.4783 130.425 52.0367 118.86 57.1115C118.527 57.2574 118.3 57.5724 118.266 57.9342C118.232 58.296 118.398 58.6476 118.698 58.8527C126.33 64.0709 127.806 73.6247 125.193 82.8294C122.59 91.9944 116.033 100.383 108.164 103.166L105.865 103.322C105.331 103.359 104.92 103.809 104.933 104.344C104.946 104.879 105.378 105.309 105.913 105.32C106.474 105.331 107.412 105.518 108.571 105.884C109.709 106.243 110.989 106.753 112.207 107.359C113.43 107.967 114.562 108.657 115.422 109.369C116.31 110.103 116.782 110.756 116.91 111.259L116.91 111.26C119.414 121.07 109.537 129.707 100.041 126.063L100.037 126.061C94.0842 123.804 88.5543 123.247 83.8192 125.387C79.0754 127.531 75.3861 132.265 72.8511 140.006C71.9681 142.545 70.9196 144.341 69.9302 145.455C68.9005 146.615 68.1044 146.863 67.706 146.814C67.43 146.78 66.9354 146.526 66.6816 145.289C66.4315 144.07 66.5037 142.161 67.1891 139.527C67.3028 139.09 67.1098 138.631 66.7182 138.407C66.3266 138.183 65.8333 138.249 65.5143 138.568L65.3483 138.734C65.2403 138.842 65.1585 138.973 65.1092 139.118C63.7478 143.102 63.4111 146.436 63.8492 148.952C64.2852 151.456 65.5384 153.318 67.4785 153.925C69.4007 154.526 71.5628 153.754 73.5175 151.98C75.4813 150.197 77.3814 147.293 78.9216 143.21C81.6468 137.612 84.7091 134.456 88.0688 133.667C91.3503 132.895 95.3465 134.289 100.232 138.87C100.554 140.016 100.93 141.125 101.363 142.102C102.654 145.239 104.352 147.469 106.312 148.706C108.312 149.968 110.519 150.152 112.623 149.292C114.688 148.448 116.568 146.637 118.098 144.063C119.524 141.666 120.677 138.557 121.412 134.799C122.673 134.87 123.923 134.891 125.146 134.796C125.453 134.773 125.732 134.609 125.902 134.353C126.014 134.185 126.07 133.99 126.069 133.794C132.191 132.877 138.631 130.944 142.679 127.663C142.706 127.641 142.731 127.618 142.756 127.593C142.756 127.593 142.763 127.586 142.785 127.568C142.794 127.56 142.804 127.552 142.816 127.542C142.83 127.53 142.847 127.517 142.867 127.501L142.878 127.492C142.939 127.443 143.047 127.357 143.143 127.261C143.203 127.201 143.255 127.134 143.298 127.062C145.73 122.932 146.961 118.965 147.03 115.283C147.06 115.005 147.058 114.744 147.051 114.527C147.048 114.421 147.044 114.335 147.041 114.259C147.035 114.143 147.031 114.05 147.031 113.944Z" fill="#161E2E" stroke="#161E2E" stroke-width="2" stroke-linejoin="round"/>
</g>
<g opacity="0.3">
<path d="M121.496 134.714C121.986 134.592 122.307 134.123 122.246 133.622C122.184 133.121 121.758 132.744 121.253 132.744C121.237 132.744 121.212 132.743 121.167 132.739C121.159 132.739 121.147 132.738 121.132 132.736C121.092 132.733 121.036 132.728 120.995 132.726C120.879 132.718 120.611 132.701 120.328 132.795C120.181 132.844 120.047 132.927 119.938 133.037C119.585 133.389 119.589 133.807 119.589 133.901C119.589 133.904 119.589 133.907 119.589 133.91C119.589 134.218 119.731 134.509 119.974 134.698C120.217 134.888 120.533 134.955 120.832 134.88L121.496 134.714ZM121.253 133.91H121.295H121.589C121.589 133.864 121.594 133.959 121.566 134.07C121.538 134.184 121.485 134.292 121.413 134.383C121.394 134.407 121.373 134.43 121.352 134.451L121.253 134.352V133.91Z" fill="#161E2E" stroke="#161E2E" stroke-width="2" stroke-linejoin="round"/>
</g>
<g opacity="0.3">
<path d="M143.322 128.85C143.296 128.529 143.116 128.24 142.839 128.074C142.562 127.908 142.222 127.887 141.927 128.015C134.761 131.133 127.68 133.089 120.678 133.632C120.203 133.669 119.82 134.035 119.763 134.508C119.234 138.841 117.823 141.631 115.622 145.592C115.441 145.919 115.457 146.319 115.663 146.63C115.87 146.942 116.232 147.112 116.604 147.072C123.086 146.374 129.914 144.748 135.042 141.883C140.179 139.015 143.81 134.768 143.322 128.85Z" fill="#161E2E" stroke="#161E2E" stroke-width="2" stroke-linejoin="round"/>
</g>
<g opacity="0.3">
<path d="M124.609 131.923C124.288 131.964 124.007 132.159 123.855 132.444C123.702 132.73 123.698 133.072 123.843 133.362C123.883 133.442 123.924 133.533 123.981 133.66C123.987 133.672 123.992 133.685 123.998 133.698C124.061 133.838 124.137 134.006 124.23 134.191C124.409 134.55 124.786 134.767 125.186 134.742C131.662 134.341 137.504 131.929 142.69 127.598C143.111 127.247 143.17 126.622 142.823 126.198C142.476 125.773 141.852 125.707 141.424 126.05C137.493 129.195 130.968 131.1 124.609 131.923Z" fill="#161E2E" stroke="#161E2E" stroke-width="2" stroke-linejoin="round"/>
</g>
<g opacity="0.3">
<path d="M66.7761 131.365C66.8302 131.856 67.2345 132.233 67.7279 132.254C68.2213 132.275 68.656 131.933 68.7513 131.448C69.3958 128.169 69.5794 125.421 69.0992 123.242C68.6049 120.998 67.4017 119.352 65.373 118.403L65.373 118.403L65.3665 118.4C61.5738 116.659 57.0237 117.725 54.2059 120.785C52.7709 122.315 51.4067 123.64 50.1493 124.66C48.8784 125.691 47.7785 126.358 46.8731 126.644C45.9997 126.921 45.4231 126.815 44.9844 126.472C44.4822 126.08 43.9505 125.219 43.5821 123.521C43.4812 123.057 43.0673 122.727 42.5921 122.733C42.1168 122.739 41.7114 123.079 41.6225 123.546L42.6048 123.733L41.6225 123.546L41.6225 123.546L41.6224 123.547L41.6222 123.548L41.6212 123.553L41.6174 123.573L41.6024 123.652L41.544 123.956C41.4931 124.222 41.4189 124.609 41.3256 125.093C41.1391 126.06 40.8766 127.413 40.5727 128.961C40.5442 129.106 40.5482 129.255 40.5845 129.399C41.2596 132.069 43.009 134.117 45.1814 134.869C47.4241 135.645 49.9075 134.965 51.7474 132.586C51.7555 132.575 51.7634 132.565 51.771 132.554C54.9943 128.025 58.7134 126.22 61.5447 126.268C62.9537 126.292 64.1576 126.768 65.0516 127.603C65.9457 128.438 66.5911 129.688 66.7761 131.365Z" fill="#161E2E" stroke="#161E2E" stroke-width="2" stroke-linejoin="round"/>
</g>
<g opacity="0.3">
<path d="M66.8833 133.746L66.883 133.746L66.8825 133.746L66.8816 133.745L66.88 133.744L66.8773 133.742L66.8747 133.741C66.8744 133.74 66.8747 133.741 66.8756 133.741C66.8764 133.742 66.8777 133.743 66.8794 133.744C66.8868 133.749 66.9022 133.761 66.9241 133.778C66.9682 133.814 67.0369 133.872 67.1183 133.953C67.3944 134.23 67.8061 134.32 68.1723 134.184C68.5386 134.049 68.7925 133.712 68.8224 133.323C68.8849 132.512 68.8213 131.773 68.766 131.165C68.721 130.67 68.3196 130.283 67.8234 130.257L66.8833 133.746ZM66.8833 133.746C66.8834 133.746 66.8834 133.746 66.8835 133.747L67.2467 133.202L67.8254 133.246L68.0374 133.034L68.4188 133.111L68.7507 131.451L67.7701 131.255L66.7742 131.346C66.8184 131.832 66.8573 132.306 66.8466 132.796C66.8439 132.919 66.838 133.044 66.8283 133.17L67.2467 133.202C66.8835 133.747 66.8834 133.746 66.8833 133.746Z" fill="#161E2E" stroke="#161E2E" stroke-width="2" stroke-linejoin="round"/>
</g>
<g opacity="0.3">
<path d="M51.1797 131.228C51.0551 131.462 51.0286 131.736 51.1062 131.99C51.1838 132.244 51.3591 132.456 51.5935 132.581L65.863 140.158C66.0976 140.283 66.3722 140.309 66.6261 140.231C66.88 140.153 67.0923 139.977 67.2164 139.742C70.7897 132.973 68.9838 127.17 64.7899 124.938C60.5936 122.706 54.7816 124.46 51.1797 131.228Z" fill="#161E2E" stroke="#161E2E" stroke-width="2" stroke-linejoin="round"/>
</g>
<g opacity="0.3">
<path d="M104.248 146.616C104.761 146.514 105.108 146.034 105.045 145.516C104.046 137.233 97.8969 132.308 91.7122 131.528C88.6197 131.138 85.4776 131.78 82.97 133.603C80.4473 135.437 78.6559 138.401 78.1706 142.475C78.1132 142.957 78.4095 143.41 78.8736 143.55C88.0316 146.326 97.9106 147.884 104.248 146.616Z" fill="#161E2E" stroke="#161E2E" stroke-width="2" stroke-linejoin="round"/>
</g>
<g opacity="0.3">
<path d="M44.0981 109.962L45.0907 110.083C45.1004 110.004 45.1006 109.924 45.0913 109.844C44.8204 107.549 44.322 105.517 43.653 103.861C42.9907 102.221 42.13 100.874 41.0856 100.04C39.9988 99.1727 38.6818 98.8521 37.3377 99.4089C36.0802 99.9298 34.9807 101.148 34.036 102.907C33.9192 103.124 33.887 103.377 33.9455 103.617C34.7727 107.009 34.9876 109.655 34.3815 111.379C34.0942 112.196 33.6299 112.784 32.9485 113.176C32.2464 113.58 31.2257 113.825 29.7528 113.774C29.333 113.759 28.9489 114.009 28.7912 114.398C28.6335 114.787 28.7358 115.233 29.0474 115.515L29.718 114.773C29.0474 115.515 29.0474 115.515 29.0475 115.515L29.0479 115.516L29.0496 115.517L29.0562 115.523L29.0822 115.547L29.1836 115.638L29.5685 115.986C29.9002 116.286 30.3741 116.714 30.9434 117.227C32.0818 118.254 33.6017 119.623 35.1269 120.993C36.6517 122.362 38.1833 123.733 39.3448 124.762C39.925 125.276 40.4158 125.707 40.768 126.011C40.9431 126.162 41.0894 126.286 41.1972 126.375C41.2495 126.418 41.3023 126.46 41.3488 126.495C41.37 126.51 41.4052 126.536 41.446 126.562C41.4649 126.574 41.5041 126.598 41.5551 126.623L41.5553 126.623C41.5635 126.627 41.7482 126.724 41.9964 126.724C42.4829 126.724 42.7442 126.394 42.7836 126.344L42.7849 126.342C42.8601 126.247 42.901 126.159 42.9159 126.127C42.9505 126.051 42.9704 125.983 42.9785 125.954C42.9983 125.885 43.0147 125.809 43.0276 125.745C43.0551 125.609 43.087 125.423 43.1219 125.205C43.1924 124.763 43.2827 124.139 43.3854 123.399C43.5909 121.916 43.849 119.941 44.1014 117.97C44.354 115.998 44.6013 114.027 44.7854 112.548C44.8775 111.809 44.9538 111.193 45.0071 110.761L45.0689 110.261L45.0851 110.129L45.0893 110.095L45.0903 110.086L45.0906 110.084L45.0907 110.084C45.0907 110.084 45.0907 110.083 44.0981 109.962Z" fill="#161E2E" stroke="#161E2E" stroke-width="2" stroke-linejoin="round"/>
</g>
</svg>
