<svg width="32" height="24" viewBox="0 0 32 24" fill="none" xmlns="http://www.w3.org/2000/svg">
<g clip-path="url(#clip0_1323_6)">
<path fill-rule="evenodd" clip-rule="evenodd" d="M19.4226 0.0599543C19.2541 0.0918299 19.0572 0.140825 18.9851 0.168804C18.2018 0.47301 17.7125 0.778751 17.313 1.21345C17.1616 1.37817 16.8576 1.76951 16.6374 2.08304C16.4171 2.39657 16.1414 2.74294 16.0247 2.8527C15.8277 3.03794 15.7766 3.0619 15.3125 3.18596C14.1086 3.50779 13.4951 3.75413 12.7708 4.20665C11.4578 5.02696 10.3583 6.10103 9.38856 7.51065C9.20744 7.77394 8.99977 7.97046 8.08835 8.74107C6.92556 9.7242 6.57331 9.9911 5.72802 10.5296C4.56127 11.2729 4.01065 11.8024 3.20757 12.9534C2.67823 13.712 2.40686 14.0595 1.83203 14.715C0.6584 16.0533 0.27769 16.5792 0.121899 17.0777C-0.288143 18.3895 0.5084 19.8501 1.85415 20.2543C2.14482 20.3416 2.95536 20.3541 4.6794 20.298L5.71298 20.2643L5.8669 20.4246C5.95156 20.5127 6.15977 20.7295 6.3296 20.9064C6.8661 21.4652 7.22027 21.6373 7.83331 21.6373C8.5059 21.6373 8.96777 21.3797 9.53715 20.6869C9.74115 20.4387 9.91073 20.2694 9.95535 20.2694C10.0734 20.2694 10.2409 20.4241 10.2711 20.5612C10.2864 20.6299 10.2666 20.8765 10.2273 21.1093C10.0957 21.8891 10.1857 22.6145 10.475 23.1055C10.6249 23.3598 11.0494 23.7404 11.3216 23.8645C11.7884 24.0774 12.4432 24.0337 12.9156 23.7583C13.1964 23.5946 13.5508 23.2133 13.7181 22.8946C13.9911 22.3751 14.0121 22.2604 14.0385 21.1417L14.0625 20.128L14.1666 20.0992C14.2239 20.0834 15.0699 20.0686 16.0465 20.0663L17.8221 20.0622L18.109 20.2062C18.2667 20.2854 18.5927 20.5089 18.8333 20.7027C19.3037 21.0818 19.8558 21.3866 20.2708 21.4964C20.4083 21.5328 20.7654 21.5724 21.0643 21.5843C21.9178 21.6185 22.3508 21.4833 23.3601 20.8675C24.1006 20.4158 24.1953 20.38 24.5563 20.4156C25.2514 20.484 25.469 20.577 26.2897 21.1563C27.0966 21.7259 27.6952 21.9361 28.5208 21.9397C29.5841 21.9444 30.4602 21.5392 31.1622 20.7181C31.6112 20.193 31.8586 19.5737 31.9657 18.7067C32.004 18.3968 31.9994 18.1564 31.9412 17.4218C31.767 15.224 31.3871 13.4157 30.6914 11.4728C29.0914 7.00466 26.26 3.33224 22.5 0.848264C21.7563 0.356949 21.3656 0.151892 21.0416 0.0828351C20.6806 0.0058195 19.7762 -0.00694734 19.4226 0.0599543ZM20.742 2.6425C21.5424 3.10227 22.5942 3.89883 23.4331 4.68039C26.4289 7.47143 28.4203 11.1478 29.1843 15.2981C29.4611 16.8017 29.5744 18.3355 29.4421 18.788C29.3101 19.2398 28.9886 19.4819 28.5204 19.4819C28.1689 19.4819 28.0691 19.4287 27.6729 19.0297C27.4131 18.7681 27.279 18.6714 26.9578 18.5143C26.2781 18.1817 24.9806 17.9194 24.2083 17.9584C23.5247 17.9928 23.1658 18.1408 21.75 18.9719C21.4495 19.1483 21.4263 19.1548 21.1458 19.1421C20.805 19.1267 20.67 19.0568 20.14 18.6209C19.7379 18.2902 19.345 18.0515 18.9166 17.8777C18.3229 17.6367 18.3301 17.6373 16 17.6373C14.0475 17.6373 13.8299 17.6442 13.5857 17.7131C12.9709 17.8865 12.4743 18.1905 12.1813 18.5727L12.0264 18.7749L11.8109 18.5721C11.5321 18.3099 11.1909 18.0942 10.8415 17.9597C10.6101 17.8706 10.4733 17.849 10.04 17.8334C9.16398 17.8018 8.73956 17.9596 8.15906 18.5323L7.79735 18.8892L7.57573 18.6645C7.28244 18.3671 6.82156 18.0631 6.49406 17.9511C6.11556 17.8215 5.68194 17.8062 4.0054 17.8632C2.99053 17.8978 2.51819 17.9 2.48853 17.8705C2.45886 17.841 2.49936 17.7566 2.61861 17.5995C2.90594 17.2208 3.66423 16.3447 4.21248 15.7579C5.12815 14.7778 5.45419 14.4085 5.51677 14.2806C5.55044 14.2118 5.63423 14.0301 5.7029 13.8769C5.77156 13.7237 5.88056 13.5315 5.9451 13.4498C6.10815 13.2435 6.49711 12.9928 6.78181 12.9107C7.07594 12.8258 7.3579 12.6272 8.08331 11.9937C9.05044 11.1492 9.78744 10.5234 10.505 9.93747C10.8858 9.62646 11.2499 9.31044 11.3139 9.23521C11.378 9.16001 11.5008 8.94762 11.5867 8.76329C11.6726 8.57892 11.8559 8.28843 11.994 8.11774C12.7046 7.23894 14.0117 6.23214 14.9141 5.86845C15.2057 5.75094 15.2626 5.74215 15.6787 5.7504L16.1283 5.75927L17.1371 5.12619C17.6919 4.77805 18.2604 4.42439 18.4005 4.34033C18.6746 4.17581 18.9472 3.90766 19.0682 3.6835C19.121 3.58563 19.1455 3.44196 19.1504 3.20147C19.1583 2.81921 19.1822 2.7722 19.4347 2.643C19.6949 2.5099 19.9152 2.45141 20.1684 2.44839C20.3705 2.44594 20.4419 2.47011 20.742 2.6425Z" fill="#F4F5F7"/>
<path d="M27.4458 18.3466C27.907 16.8949 29.6788 17.1724 30.0356 17.8741L27.4458 18.3466Z" fill="#CC8237"/>
<path d="M26.5463 18.1847C27.1929 12.2671 23.2704 5.63729 17.9644 2.94904C17.2929 3.33865 16.5733 3.78501 15.8213 4.27406C17.1715 5.32156 16.4909 7.09968 15.2282 7.88654C13.6555 8.8637 11.5496 9.49785 10.4482 8.23273C10.4399 8.22034 10.4316 8.20799 10.4143 8.19804C9.11627 9.23273 7.82723 10.3185 6.61177 11.4233C7.80227 11.0547 8.90839 11.3653 9.32377 12.1388C9.83648 13.0904 9.40273 14.1213 7.64369 14.7546C6.29723 15.2332 4.95323 15.0546 4.57698 14.1733C4.47652 13.9475 4.45806 13.6996 4.49673 13.446C4.2901 13.6571 4.08346 13.8683 3.88017 14.0737C3.31664 14.6629 2.78958 15.2423 2.30808 15.8094C2.19934 15.9311 2.09307 16.0618 1.99012 16.1867C1.82571 16.3914 1.66464 16.5903 1.51267 16.7868C0.85667 17.6294 1.4432 18.853 2.50857 18.8876C3.58405 18.8514 4.65039 18.8176 5.70769 18.7864C5.73169 18.7847 5.75814 18.7922 5.78214 18.7907C6.88964 18.8723 7.08623 20.118 7.79389 20.1855C8.1506 20.221 8.39281 20.0148 8.8896 19.288C9.72689 18.1048 11.9673 19.0637 11.4835 20.9544C11.0356 22.6894 12.4454 23.074 12.8087 21.7119C12.873 21.4806 12.8811 21.2402 12.8651 21.0012C12.7514 19.7187 12.7934 18.7396 14.2699 18.5956C15.4305 18.5851 16.549 18.5812 17.6185 18.5952C17.6185 18.5952 17.6185 18.5952 17.6243 18.5985C18.6375 18.6569 19.2183 19.1573 19.7272 19.6091C20.4632 20.2672 21.5401 20.3619 22.3807 19.8393C23.0631 19.4176 23.7572 18.8954 24.4724 18.9366L24.4782 18.9399C24.5229 18.9425 24.5734 18.9484 24.6239 18.9543C24.7339 18.9636 24.8407 18.9786 24.9474 18.9937C25.0956 19.0171 25.2379 19.0373 25.3679 19.0656C25.3976 19.0673 25.4299 19.0781 25.4597 19.0798C26.0249 19.1808 26.4485 19.3003 26.8335 19.62C26.8739 19.6967 26.9234 19.7709 26.9853 19.8369C26.7451 19.5465 26.4677 18.8672 26.5463 18.1847ZM18.1747 8.16931C18.6149 7.95373 19.1731 7.81342 19.7841 7.7951C21.2131 7.74652 22.3078 8.35688 22.4201 9.14863C22.5481 10.0334 21.7583 10.7078 19.8825 10.677C18.4544 10.6571 17.2777 10.1224 17.2464 9.32343C17.2367 8.87373 17.5929 8.45702 18.1747 8.16931ZM21.3326 17.4024C20.3866 17.3211 19.4115 17.2768 18.4139 17.258L18.4082 17.2547L18.4024 17.2513C17.5539 17.2411 16.6862 17.2506 15.8029 17.2741C14.6959 16.6184 14.0184 15.7257 14.1816 14.9766C14.4251 13.8753 16.3199 13.2201 18.4239 13.4424C20.5277 13.6647 22.0711 14.9375 21.8691 16.3536C21.8169 16.7372 21.5966 17.132 21.3326 17.4024Z" fill="#FFCA28"/>
<path d="M21.3326 17.4024C19.5804 17.2508 17.7343 17.2218 15.8019 17.2889C14.695 16.6332 14.0174 15.7405 14.1806 14.9915C14.4242 13.8901 16.3191 13.2349 18.4229 13.4572C20.5268 13.6796 22.0702 14.9524 21.8682 16.3684C21.8168 16.7373 21.5965 17.1321 21.3326 17.4024Z" fill="#E93B47"/>
<path d="M28.0469 20.4513C27.6431 20.3507 27.2686 20.1597 27.0101 19.8741C27.0019 19.8617 26.9903 19.8551 26.9878 19.846C26.982 19.8427 26.9796 19.8336 26.9738 19.8303C26.7427 19.5374 26.462 18.8639 26.5464 18.1847C27.1929 12.2672 23.2705 5.63729 17.9645 2.94907C17.9489 2.90951 17.9274 2.86663 17.9209 2.82462C17.5842 1.67496 19.6921 0.544171 21.0369 1.12138C21.1303 1.15947 21.2171 1.20909 21.3006 1.26445C27.265 4.91866 30.5286 11.4629 30.7904 18.0069C30.8079 20.0691 29.1514 20.7381 28.0469 20.4513Z" fill="#EB984E"/>
<path d="M19.8823 10.677C18.4544 10.6572 17.2775 10.1224 17.2463 9.32346C17.2309 8.87049 17.5928 8.45706 18.1746 8.16935C18.6147 7.95376 19.173 7.81345 19.784 7.79513C21.213 7.74655 22.3077 8.35691 22.4201 9.14866C22.5479 10.0335 21.7582 10.7078 19.8823 10.677Z" fill="#E93B47"/>
<path d="M15.2282 7.88654C13.6555 8.8637 11.5496 9.49786 10.4482 8.23274C10.4399 8.22034 10.4317 8.20795 10.4143 8.19804C10.5415 7.96447 10.6836 7.73172 10.8373 7.50561C12.0476 5.7699 14.2071 4.21678 15.8121 4.27651C16.1584 4.54333 16.3729 4.86503 16.4789 5.20132C16.7812 6.17056 16.1684 7.29823 15.2282 7.88654Z" fill="#E93B47"/>
<path d="M7.14152 14.9041C5.52019 15.0725 4.75773 14.7132 4.5264 14.1675C4.0365 13.0298 5.87814 11.0806 7.05544 11.4013C7.52581 11.3332 7.96615 11.3705 8.34835 11.4818C9.9326 11.9508 10.435 13.7465 7.14152 14.9041Z" fill="#E93B47"/>
<g opacity="0.25">
<path d="M22.1658 12.9058C22.4076 12.9332 22.617 12.8372 22.6337 12.6915C22.6504 12.5457 22.468 12.4054 22.2263 12.378C21.9846 12.3506 21.7751 12.4465 21.7584 12.5922C21.7417 12.738 21.9241 12.8783 22.1658 12.9058Z" fill="#E66E5F"/>
</g>
<g opacity="0.25">
<path d="M18.6092 7.08318C18.8509 7.11058 19.0604 7.01467 19.0771 6.86892C19.0938 6.72318 18.9114 6.58283 18.6697 6.55539C18.4279 6.52799 18.2184 6.62395 18.2017 6.76969C18.1851 6.91543 18.3675 7.05578 18.6092 7.08318Z" fill="#E66E5F"/>
</g>
<g opacity="0.25">
<path d="M23.5188 14.6184C23.6433 14.6326 23.7513 14.582 23.7601 14.5055C23.7689 14.4289 23.675 14.3555 23.5505 14.3414C23.426 14.3272 23.318 14.3778 23.3092 14.4543C23.3004 14.5308 23.3942 14.6043 23.5188 14.6184Z" fill="#E66E5F"/>
</g>
<g opacity="0.25">
<path d="M11.6986 13.3476C11.938 13.3905 12.1533 13.3083 12.1794 13.164C12.2056 13.0196 12.0327 12.8678 11.7933 12.8248C11.5539 12.7819 11.3386 12.8641 11.3124 13.0084C11.2862 13.1528 11.4591 13.3046 11.6986 13.3476Z" fill="#E66E5F"/>
<path d="M13.3225 12.3579C13.4096 12.3735 13.4881 12.3423 13.4979 12.2881C13.5077 12.234 13.4451 12.1775 13.3581 12.1619C13.271 12.1462 13.1924 12.1775 13.1827 12.2316C13.1728 12.2857 13.2354 12.3423 13.3225 12.3579Z" fill="#E66E5F"/>
<path d="M13.2054 13.6168C13.3687 13.646 13.5158 13.5879 13.5342 13.4868C13.5525 13.3858 13.435 13.2802 13.2718 13.2509C13.1085 13.2216 12.9613 13.2797 12.943 13.3808C12.9247 13.4818 13.0422 13.5875 13.2054 13.6168Z" fill="#E66E5F"/>
<path d="M16.3255 11.3828C16.5672 11.4102 16.7767 11.3143 16.7934 11.1685C16.8101 11.0228 16.6276 10.8824 16.3859 10.855C16.1443 10.8276 15.9347 10.9235 15.9181 11.0693C15.9013 11.215 16.0838 11.3554 16.3255 11.3828Z" fill="#E66E5F"/>
<path d="M16.1172 12.2717C16.2417 12.2858 16.3497 12.2352 16.3585 12.1587C16.3673 12.0822 16.2734 12.0087 16.1489 11.9946C16.0244 11.9805 15.9163 12.0311 15.9075 12.1076C15.8988 12.1841 15.9926 12.2576 16.1172 12.2717Z" fill="#E66E5F"/>
<path d="M14.6085 11.2744C14.7697 11.2926 14.9094 11.2277 14.9207 11.1293C14.932 11.0309 14.8105 10.9364 14.6494 10.9181C14.4882 10.8998 14.3484 10.9648 14.3371 11.0632C14.3259 11.1615 14.4474 11.2561 14.6085 11.2744Z" fill="#E66E5F"/>
</g>
<g opacity="0.25">
<path d="M20.01 12.4961C20.0971 12.5118 20.1756 12.4805 20.1854 12.4264C20.1953 12.3723 20.1326 12.3157 20.0456 12.3001C19.9585 12.2845 19.88 12.3157 19.8701 12.3699C19.8604 12.424 19.923 12.4805 20.01 12.4961Z" fill="#E66E5F"/>
</g>
<g opacity="0.25">
<path d="M17.0564 7.58433C17.1435 7.59995 17.222 7.56874 17.2318 7.51461C17.2416 7.46047 17.179 7.40393 17.092 7.38831C17.0049 7.37268 16.9263 7.40389 16.9165 7.45807C16.9067 7.51216 16.9693 7.56874 17.0564 7.58433Z" fill="#E66E5F"/>
</g>
<g opacity="0.25">
<path d="M4.19565 16.3514C4.43736 16.3788 4.64682 16.2829 4.66352 16.1371C4.68023 15.9914 4.49782 15.851 4.25611 15.8236C4.01437 15.7962 3.80487 15.8922 3.78817 16.0379C3.77147 16.1836 3.95391 16.324 4.19565 16.3514Z" fill="#E66E5F"/>
</g>
<g opacity="0.25">
<path d="M10.7589 16.1436C11.0006 16.171 11.2101 16.0751 11.2267 15.9293C11.2434 15.7836 11.0611 15.6432 10.8193 15.6158C10.5776 15.5884 10.3681 15.6843 10.3514 15.8301C10.3347 15.9758 10.5172 16.1162 10.7589 16.1436Z" fill="#E66E5F"/>
</g>
<g opacity="0.25">
<path d="M10.9681 11.2124C11.1073 11.2282 11.2279 11.173 11.2375 11.0892C11.2471 11.0054 11.1421 10.9247 11.0029 10.9089C10.8637 10.8932 10.7431 10.9483 10.7335 11.0321C10.7239 11.1159 10.829 11.1966 10.9681 11.2124Z" fill="#E66E5F"/>
</g>
<g opacity="0.25">
<path d="M6.09565 16.8474C6.26411 16.8665 6.41019 16.7993 6.42186 16.6973C6.43357 16.5952 6.30645 16.4971 6.13799 16.478C5.96953 16.4589 5.82344 16.5261 5.81178 16.6281C5.80011 16.7301 5.9272 16.8283 6.09565 16.8474Z" fill="#E66E5F"/>
</g>
<g opacity="0.25">
<path d="M19.1771 9.03985C19.3513 9.07106 19.5046 9.02911 19.5197 8.94613C19.5347 8.86314 19.4058 8.77054 19.2317 8.73929C19.0575 8.70803 18.9042 8.74998 18.8891 8.83301C18.8741 8.91599 19.003 9.00864 19.1771 9.03985Z" fill="#F4F5F7"/>
</g>
<g opacity="0.25">
<path d="M21.2174 9.31295C21.3154 9.33052 21.4011 9.30967 21.409 9.26635C21.4168 9.22304 21.3438 9.17371 21.2458 9.15614C21.1479 9.13856 21.0621 9.15941 21.0543 9.20273C21.0464 9.24604 21.1195 9.29541 21.2174 9.31295Z" fill="#F4F5F7"/>
</g>
<g opacity="0.25">
<path d="M20.456 9.34723C20.5214 9.35896 20.5785 9.34503 20.5838 9.31618C20.589 9.28729 20.5403 9.25438 20.475 9.24269C20.4097 9.23096 20.3525 9.24488 20.3473 9.27373C20.342 9.30258 20.3907 9.33549 20.456 9.34723Z" fill="#F4F5F7"/>
</g>
<g opacity="0.25">
<path d="M20.5631 8.76867C20.6864 8.7908 20.7949 8.76191 20.8054 8.70417C20.8158 8.64643 20.7243 8.58173 20.601 8.55959C20.4777 8.53742 20.3692 8.56631 20.3587 8.62405C20.3483 8.68179 20.4398 8.74654 20.5631 8.76867Z" fill="#F4F5F7"/>
</g>
<g opacity="0.25">
<path d="M13.136 6.84862C13.307 6.8034 13.428 6.70068 13.4062 6.61915C13.3844 6.53765 13.2281 6.50823 13.0571 6.55345C12.8861 6.59871 12.7652 6.70147 12.787 6.783C12.8088 6.86449 12.965 6.89388 13.136 6.84862Z" fill="#F4F5F7"/>
</g>
<g opacity="0.25">
<path d="M14.5175 6.35326C14.6136 6.32781 14.6824 6.27272 14.6711 6.2302C14.6597 6.18767 14.5725 6.17382 14.4763 6.19927C14.3801 6.22472 14.3114 6.27981 14.3228 6.32234C14.3341 6.36487 14.4213 6.37871 14.5175 6.35326Z" fill="#F4F5F7"/>
</g>
<g opacity="0.25">
<path d="M14.0605 6.99757C14.1247 6.98062 14.1705 6.94385 14.163 6.9155C14.1554 6.88719 14.0972 6.87795 14.0331 6.8949C13.969 6.9119 13.9232 6.94862 13.9308 6.97693C13.9383 7.00533 13.9965 7.01457 14.0605 6.99757Z" fill="#F4F5F7"/>
</g>
<g opacity="0.25">
<path d="M14.2561 5.59636C14.3772 5.56432 14.4631 5.49236 14.4479 5.43566C14.4328 5.37895 14.3223 5.35897 14.2012 5.39101C14.0801 5.42306 13.9941 5.49501 14.0093 5.55168C14.0245 5.60838 14.135 5.62836 14.2561 5.59636Z" fill="#F4F5F7"/>
</g>
<g opacity="0.25">
<path d="M7.94276 12.4753C8.10814 12.4127 8.21776 12.2981 8.18764 12.2193C8.15747 12.1404 7.99897 12.1272 7.83364 12.1898C7.66822 12.2524 7.5586 12.367 7.58872 12.4458C7.61889 12.5247 7.77739 12.5378 7.94276 12.4753Z" fill="#F4F5F7"/>
</g>
<g opacity="0.25">
<path d="M6.00649 13.1539C6.09949 13.1187 6.16215 13.0568 6.1464 13.0157C6.13074 12.9746 6.04257 12.9698 5.94953 13.005C5.85653 13.0402 5.79386 13.1021 5.80953 13.1432C5.82528 13.1843 5.91345 13.1892 6.00649 13.1539Z" fill="#F4F5F7"/>
</g>
<g opacity="0.25">
<path d="M6.61556 12.6834C6.67756 12.66 6.71935 12.6187 6.70885 12.5913C6.6984 12.5639 6.6396 12.5606 6.5776 12.5841C6.51556 12.6076 6.47381 12.6488 6.48427 12.6763C6.49477 12.7037 6.55352 12.7069 6.61556 12.6834Z" fill="#F4F5F7"/>
</g>
<g opacity="0.25">
<path d="M6.86701 13.3287C6.98418 13.2844 7.06214 13.204 7.04118 13.1492C7.02022 13.0943 6.90826 13.0858 6.7911 13.1302C6.67397 13.1745 6.59597 13.2548 6.61693 13.3097C6.63793 13.3645 6.74989 13.373 6.86701 13.3287Z" fill="#F4F5F7"/>
</g>
<g opacity="0.25">
<path d="M17.5974 15.0865C17.8042 15.1236 17.9862 15.0747 18.0038 14.9772C18.0215 14.8798 17.8682 14.7707 17.6614 14.7337C17.4546 14.6966 17.2727 14.7455 17.255 14.8429C17.2374 14.9403 17.3907 15.0494 17.5974 15.0865Z" fill="#F4F5F7"/>
</g>
<g opacity="0.25">
<path d="M18.6196 14.6076C18.7139 14.6245 18.7967 14.6031 18.8046 14.5598C18.8125 14.5165 18.7423 14.4676 18.648 14.4507C18.5537 14.4338 18.4709 14.4552 18.463 14.4985C18.4552 14.5418 18.5253 14.5906 18.6196 14.6076Z" fill="#F4F5F7"/>
</g>
<g opacity="0.25">
<path d="M16.9117 15.6353C17.0278 15.6561 17.1298 15.6291 17.1396 15.575C17.1494 15.5208 17.0633 15.4601 16.9472 15.4393C16.8311 15.4184 16.7291 15.4454 16.7193 15.4996C16.7094 15.5537 16.7956 15.6145 16.9117 15.6353Z" fill="#F4F5F7"/>
</g>
<g opacity="0.25">
<path d="M19.2396 15.3846C19.4138 15.4158 19.5671 15.3738 19.5821 15.2908C19.5972 15.2078 19.4683 15.1152 19.2941 15.084C19.12 15.0528 18.9667 15.0947 18.9516 15.1777C18.9366 15.2608 19.0655 15.3534 19.2396 15.3846Z" fill="#F4F5F7"/>
</g>
<g opacity="0.25">
<path d="M18.3173 16.0568C18.4189 16.0751 18.5081 16.0518 18.5166 16.0049C18.5252 15.958 18.4497 15.9052 18.3481 15.887C18.2466 15.8687 18.1573 15.892 18.1488 15.9389C18.1403 15.9858 18.2158 16.0386 18.3173 16.0568Z" fill="#F4F5F7"/>
</g>
<g opacity="0.25">
<path d="M19.6578 16.0214C19.7267 16.0338 19.7874 16.0175 19.7933 15.985C19.7991 15.9525 19.7481 15.9162 19.6791 15.9038C19.6102 15.8914 19.5496 15.9077 19.5437 15.9402C19.5378 15.9727 19.5889 16.009 19.6578 16.0214Z" fill="#F4F5F7"/>
</g>
<g opacity="0.8">
<path d="M4.49665 13.446C4.29002 13.6571 4.0834 13.8683 3.88007 14.0737C3.31657 14.6629 2.7895 15.2423 2.308 15.8094C2.19926 15.9311 2.09298 16.0618 1.99003 16.1867C1.82563 16.3914 1.66456 16.5903 1.5126 16.7868C0.991925 17.4617 1.2555 18.3781 1.931 18.7413C1.52308 18.3013 1.42954 17.597 1.84972 17.056C2.00168 16.8596 2.16276 16.6607 2.32716 16.4559C2.43011 16.331 2.53306 16.206 2.64513 16.0787C3.12663 15.5115 3.65703 14.9264 4.21719 14.343C4.31598 14.2386 4.41473 14.1343 4.51927 14.0332C4.46756 13.8428 4.4581 13.646 4.49665 13.446ZM17.9644 2.94904C17.2928 3.33865 16.5732 3.78497 15.8211 4.27406C15.9385 4.36413 16.0434 4.46237 16.1301 4.5655C16.8606 4.0871 17.6457 3.59397 18.3048 3.21255C19.0192 3.57495 19.7144 4.01059 20.373 4.50958C19.6104 3.89752 18.8036 3.37513 17.9644 2.94904Z" fill="#F4F5F7"/>
</g>
<g opacity="0.7">
<path d="M30.7042 18.1617C30.4424 11.6178 27.1787 5.07351 21.2144 1.4193C21.1541 1.37719 21.0904 1.34078 21.0234 1.31015C21.0268 1.30441 21.0301 1.29863 21.0334 1.29289C20.8903 1.23408 20.7406 1.18677 20.5834 1.16584L20.5684 1.16496C19.7112 0.996612 18.6846 1.37466 18.1584 1.93925C18.2554 1.86453 18.364 1.7964 18.4809 1.74068C18.0454 2.08144 17.7952 2.52806 17.9183 2.9813C17.9208 2.99038 17.929 3.00275 17.9372 3.01512C17.9744 3.04402 18.0291 3.02935 18.0408 2.9824C18.2421 2.24745 19.1666 1.38858 20.1611 1.53709C20.3144 1.83146 20.8521 1.99333 21.1339 1.82516C23.1096 3.06927 24.7765 4.63467 26.1349 6.41428C26.149 6.42999 26.1506 6.45386 26.1431 6.48019C25.8756 7.22327 27.0889 9.08077 27.9164 9.24744C27.9371 9.25158 27.9544 9.26153 27.9594 9.27965C28.1638 9.67214 28.359 10.0671 28.5419 10.4702C28.5468 10.4884 28.5484 10.5123 28.5417 10.5237C28.2656 11.0551 28.3631 11.846 29.2042 12.189C29.2216 12.1989 29.2389 12.2088 29.2439 12.2269C29.9403 14.2331 30.3294 16.3317 30.4163 18.4336C30.4176 18.9245 30.3281 19.3328 30.1766 19.675C30.1424 19.7474 30.2466 19.8069 30.2865 19.7378C30.54 19.339 30.7076 18.8222 30.7042 18.1617Z" fill="#F4F5F7"/>
</g>
<g opacity="0.6">
<path d="M8.50597 11.7329C8.49764 11.774 8.49589 11.8037 8.49589 11.8037C6.26947 11.5802 4.76947 13.3111 4.82635 14.4387C4.82635 14.4387 4.77589 14.4328 4.69314 14.4161C4.20326 13.2785 6.04489 11.3293 7.22218 11.65C7.68347 11.5843 8.1271 11.6158 8.50597 11.7329Z" fill="#F4F5F7"/>
<path d="M16.2881 5.5933C16.359 5.7104 16.4117 5.83243 16.452 5.96263C16.5678 6.33515 16.5479 6.7296 16.4302 7.10651C16.6425 6.64582 16.7074 6.14692 16.5611 5.68043C16.4551 5.34414 16.2464 5.0258 15.8944 4.75563C14.2893 4.69585 12.0229 6.09847 10.8126 7.83418C10.6498 8.06273 10.6147 8.44603 10.4966 8.67716C10.5048 8.68951 10.513 8.70191 10.5304 8.71185C10.6169 8.56218 10.7112 8.23173 10.8126 8.08288C11.2661 7.43086 11.7347 6.9264 12.3751 6.40412C12.9707 6.59903 13.6606 6.25092 13.6305 5.69001C14.1378 5.39803 14.6549 5.19583 15.1419 5.09892C15.5867 5.0086 16.054 5.19907 16.2881 5.5933Z" fill="#F4F5F7"/>
<path d="M18.423 13.7059C16.3192 13.4835 14.4243 14.1388 14.1808 15.2402C14.1615 15.3134 14.1572 15.3875 14.1587 15.4649C14.5345 14.4544 16.3505 13.869 18.3592 14.083C20.3886 14.301 21.9041 15.4889 21.8156 16.855C21.8382 16.776 21.8607 16.6969 21.8683 16.6171C22.0737 15.1953 20.527 13.9283 18.423 13.7059Z" fill="#F4F5F7"/>
<path d="M17.4879 9.02465C17.6136 8.71365 17.7057 8.98067 18.15 8.74453C18.5818 8.51663 19.1484 8.38867 19.7594 8.37027C21.1884 8.32177 22.283 8.93213 22.3954 9.72384C22.4035 9.78979 22.4059 9.85234 22.4082 9.91493C22.4748 9.74627 22.4919 9.55688 22.4584 9.36165C22.346 8.56994 21.2514 7.95958 19.8224 8.00807C19.208 8.03216 18.6439 8.16923 18.2129 8.38233C17.6344 8.66428 17.2692 9.08343 17.2847 9.53645C17.2938 9.534 17.4912 9.01889 17.4879 9.02465Z" fill="#F4F5F7"/>
</g>
<g opacity="0.8">
<path d="M9.66907 9.34189C10.1277 10.0405 9.25411 10.82 8.20994 10.5755C7.94532 10.8071 7.67736 11.0445 7.41273 11.2761C7.15773 11.2912 6.88273 11.3408 6.61182 11.4233C7.82727 10.3185 9.11052 9.2294 10.4144 8.19806C10.4226 8.21041 10.4309 8.22281 10.4482 8.23275C10.5325 8.32681 10.6258 8.41845 10.72 8.49526C10.3692 8.76954 10.0208 9.05286 9.66907 9.34189Z" fill="#F4F5F7"/>
</g>
<g opacity="0.3">
<path d="M29.7494 20.1917C29.9051 20.1888 30.2076 20.0248 30.3684 19.9864C29.8018 20.4743 29.0257 20.6051 28.4251 20.4456C28.0213 20.345 27.6468 20.1539 27.3883 19.8683C27.3801 19.8559 27.3685 19.8493 27.366 19.8403C27.3603 19.8369 27.3578 19.8279 27.352 19.8245C27.1209 19.5317 26.8402 18.8581 26.9246 18.1789C27.5678 12.2672 23.6454 5.63731 18.3394 2.94904C17.9902 2.16747 18.8109 1.37302 19.8174 1.08301C19.3289 1.46234 19.0569 1.97314 19.2876 2.48021C25.1642 5.07342 28.6797 11.5014 27.8694 17.7158C27.8526 17.8517 27.8473 17.9941 27.8544 18.1284C28.1503 17.616 28.7479 17.3143 29.3661 17.4302C30.153 17.5737 30.6778 18.3178 30.5335 19.1007C30.4564 19.5008 30.1299 19.9727 29.7494 20.1917Z" fill="#161E2E"/>
</g>
<g opacity="0.1">
<path d="M26.9321 19.8303C26.8792 19.7619 26.8264 19.6934 26.7802 19.6134C26.3919 19.2995 25.9716 19.1741 25.4064 19.0732C25.2939 19.0548 24.8543 19.0563 24.7269 19.037C24.7253 19.0131 24.7236 18.9892 24.7187 18.9711C24.6683 18.9652 24.6178 18.9593 24.5673 18.9534C24.5168 18.9476 24.4696 18.9359 24.4216 18.9391L24.4159 18.9358C23.7006 18.8946 23.0065 19.4168 22.3242 19.8385C21.4868 20.3554 20.4009 20.263 19.6706 19.6082C19.1617 19.1565 18.5867 18.6594 17.5678 18.5977C17.5678 18.5977 17.5678 18.5977 17.5619 18.5944C16.4891 18.5861 15.3681 18.581 14.2133 18.5948C12.7369 18.7387 12.689 19.7145 12.8085 21.0004C12.8303 21.2426 12.8164 21.4798 12.7521 21.7111C12.3888 23.0732 10.9791 22.6885 11.4269 20.9535C11.9165 19.0662 9.6794 18.1015 8.83302 19.2871C8.33623 20.014 8.09402 20.2202 7.73731 20.1847C7.01473 20.1163 6.82406 18.8204 5.6511 18.7855C4.59965 18.8201 3.53325 18.8539 2.452 18.8867C1.38084 18.8488 0.80342 17.6228 1.4561 16.7859C1.60807 16.5895 1.76914 16.3906 1.93355 16.1858C1.30922 18.3331 5.53198 17.699 9.15456 17.411L13.8866 17.3743C14.1831 17.3676 14.3354 17.0105 14.1298 16.7934C13.6682 16.2999 13.4418 15.7722 13.5439 15.3022C13.6569 14.8001 14.1081 14.3919 14.767 14.1175C14.427 14.3597 14.2036 14.6532 14.1275 14.9849C13.9642 15.7339 14.6418 16.6266 15.7488 17.2823C16.6354 17.2531 17.5031 17.2436 18.3483 17.2596L18.3574 17.2571L20.9507 17.3917L21.3472 17.4116L23.7085 17.6815C24.2216 17.7527 24.6844 17.4046 24.7724 16.9189C24.785 16.8571 24.786 16.7888 24.787 16.7204C24.6073 11.4871 21.4246 6.06874 16.8799 3.55526C17.2306 3.33454 17.5713 3.13107 17.9054 2.93915C23.2114 5.62737 27.1371 12.2515 26.4873 18.1747C26.426 18.8672 26.7034 19.5465 26.9321 19.8303Z" fill="#161E2E"/>
</g>
<g opacity="0.3">
<path d="M21.6707 16.937C21.6608 16.9543 21.6508 16.9716 21.6408 16.9888C21.6342 17.0003 21.5719 17.0949 21.5096 17.1895L21.5062 17.1952C21.4514 17.2635 21.3933 17.3374 21.336 17.3966C19.5838 17.2451 17.7378 17.216 15.8054 17.2832C14.6984 16.6275 14.0209 15.7348 14.1841 14.9857C14.2904 14.4951 14.7326 14.0893 15.3674 13.8165C15.1218 14.0285 14.9581 14.2718 14.8971 14.5509C14.8084 14.9444 14.8736 15.3645 15.1194 15.7654C15.5103 16.3946 16.2156 16.7595 16.9574 16.7546C18.1719 16.7443 19.4458 16.791 20.6104 16.867C21.1584 16.9045 21.6584 16.5318 21.7674 15.9967C21.7706 15.991 21.7706 15.991 21.7682 15.9819L21.6409 16.9353C21.6558 16.9362 21.6649 16.9337 21.6707 16.937Z" fill="#161E2E"/>
</g>
<g opacity="0.3">
<path d="M15.2282 7.88654C13.6554 8.8637 11.5496 9.49785 10.4482 8.23273C10.4399 8.22038 10.4317 8.20795 10.4143 8.19804C10.5416 7.96446 10.6837 7.73176 10.8373 7.5056C11.348 8.95381 15.1207 8.55253 16.4731 5.198C16.7812 6.17056 16.1684 7.29823 15.2282 7.88654Z" fill="#161E2E"/>
</g>
<g opacity="0.3">
<path d="M22.4313 9.31581C22.2862 10.1135 21.4272 10.6946 19.8857 10.6712C18.4577 10.6514 17.281 10.1166 17.2497 9.31767C17.2372 9.01952 17.391 8.73985 17.659 8.5025C17.6364 8.58147 17.6288 8.66134 17.6303 8.73877C17.6557 9.53442 18.8358 10.0634 20.2663 10.0923C21.2994 10.1161 22.0323 9.64679 22.4313 9.31581Z" fill="#161E2E"/>
</g>
<g opacity="0.3">
<path d="M5.0482 12.767C4.85649 14.3651 6.05641 14.913 8.0567 14.142L8.72916 13.684L9.11116 13.1825C8.99512 13.9432 8.61036 14.5427 7.84457 14.909L6.9932 15.0503L6.13049 15.078C6.13049 15.078 5.49845 14.8928 5.43641 14.8803C5.37437 14.8678 4.93157 14.4616 4.92086 14.4401C4.91016 14.4187 4.61636 14.0211 4.6522 13.919C4.69474 13.8055 5.0482 12.767 5.0482 12.767Z" fill="#161E2E"/>
</g>
<path fill-rule="evenodd" clip-rule="evenodd" d="M17.8577 1.63105C18.1059 1.36079 18.4477 1.12117 18.8595 0.928824L18.9617 0.88106C19.091 0.820658 19.2262 0.773603 19.3652 0.740637C19.524 0.702963 19.6867 0.683933 19.85 0.683933H20.0834C21.0135 0.682469 21.079 0.727418 21.618 1.09799C21.7202 1.16822 21.8394 1.25015 21.9847 1.34568C23.1987 2.14382 23.9797 2.78469 25.0835 3.88862C26.8253 5.63059 28.1375 7.53521 29.1932 9.8538C30.0669 11.7725 30.5934 13.5302 30.9356 15.6705C31.0272 16.2439 31.0442 16.5061 31.0617 17.622C31.0793 18.7495 31.073 18.9415 31.0115 19.1537C30.9054 19.5193 30.7135 19.8467 30.4208 20.1614C30.0849 20.5225 29.7749 20.7263 29.328 20.8797C29.0232 20.9844 28.9105 21.0018 28.5359 21.0023C28.0202 21.0029 27.6827 20.9278 27.2642 20.7191C26.981 20.5779 26.7835 20.4167 26.4418 20.0481C26.2037 19.7911 25.7991 19.6575 24.8387 19.5188C24.5512 19.4773 24.2791 19.4611 24.146 19.4776C23.8869 19.5099 23.4988 19.689 22.983 20.0143C22.5096 20.313 22.0075 20.5532 21.7191 20.6189C21.574 20.6521 21.3252 20.6622 21.012 20.6479C20.269 20.6138 20.0034 20.4986 19.2047 19.8643C18.6872 19.4533 18.2777 19.2313 17.9172 19.1661C17.575 19.1042 14.0917 19.1359 13.8895 19.2027C13.649 19.2822 13.4655 19.4271 13.354 19.6257C13.2534 19.805 13.2506 19.8316 13.2598 20.5276C13.2765 21.7986 13.176 22.2594 12.7895 22.6851C12.5545 22.9441 12.4622 22.9775 11.9813 22.9775H11.8378C11.6603 22.9775 11.4894 22.9104 11.3598 22.7897C10.9704 22.4271 10.8599 21.8832 11.0032 21.0338C11.1219 20.3306 11.0296 19.9471 10.665 19.6277C10.3477 19.3498 9.85837 19.2525 9.53812 19.4038C9.45483 19.4431 9.28096 19.6086 9.13671 19.7857C8.50392 20.563 8.30691 20.7011 7.83333 20.6996C7.41554 20.6983 7.28446 20.6206 6.759 20.0631C6.27621 19.5509 6.12162 19.4298 5.87441 19.3704C5.78225 19.3482 5.08166 19.3528 4.11957 19.382C2.39487 19.4342 2.15915 19.4201 1.80609 19.2446C1.52611 19.1055 1.14739 18.7437 1.02436 18.498C0.923152 18.2959 0.916748 18.2465 0.916748 17.6686C0.916748 17.1472 0.928686 17.0308 0.995527 16.9004C1.18645 16.5282 2.07563 15.4632 3.28393 14.1594C3.86264 13.5349 3.97865 13.3866 4.1239 13.0858C4.33658 12.6452 4.47691 12.4426 4.82066 12.0799C5.17058 11.7107 5.54637 11.4443 5.94596 11.2822C6.09387 11.2223 6.19129 11.1834 6.28304 11.1341C6.4715 11.033 6.63625 10.8882 7.16596 10.4275C7.56083 10.0841 8.22025 9.52107 8.63129 9.17637C9.6695 8.30578 9.88379 8.12837 10.0351 7.90814C10.0786 7.84468 10.117 7.77765 10.1683 7.68949C10.4643 7.18084 10.7274 6.84033 11.2102 6.34109C12.212 5.30511 13.4939 4.43904 14.56 4.0779C14.7315 4.01977 15.0651 3.95179 15.3012 3.92683C15.5837 3.89695 15.8556 3.80329 16.0961 3.653L16.5488 3.37021L17.0994 3.0262C17.2694 2.91998 17.3847 2.74558 17.4153 2.54822C17.4758 2.1586 17.5893 1.92333 17.8577 1.63105ZM22.9432 7.68029C21.7282 6.05517 20.2892 4.73144 18.6592 3.73933C18.3859 3.57294 18.1519 3.43839 18.1392 3.44034C18.1267 3.44225 17.8075 3.63774 17.43 3.87466C17.0525 4.11164 16.7167 4.3224 16.6836 4.34304C16.6332 4.37459 16.6445 4.42632 16.754 4.66429C16.9484 5.08708 16.9856 5.28642 16.9633 5.78764C16.9284 6.57384 16.6545 7.0875 15.8216 7.92903C15.2763 8.47987 14.9409 8.70669 14.2573 8.98681C13.4371 9.32298 12.6323 9.46051 11.6723 9.42864C11.0097 9.40667 10.7007 9.34723 10.3421 9.1728C10.218 9.11241 10.0698 9.13007 9.96354 9.21786L9.78058 9.36899C8.9345 10.0678 8.02454 10.8562 8.04291 10.8745C8.05383 10.8854 8.18937 10.9207 8.34408 10.9529C9.40854 11.1745 10.0525 12.0203 9.93904 13.0476C9.88121 13.5708 9.45929 14.1571 8.85075 14.5597C8.46958 14.8119 7.72121 15.1401 7.23921 15.2664C6.71975 15.4025 5.84041 15.4189 5.38821 15.3009C4.87075 15.1659 4.443 14.8966 4.24125 14.5786C4.17912 14.4808 4.17683 14.4827 3.63404 15.0754C2.45701 16.3608 2.29617 16.5815 2.37719 16.7995C2.44633 16.9855 2.90071 17.1191 3.68956 17.1854C4.30487 17.237 4.89896 17.2173 6.90646 17.0786C9.07808 16.9285 10.1377 16.8812 10.955 16.8975L11.5146 16.9088C11.6307 16.9111 11.7407 16.9614 11.8181 17.0477C11.9731 17.2204 11.9807 17.4192 11.8386 17.5829C11.7747 17.6565 11.6811 17.6979 11.5834 17.696L11.1627 17.6876C10.4452 17.6733 9.17775 17.735 7.52566 17.8646C5.41454 18.0302 4.51504 18.0665 3.80341 18.0148C2.76852 17.9396 2.28423 17.8109 1.90709 17.5108C1.72324 17.3644 1.68788 17.3963 1.69233 17.7045C1.69632 17.9791 1.8365 18.2346 2.07451 18.401C2.25237 18.5254 2.26169 18.527 2.78162 18.527C3.07138 18.527 3.90744 18.5112 4.6395 18.4918C5.84796 18.4598 5.98966 18.4631 6.17787 18.5277C6.49096 18.6354 6.776 18.835 7.096 19.1706C7.25483 19.3373 7.46187 19.554 7.55608 19.6523C7.66616 19.7673 7.7635 19.8311 7.82842 19.8311C7.94104 19.8311 8.11621 19.6636 8.41262 19.2722C8.66241 18.9424 8.94867 18.6847 9.18687 18.5751C9.35462 18.4979 9.45571 18.4856 9.92208 18.4856H10.117C10.344 18.4856 10.5676 18.5413 10.7678 18.6478C11.4903 19.032 11.9395 19.749 11.9395 20.5181C11.9395 20.6827 11.9114 20.9634 11.8771 21.1419C11.7415 21.8472 11.8614 22.349 12.1117 22.1236C12.3177 21.938 12.3315 21.8603 12.3579 20.7419C12.3805 19.7818 12.3911 19.6648 12.4756 19.4492C12.6827 18.9211 13.0484 18.5728 13.6032 18.375C13.8729 18.2789 13.8792 18.2786 15.995 18.2786C17.9664 18.2786 18.1325 18.2842 18.3451 18.3568C18.8482 18.5288 19.2222 18.7517 19.801 19.2245C20.2763 19.6129 20.5919 19.7573 21.0189 19.7819C21.5166 19.8106 21.7207 19.747 22.3482 19.3682C23.4817 18.6838 23.8193 18.5646 24.5176 18.6024C24.903 18.6233 25.591 18.7376 26.0402 18.8555C26.093 18.8693 26.1448 18.8301 26.1454 18.7758L26.1497 18.3944C26.1527 18.1258 26.1608 17.4403 26.1677 16.871C26.1773 16.0726 26.164 15.7142 26.1091 15.3028C25.7427 12.5561 24.6857 10.011 22.9432 7.68029ZM15.6852 6.87241C16.2047 6.23651 16.3108 5.41769 15.9417 4.89318C15.8854 4.81322 15.6508 4.77479 15.4127 4.8065C14.1355 4.9767 12.0631 6.43817 11.1078 7.84236L11.0497 7.9277C11.004 7.99498 11.0161 8.08572 11.078 8.13873C11.3928 8.4082 12.1611 8.51763 12.8162 8.38636C13.3262 8.28414 13.7258 8.1435 14.2896 7.86781C15.0347 7.50337 15.3584 7.27253 15.6852 6.87241ZM17.846 7.81587C18.1902 7.62727 18.6457 7.46603 19.0485 7.39021C19.5269 7.30014 20.634 7.33322 21.0696 7.45065C21.8098 7.65015 22.455 8.1069 22.701 8.60538C22.804 8.81396 22.8166 8.88468 22.8166 9.25351C22.8166 9.64646 22.8093 9.68078 22.674 9.92916C22.498 10.2523 22.2402 10.4855 21.8599 10.6655C21.319 10.9216 20.7711 11.0131 19.7812 11.0127C18.5445 11.0122 17.666 10.7733 17.182 10.3059C16.9006 10.0341 16.8685 9.93894 16.8685 9.37769C16.8685 8.93517 16.8796 8.85827 16.97 8.6739C17.1055 8.39742 17.513 7.99825 17.846 7.81587ZM21.9664 8.97028C21.8605 8.69309 21.3683 8.3784 20.826 8.2412C19.8419 7.99216 18.5828 8.20257 17.9801 8.7168C17.5463 9.08683 17.5877 9.45769 18.097 9.7619C19.1854 10.4123 21.5889 10.2804 21.9365 9.55133C22.0129 9.39096 22.0265 9.12754 21.9664 8.97028ZM9.08612 12.5006C9.00387 12.2223 8.72633 11.9391 8.42379 11.8249C8.26983 11.7668 8.08333 11.7437 7.69675 11.7351C7.13133 11.7224 7.11337 11.7243 6.66208 11.8446C6.27954 11.9466 6.04983 12.0792 5.71387 12.392C5.39279 12.6909 5.21408 12.9287 5.0175 13.3185L4.97462 13.4035C4.90633 13.539 4.89783 13.6967 4.95121 13.8386C5.08871 14.2044 5.37492 14.4048 5.88679 14.4935C7.02025 14.6899 8.84679 13.8859 9.08566 13.0853C9.16837 12.808 9.16842 12.779 9.08612 12.5006ZM13.9186 14.4699C14.314 13.6607 15.4428 13.0998 16.9932 12.9422C17.3265 12.9083 18.4586 12.9567 18.8235 13.0204C19.9704 13.2206 20.9 13.6675 21.5517 14.3317C21.8787 14.665 22.1723 15.1913 22.2567 15.5952C22.3234 15.9148 22.2865 16.4406 22.1774 16.7237C22.1297 16.8476 22.0971 16.9553 22.1049 16.9631C22.1127 16.9709 22.4071 17.0146 22.759 17.0603C23.5747 17.1661 23.9707 17.2775 24.1079 17.4397C24.2416 17.5979 24.2368 17.6995 24.0885 17.8471C23.9722 17.9629 23.9505 17.9682 23.595 17.9682C23.3904 17.9682 23.13 17.9506 23.0163 17.9291C22.7771 17.8839 21.4511 17.7429 20.6328 17.6756C19.7555 17.6034 16.3136 17.5776 15.2047 17.6349C14.1648 17.6887 13.9127 17.666 13.7385 17.503C13.6138 17.3864 13.6143 17.1831 13.7396 17.0659C13.8648 16.949 14.1535 16.8504 14.3711 16.8504C14.4673 16.8504 14.5583 16.8382 14.5732 16.8233C14.5882 16.8085 14.5253 16.7152 14.4336 16.6162C13.8012 15.9333 13.6044 15.113 13.9186 14.4699ZM20.865 14.8424C20.3603 14.3467 19.6294 14.0002 18.761 13.8454C18.4087 13.7826 17.351 13.7372 17.0349 13.7714C16.4142 13.8385 15.7943 14.0012 15.3919 14.2026C14.4298 14.6842 14.3325 15.3105 15.0948 16.1148C15.2456 16.2739 15.4841 16.4858 15.6249 16.5858C15.7913 16.704 15.9907 16.7675 16.1952 16.7675H17.4631C18.7438 16.7675 20.2322 16.8069 21.0672 16.8628C21.1777 16.8703 21.202 16.8468 21.3168 16.6227C21.429 16.4034 21.444 16.3331 21.444 16.0223C21.444 15.5402 21.3218 15.2913 20.865 14.8424ZM22.4422 2.73062C21.7833 2.24186 21.1121 1.80521 20.8017 1.6633C20.5172 1.53322 19.992 1.50238 19.6262 1.5942C19.0968 1.72722 18.5479 2.08731 18.3824 2.41027C18.3358 2.50111 18.3037 2.57947 18.311 2.58444C18.3183 2.58937 18.5302 2.71129 18.7819 2.8554C22.346 4.89604 25.2736 8.72107 26.4514 12.876C26.9195 14.527 27.0854 15.9904 26.9936 17.6582C26.9418 18.5997 26.9423 18.6145 27.034 18.9208C27.0851 19.0913 27.1912 19.3253 27.2699 19.4409C27.3485 19.5563 27.4128 19.6819 27.4128 19.7197C27.4128 19.7576 27.4831 19.8341 27.5688 19.8897C27.9867 20.1606 28.7629 20.2024 29.2222 19.9787C29.8372 19.6792 30.2501 18.8394 30.1667 18.5285C30.1125 18.326 29.9495 18.1435 29.8424 18.0408C29.779 17.9801 29.7125 17.9224 29.641 17.8713C29.0865 17.4744 28.2506 17.596 27.8878 18.1544C27.5934 18.6077 27.4266 18.6894 27.2184 18.4822C27.1233 18.3875 27.1137 18.352 27.1349 18.1737C27.1924 17.6902 27.5732 17.1953 28.0669 16.9625C28.3335 16.8368 28.3747 16.8296 28.8294 16.8296C29.3008 16.8296 29.316 16.8326 29.625 16.9847C29.8082 17.0748 30.0032 17.2092 30.0907 17.3057C30.1736 17.3969 30.2413 17.4482 30.2413 17.4197C30.2413 17.3911 30.2046 17.048 30.1597 16.6571C29.8657 14.0973 29.2162 11.8264 28.1605 9.66748C26.8166 6.91933 24.8134 4.4892 22.4422 2.73062Z" fill="black"/>
</g>
<defs>
<clipPath id="clip0_1323_6">
<rect width="32" height="24" fill="white"/>
</clipPath>
</defs>
</svg>
