<svg xmlns="http://www.w3.org/2000/svg" width="627" height="89" fill="none">
  <path
    fill="#F4F5F7"
    d="M11.93 77H24.8c.81 0 1.44-.63 1.44-1.44V61.52l6.21-7.74 15.21 22.41c.45.63.9.81 1.62.81h15.03c1.08 0 1.44-.72.81-1.62L41.99 41.54 62.6 15.62c.54-.72.45-1.62-.72-1.62H46.22c-.63 0-1.17.18-1.62.72L26.24 40.19V15.44c0-.81-.63-1.44-1.44-1.44H11.93c-.81 0-1.35.63-1.35 1.44v60.12c0 .81.54 1.44 1.35 1.44Z"
  />
  <path
    fill="#F4F5F7"
    d="M88.951 78.08c6.3 0 11.97-1.71 15.66-5.49.9-.81.81-1.53.45-2.07l-4.14-5.76c-.45-.72-.9-.9-1.62-.54-3.69 1.98-6.57 2.07-9.09 2.07-5.49 0-9.36-1.53-10.98-5.58h23.85c4.41 0 5.58-2.97 5.58-7.74 0-11.34-7.83-21.15-21.33-21.15-13.77 0-22.86 9.99-22.86 22.95 0 13.59 9.99 23.31 24.48 23.31Zm-9.99-27.72c1.17-4.5 4.59-6.21 8.46-6.21 3.69 0 6.93 1.53 7.83 6.21h-16.29ZM117.204 77h12.24c.81 0 1.44-.63 1.44-1.44V53.87c0-5.49 2.43-8.19 6.75-8.19 4.41 0 6.66 2.7 6.66 8.19v21.69c0 .81.63 1.44 1.44 1.44h12.15c.81 0 1.53-.63 1.53-1.44V50.09c0-11.43-6.84-18.27-15.93-18.27-6.21 0-10.08 3.06-12.6 7.56l-.45-4.95c0-1.17-.63-1.53-1.35-1.53h-11.88c-.81 0-1.44.63-1.44 1.44v41.22c0 .81.63 1.44 1.44 1.44ZM185.684 78.17c13.68 0 23.85-8.64 23.85-26.73v-36c0-.81-.63-1.44-1.44-1.44h-12.87c-.81 0-1.35.63-1.35 1.44v36.81c0 7.83-3.69 10.53-8.82 10.53-4.5 0-6.93-2.16-8.37-3.15-.63-.54-1.53-.45-1.98.09l-6.75 8.91c-.45.63-.45 1.71.09 2.34 3.06 3.69 9 7.2 17.64 7.2ZM240.886 78.08c13.41 0 23.22-10.17 23.22-23.13 0-12.96-9.81-23.13-23.22-23.13-13.5 0-23.31 10.17-23.31 23.13 0 12.96 9.81 23.13 23.31 23.13Zm-8.82-23.13c0-5.85 3.96-9.27 8.82-9.27 4.77 0 8.73 3.42 8.73 9.27s-3.96 9.27-8.73 9.27c-4.86 0-8.82-3.42-8.82-9.27ZM272.682 77h12.24c.81 0 1.44-.63 1.44-1.44V53.87c0-5.49 2.43-8.19 6.75-8.19 4.41 0 6.66 2.7 6.66 8.19v21.69c0 .81.63 1.44 1.44 1.44h12.15c.81 0 1.53-.63 1.53-1.44V50.09c0-11.43-6.84-18.27-15.93-18.27-6.21 0-10.08 3.06-12.6 7.56l-.45-4.95c0-1.17-.63-1.53-1.35-1.53h-11.88c-.81 0-1.44.63-1.44 1.44v41.22c0 .81.63 1.44 1.44 1.44ZM346.383 78.08c6.3 0 11.97-1.71 15.66-5.49.9-.81.81-1.53.45-2.07l-4.14-5.76c-.45-.72-.9-.9-1.62-.54-3.69 1.98-6.57 2.07-9.09 2.07-5.49 0-9.36-1.53-10.98-5.58h23.85c4.41 0 5.58-2.97 5.58-7.74 0-11.34-7.83-21.15-21.33-21.15-13.77 0-22.86 9.99-22.86 22.95 0 13.59 9.99 23.31 24.48 23.31Zm-9.99-27.72c1.17-4.5 4.59-6.21 8.46-6.21 3.69 0 6.93 1.53 7.83 6.21h-16.29ZM388.247 78.08c9.18 0 17.1-4.68 17.28-13.95.09-6.66-4.23-10.71-9.72-12.87l-7.02-2.79c-1.53-.54-2.79-1.53-2.79-2.7 0-.9.36-2.25 2.79-2.25 2.25 0 4.59 1.17 7.47 3.33.81.54 1.53.63 2.07 0l5.13-6.12c.45-.45.63-1.17.09-1.8-3.96-4.68-9.54-7.11-15.57-7.11-8.64 0-16.29 5.04-16.29 13.95 0 6.03 3.69 10.08 9.54 12.33l5.76 2.25c2.7 1.17 3.51 1.8 3.51 3.06 0 1.62-1.26 2.16-3.24 2.16-2.79 0-5.76-1.26-9.81-3.96-.72-.45-1.53-.72-2.34.54l-3.96 5.58c-.72.99-.81 2.16-.36 2.7 3.96 4.68 9.99 7.65 17.46 7.65ZM415.26 77h12.87c.81 0 1.44-.63 1.44-1.44v-19.8h5.49c15.48 0 22.77-8.46 22.77-20.88 0-12.42-7.29-20.88-22.77-20.88h-19.8c-.81 0-1.35.63-1.35 1.44v60.12c0 .81.54 1.44 1.35 1.44Zm14.31-35.1V27.86h5.13c4.14 0 8.19 1.08 8.19 7.02 0 5.94-4.05 7.02-8.19 7.02h-5.13ZM473.133 26.69c4.68 0 8.19-3.6 8.19-8.19 0-4.5-3.51-8.1-8.19-8.1-4.77 0-8.19 3.6-8.19 8.1 0 4.59 3.42 8.19 8.19 8.19Zm-7.65 48.87c0 .81.63 1.44 1.44 1.44h12.42c.81 0 1.44-.63 1.44-1.44V34.34c0-.81-.63-1.44-1.44-1.44h-12.42c-.81 0-1.44.63-1.44 1.44v41.22ZM489.816 77h33.3c.81 0 1.44-.63 1.44-1.44V66.2c0-.81-.63-1.35-1.44-1.35h-17.91l18.63-19.08c.45-.45.63-1.08.63-1.71v-9.72c0-.81-.54-1.44-1.35-1.44h-33.03c-.81 0-1.35.63-1.35 1.44v9.36c0 .81.54 1.35 1.35 1.35h17.55l-18.54 19.08c-.54.45-.63 1.08-.63 1.71v9.72c0 .81.54 1.44 1.35 1.44ZM531.652 77h33.3c.81 0 1.44-.63 1.44-1.44V66.2c0-.81-.63-1.35-1.44-1.35h-17.91l18.63-19.08c.45-.45.63-1.08.63-1.71v-9.72c0-.81-.54-1.44-1.35-1.44h-33.03c-.81 0-1.35.63-1.35 1.44v9.36c0 .81.54 1.35 1.35 1.35h17.55l-18.54 19.08c-.54.45-.63 1.08-.63 1.71v9.72c0 .81.54 1.44 1.35 1.44ZM589.483 78.08c6.03 0 10.26-2.34 13.23-6.21l.18 3.69c0 .81.63 1.44 1.44 1.44h11.07c.81 0 1.53-.63 1.53-1.44V34.34c0-.81-.63-1.44-1.44-1.44h-11.16c-.81 0-1.44.63-1.44 1.44l-.18 3.6c-2.79-3.87-7.02-6.12-13.23-6.12-12.15 0-20.52 10.17-20.52 23.13 0 13.05 8.37 23.13 20.52 23.13Zm-5.76-23.13c0-5.67 3.96-9.45 9.18-9.45 5.31 0 9 3.69 9 9.36 0 5.76-3.69 9.54-9 9.54-5.22 0-9.18-3.69-9.18-9.45Z"
  />
  <path
    fill="#161E2E"
    fill-rule="evenodd"
    d="M49.28 77c-.72 0-1.17-.18-1.62-.81L32.45 53.78l-6.21 7.74v14.04c0 .81-.63 1.44-1.44 1.44H11.93c-.81 0-1.35-.63-1.35-1.44V15.44c0-.81.54-1.44 1.35-1.44H24.8c.81 0 1.44.63 1.44 1.44v24.75L44.6 14.72c.45-.54.99-.72 1.62-.72h15.66c1.17 0 1.26.9.72 1.62L41.99 41.54l23.13 33.84c.63.9.27 1.62-.81 1.62H49.28Zm22.67 7.14C69.315 86.544 66.02 87 64.31 87H49.28c-1.14 0-3.098-.13-5.226-1.147-2.205-1.055-3.636-2.598-4.531-3.85l-.137-.197-3.24-4.773A11.42 11.42 0 0 1 24.8 87H11.93C4.76 87 .58 81.017.58 75.56V15.44C.58 9.983 4.76 4 11.93 4H24.8c4.624 0 8.595 2.723 10.4 6.658l1.288-1.786c.137-.19.28-.374.43-.554C39.656 5.032 43.288 4 46.22 4h15.66c3.104 0 8.607 1.523 10.521 7.48 1.482 4.61-.496 8.4-1.801 10.14-.057.075-.114.15-.173.224L54.41 41.989l1.606 2.349C60.047 31.255 71.676 21.82 87.33 21.82c7.778 0 14.659 2.409 20.014 6.702a11.417 11.417 0 0 1 9.859-5.622h11.88c1.143 0 2.777.173 4.498.894 3.031-1.32 6.359-1.974 9.902-1.974 7.167 0 13.91 2.759 18.781 8.131 4.819 5.314 7.149 12.434 7.149 20.139v1.063c4.065-2.73 9.429-2.404 13.203.423.172.122.332.238.446.32l.063.046c.204.147.344.247.478.339.105.07.193.128.269.175l.001-.206V15.44c0-5.457 4.18-11.44 11.35-11.44h12.87c6.333 0 11.44 5.107 11.44 11.44v13.806c5.69-4.651 13.065-7.426 21.352-7.426 8.347 0 15.769 2.839 21.469 7.582a11.42 11.42 0 0 1 10.327-6.502h11.88c1.144 0 2.777.173 4.498.894 3.031-1.32 6.36-1.974 9.902-1.974 7.168 0 13.91 2.759 18.782 8.131.781.861 1.496 1.77 2.147 2.72 5.8-6.663 14.442-10.851 24.872-10.851 8.999 0 16.798 3.225 22.42 8.861a23.515 23.515 0 0 1 3.194-3.062c5.065-4.017 11.445-5.799 17.6-5.799 5.652 0 11.147 1.484 15.933 4.405V15.44c0-5.457 4.18-11.44 11.35-11.44h19.8c8.302 0 15.839 1.999 21.709 6.492C459.668 4.527 465.757.4 473.133.4c10.203 0 18.19 8.077 18.19 18.1 0 1.517-.181 2.99-.523 4.4h32.316c1.626 0 3.098.308 4.403.847 1.304-.54 2.777-.847 4.403-.847h33.03c3.558 0 6.379 1.473 8.32 3.625 4.497-2.957 9.951-4.705 16.211-4.705 3.85 0 7.409.635 10.605 1.89a11.45 11.45 0 0 1 4.245-.81h11.16c6.333 0 11.44 5.107 11.44 11.44v41.22c0 7.102-5.998 11.44-11.53 11.44h-11.07a11.45 11.45 0 0 1-4.353-.853c-3.136 1.26-6.644 1.933-10.497 1.933-6.25 0-11.698-1.733-16.194-4.675A11.407 11.407 0 0 1 564.952 87h-33.3c-1.584 0-3.021-.292-4.3-.805a11.46 11.46 0 0 1-4.236.805h-33.3c-1.993 0-3.756-.462-5.261-1.248A11.422 11.422 0 0 1 479.343 87h-12.42a11.421 11.421 0 0 1-11.44-11.44V60.194c-4.541 3.08-9.969 4.798-15.913 5.359V75.56c0 6.333-5.107 11.44-11.44 11.44h-12.87c-3.987 0-7.049-1.85-8.982-4.43l-.072.052c-5.286 3.909-11.812 5.458-17.959 5.458-7.989 0-15.134-2.517-20.715-6.946-6.076 5.187-13.981 6.946-21.149 6.946-8.556 0-16.447-2.606-22.59-7.575-1.984 4.117-6.335 6.495-10.431 6.495h-12.15a11.406 11.406 0 0 1-8.145-3.396A11.402 11.402 0 0 1 284.922 87h-12.24a11.42 11.42 0 0 1-10.327-6.502c-5.7 4.743-13.122 7.582-21.469 7.582-11.662 0-21.515-5.495-27.412-13.978a30.765 30.765 0 0 1-3.528 4.419c-6.516 6.774-15.301 9.649-24.262 9.649-7.574 0-14.01-2.063-18.968-5.238-2.261 2.61-5.625 4.068-8.832 4.068h-12.15a11.404 11.404 0 0 1-8.145-3.396A11.404 11.404 0 0 1 129.444 87h-12.24a11.412 11.412 0 0 1-9.016-4.385c-5.767 4.047-12.799 5.465-19.237 5.465-6.143 0-11.943-1.343-17-3.94Zm43.814-8.58c0 .81.63 1.44 1.44 1.44h12.24c.81 0 1.44-.63 1.44-1.44V53.87c0-1.808.263-3.313.771-4.519 1.034-2.456 3.081-3.671 5.979-3.671.339 0 .664.016.978.048 3.764.383 5.682 3.074 5.682 8.142v21.69c0 .81.63 1.44 1.44 1.44h12.15c.669 0 1.277-.43 1.468-1.037.04-.127.062-.262.062-.403V50.09c0-11.43-6.84-18.27-15.93-18.27-1.168 0-2.253.108-3.262.314-1.696.346-3.178.967-4.475 1.813-.236.154-.465.315-.689.483a13.58 13.58 0 0 0-1.957 1.805 17.498 17.498 0 0 0-2.217 3.145l-.45-4.95c0-1.17-.63-1.53-1.35-1.53h-11.88c-.81 0-1.44.63-1.44 1.44v41.22Zm-7.748-17.93c.47-1.238.645-2.815.645-4.66 0-4.05-.998-7.904-2.897-11.186-3.418-5.91-9.754-9.964-18.433-9.964-13.77 0-22.86 9.99-22.86 22.95 0 .695.026 1.379.078 2.053.44 5.777 2.748 10.753 6.459 14.435l.058.058a22.023 22.023 0 0 0 4.248 3.261c3.792 2.245 8.423 3.503 13.637 3.503 6.3 0 11.97-1.71 15.66-5.49.858-.772.816-1.463.499-1.993a2.173 2.173 0 0 0-.049-.077l-4.14-5.76c-.45-.72-.9-.9-1.62-.54-3.69 1.98-6.57 2.07-9.09 2.07-5.49 0-9.36-1.53-10.98-5.58h23.85c1.078 0 1.962-.177 2.683-.515 1.088-.51 1.804-1.384 2.252-2.565Zm32.931-4.618a.42.42 0 0 1 0 0Zm28.467 19.41c3.314 3.108 8.777 5.748 16.27 5.748 10.781 0 19.382-5.366 22.543-16.495.582-2.046.979-4.287 1.172-6.725.089-1.128.135-2.298.135-3.51v-36c0-.81-.63-1.44-1.44-1.44h-12.87c-.81 0-1.35.63-1.35 1.44v36.81c0 7.83-3.69 10.53-8.82 10.53-4.002 0-6.367-1.709-7.854-2.783a28.718 28.718 0 0 0-.516-.367c-.63-.54-1.53-.45-1.98.09l-6.75 8.91c-.45.63-.45 1.71.09 2.34.406.49.863.976 1.37 1.452Zm49.099-10.72c2.755 9.572 11.329 16.378 22.373 16.378 9.077 0 16.504-4.659 20.356-11.689 1.84-3.356 2.864-7.253 2.864-11.441 0-4.188-1.024-8.085-2.864-11.442-3.852-7.03-11.279-11.688-20.356-11.688-9.917 0-17.844 5.489-21.352 13.54a23.463 23.463 0 0 0-1.712 6.08 24.99 24.99 0 0 0-.246 3.51c0 2.358.325 4.623.937 6.751Zm52.729 13.858c0 .81.63 1.44 1.44 1.44h12.24c.81 0 1.44-.63 1.44-1.44V53.87c0-1.808.264-3.313.772-4.519 1.034-2.456 3.081-3.671 5.978-3.671.339 0 .665.016.978.048 3.765.383 5.682 3.074 5.682 8.142v21.69c0 .81.63 1.44 1.44 1.44h12.15c.81 0 1.53-.63 1.53-1.44V50.09c0-2.603-.354-4.968-1.01-7.069-2.222-7.122-7.9-11.201-14.92-11.201-1.167 0-2.252.108-3.261.314-1.697.346-3.178.967-4.475 1.813-.236.154-.466.315-.69.483a13.685 13.685 0 0 0-1.957 1.805 17.549 17.549 0 0 0-2.217 3.145l-.45-4.95c0-1.17-.63-1.53-1.35-1.53h-11.88c-.81 0-1.44.63-1.44 1.44v41.22Zm25.184-22.548Zm28.466 13.604c3.996 7.045 11.72 11.464 21.491 11.464 5.82 0 11.102-1.46 14.782-4.662.304-.264.597-.54.878-.828.858-.772.816-1.463.498-1.993-.015-.026-.032-.052-.048-.077l-4.14-5.76c-.45-.72-.9-.9-1.62-.54-3.69 1.98-6.57 2.07-9.09 2.07-5.49 0-9.36-1.53-10.98-5.58h23.85c2.524 0 3.987-.974 4.776-2.7.056-.123.109-.25.158-.38.47-1.238.646-2.815.646-4.66 0-2.504-.382-4.934-1.123-7.2a20.661 20.661 0 0 0-2.681-5.412c-3.575-5.126-9.564-8.538-17.526-8.538-9.535 0-16.825 4.79-20.408 12.038a23.469 23.469 0 0 0-2.04 6.232 26.309 26.309 0 0 0-.412 4.68c0 4.426 1.059 8.442 2.989 11.846Zm46.255 1.114c-.72.99-.81 2.16-.36 2.7a20.883 20.883 0 0 0 1.908 1.976c3.883 3.524 9.196 5.674 15.552 5.674 6.776 0 12.866-2.55 15.663-7.615.992-1.796 1.57-3.908 1.617-6.335.034-2.52-.564-4.667-1.617-6.478a12.057 12.057 0 0 0-1.196-1.699c-1.752-2.087-4.186-3.622-6.907-4.693l-7.02-2.79c-1.53-.54-2.79-1.53-2.79-2.7 0-.9.36-2.25 2.79-2.25a7.094 7.094 0 0 1 1.865.256c1.273.34 2.61 1.015 4.083 1.994a30.806 30.806 0 0 1 1.522 1.08c.396.264.77.42 1.113.438h.015c.352.014.67-.12.942-.438l5.13-6.12c.45-.45.63-1.17.09-1.8-3.96-4.68-9.54-7.11-15.57-7.11-6.313 0-12.098 2.69-14.756 7.616-.98 1.816-1.534 3.934-1.534 6.334 0 2.255.516 4.233 1.468 5.944.243.436.514.855.812 1.256.586.79 1.276 1.512 2.061 2.17 1.129.945 2.452 1.755 3.942 2.433l.129.059c.366.164.742.32 1.128.468l5.76 2.25.27.118c2.484 1.096 3.24 1.725 3.24 2.942 0 1.62-1.26 2.16-3.24 2.16a10.023 10.023 0 0 1-2.403-.3c-1.336-.324-2.761-.915-4.357-1.79a33.669 33.669 0 0 1-1.097-.63l-.023-.014a46.86 46.86 0 0 1-1.93-1.226c-.72-.45-1.53-.72-2.34.54l-3.96 5.58Zm42.763 7.83c0 .81.54 1.44 1.35 1.44h12.87c.81 0 1.44-.63 1.44-1.44v-19.8h5.49c10.442 0 17.158-3.85 20.423-10.168 1.575-3.048 2.347-6.67 2.347-10.712 0-.18-.002-.36-.005-.54-.035-2.076-.279-4.037-.735-5.862C454.883 19.643 447.703 14 435.06 14h-19.8c-.81 0-1.35.63-1.35 1.44v60.12Zm51.573 0c0 .81.63 1.44 1.44 1.44h12.42c.81 0 1.44-.63 1.44-1.44V34.34c0-.81-.63-1.44-1.44-1.44h-12.42c-.81 0-1.44.63-1.44 1.44v41.22Zm23.613-11.43c-.54.45-.63 1.08-.63 1.71v9.72c0 .81.54 1.44 1.35 1.44h33.3c.81 0 1.44-.63 1.44-1.44V66.2c0-.127-.016-.247-.045-.36-.157-.606-.712-.99-1.395-.99h-17.91l18.63-19.08c.45-.45.63-1.08.63-1.71v-9.72c0-.81-.54-1.44-1.35-1.44h-33.03c-.81 0-1.35.63-1.35 1.44v9.36c0 .81.54 1.35 1.35 1.35h17.55l-18.54 19.08Zm-9.012-41.206c.79-1.269 1.239-2.783 1.239-4.424 0-4.5-3.51-8.1-8.19-8.1-4.77 0-8.19 3.6-8.19 8.1 0 1.641.437 3.156 1.217 4.425.226.368.481.715.763 1.039 1.462 1.681 3.64 2.726 6.21 2.726 2.539 0 4.733-1.06 6.21-2.762.272-.314.52-.65.741-1.005Zm50.848 41.206c-.54.45-.63 1.08-.63 1.71v9.72c0 .81.54 1.44 1.35 1.44h33.3c.412 0 .777-.163 1.036-.43.252-.257.404-.612.404-1.01V66.2c0-.81-.63-1.35-1.44-1.35h-17.91l18.63-19.08c.45-.45.63-1.08.63-1.71v-9.72a1.52 1.52 0 0 0-.321-.965 1.29 1.29 0 0 0-1.029-.475h-33.03c-.81 0-1.35.63-1.35 1.44v9.36c0 .127.013.247.039.36.137.606.628.99 1.311.99h17.55l-18.54 19.08Zm38.549-14.64a28.464 28.464 0 0 0-.511 6.099c.007.36.021.718.042 1.074.198 3.469.999 6.695 2.31 9.537 1.252 2.713 2.968 5.075 5.07 6.963 3.446 3.096 7.927 4.917 13.091 4.917 1.288 0 2.493-.107 3.622-.312 2.007-.366 3.772-1.044 5.323-1.99.117-.071.232-.144.346-.218 1.513-.982 2.816-2.227 3.939-3.69l.18 3.69c0 .81.63 1.44 1.44 1.44h11.07c.81 0 1.53-.63 1.53-1.44V34.34c0-.81-.63-1.44-1.44-1.44h-11.16c-.81 0-1.44.63-1.44 1.44l-.18 3.6c-1.033-1.433-2.263-2.643-3.718-3.6a13 13 0 0 0-.332-.212c-1.584-.976-3.424-1.663-5.553-2.021a21.86 21.86 0 0 0-3.627-.287c-5.209 0-9.723 1.87-13.181 5.027-2.143 1.956-3.879 4.406-5.125 7.213a25.394 25.394 0 0 0-1.696 5.43Zm-327.557 5.46a1.917 1.917 0 0 0-.827-.67.9.9 0 0 0-.217-.06c-.061.004-.48.057-.911.488a1.89 1.89 0 0 0-.205.242c.054.076.122.159.205.242.431.431.85.484.911.488l.006-.001a.9.9 0 0 0 .211-.059 1.917 1.917 0 0 0 .827-.67Zm197.646-13.9c-1.413.66-3.133.85-4.87.85h-5.13V27.86h5.13c1.737 0 3.457.19 4.87.85 1.955.911 3.32 2.722 3.32 6.17s-1.365 5.259-3.32 6.17Zm154.031 13.92a1.98 1.98 0 0 0-.174-.206 1.507 1.507 0 0 0-.524-.345l-.007-.003a1.113 1.113 0 0 0-.114.04 1.853 1.853 0 0 0-.596.404l-.032.032-.025.027.027.031a1.876 1.876 0 0 0 .747.526l.023.007a1.418 1.418 0 0 0 .525-.338c.06-.06.109-.12.15-.176ZM87.421 44.15c-3.87 0-7.29 1.71-8.46 6.21h16.29c-.9-4.68-4.14-6.21-7.83-6.21Zm153.465 1.53c-4.86 0-8.82 3.42-8.82 9.27s3.96 9.27 8.82 9.27c4.77 0 8.73-3.42 8.73-9.27s-3.96-9.27-8.73-9.27Zm103.967-1.53c-3.87 0-7.29 1.71-8.46 6.21h16.29c-.9-4.68-4.14-6.21-7.83-6.21Zm248.05 1.35c-5.22 0-9.18 3.78-9.18 9.45 0 5.76 3.96 9.45 9.18 9.45 5.31 0 9-3.78 9-9.54 0-5.67-3.69-9.36-9-9.36Z"
    clip-rule="evenodd"
  />
</svg>
