<svg width="393" height="158" viewBox="0 0 393 158" fill="none" xmlns="http://www.w3.org/2000/svg">
<path fill-rule="evenodd" clip-rule="evenodd" d="M101.846 29.9C103.838 29.901 105.803 30.2014 107.674 30.8C110.633 31.7471 113.354 33.4408 115.562 35.8763C117.628 38.1547 119.024 40.8291 119.83 43.6841V30.8C119.83 26.9729 122.051 22.8043 126.041 20.9646C127.365 20.3541 128.883 20 130.58 20H137.73C141.216 20 144.312 21.6446 146.286 24.2016C147.693 26.0254 148.53 28.3134 148.53 30.8V31.0634C148.815 30.9703 149.102 30.8825 149.393 30.8C151.455 30.2139 153.652 29.9 155.948 29.9H237.665C239.156 29.9 240.636 30.0493 242.083 30.3466C242.132 29.249 242.361 28.1321 242.758 27.0579C244.163 23.2625 247.672 20 252.822 20H263.822C267.593 20 271.328 20.6494 274.689 22.1868C277.289 19.6035 280.894 18 284.974 18C292.409 18 298.424 23.4275 299.389 30.5H364.063C370.036 30.5 374.863 35.3273 374.863 41.3V64.2C374.863 70.9416 369.184 75 364.013 75H281.524C275.797 75 271.123 70.5616 270.748 64.9305C270.373 70.5616 265.7 75 259.972 75H252.822C250.712 75 248.876 74.4521 247.349 73.5441C244.23 75.0275 240.879 75.6 237.815 75.6H155.948C150.033 75.6 144.772 73.5163 140.784 70.0607C136.323 74.0391 130.711 75.65 125.28 75.65C121.531 75.65 118.122 74.8849 115.184 73.5693C113.515 74.5035 111.644 75 109.836 75H71.5395C68.9789 75 66.6432 74.0376 64.8741 72.4549C62.3623 74.6115 59.3372 75 57.85 75H49.5C48.5209 75 46.6925 74.8905 44.6792 73.9276C43.8938 73.5519 43.2154 73.1123 42.6324 72.6507C40.7872 74.1216 38.4478 75 35.9 75H28.75C21.9404 75 18 69.2972 18 64.2V30.8C18 25.7028 21.9404 20 28.75 20H35.9C38.0694 20 40.0877 20.6368 41.7785 21.7341C43.789 20.453 45.9705 20 47.8 20H56.5C58.559 20 61.9371 20.7455 64.355 23.3634C65.2775 24.3621 66.0602 25.6335 66.5765 27.2399C66.9523 28.4089 67.0979 29.519 67.0868 30.5494C68.1908 30.1298 69.3883 29.9 70.6395 29.9H101.836C101.839 29.9 101.843 29.9 101.846 29.9Z" fill="#E93B47" class="fill-sauce"/>
<path fill-rule="evenodd" clip-rule="evenodd" d="M101.836 11.9H78.3333C71.546 3.9346 61.6792 2 56.5 2H47.8C45.9433 2 43.9254 2.18021 41.8297 2.61379C39.9109 2.21128 37.9263 2 35.9 2H28.75C10.0876 2 0 17.7877 0 30.8V64.2C0 77.2124 10.0877 93 28.75 93H35.9C38.2224 93 40.4868 92.7229 42.6588 92.1997C45.5809 92.8979 48.0133 93 49.5 93H109.836C111.648 93 113.442 92.8238 115.193 92.4873C118.427 93.2528 121.808 93.65 125.28 93.65C130.241 93.65 135.601 92.8236 140.831 90.7923C145.524 92.6171 150.627 93.6 155.948 93.6H237.815C240.778 93.6 244.028 93.2889 247.381 92.4963C249.145 92.8285 250.964 93 252.822 93H259.972C263.783 93 267.42 92.2615 270.748 90.9194C274.076 92.2615 277.713 93 281.524 93H364.013C377.274 93 392.863 82.6383 392.863 64.2V41.3C392.863 25.3866 379.977 12.5 364.063 12.5H310.662C304.716 4.87937 295.439 0 284.974 0C280.351 0 275.942 0.952089 271.945 2.68271C269.161 2.20121 266.428 2 263.822 2H252.822C243.291 2 235.991 6.13894 231.132 11.9H159.467C154.188 5.8331 146.41 2 137.73 2H130.58C120.722 2 113.256 6.4056 108.406 12.4804C106.232 12.0925 104.031 11.9 101.836 11.9ZM101.846 29.9C103.838 29.901 105.803 30.2014 107.674 30.8C110.633 31.7471 113.354 33.4408 115.562 35.8763C117.628 38.1547 119.024 40.8291 119.83 43.6841V30.8C119.83 26.9729 122.051 22.8043 126.041 20.9646C127.365 20.3541 128.883 20 130.58 20H137.73C141.216 20 144.312 21.6446 146.286 24.2016C147.693 26.0254 148.53 28.3134 148.53 30.8V31.0634C148.815 30.9703 149.102 30.8825 149.393 30.8C151.455 30.2139 153.652 29.9 155.948 29.9H237.665C239.156 29.9 240.636 30.0493 242.083 30.3466C242.132 29.249 242.361 28.1321 242.758 27.0579C244.163 23.2625 247.672 20 252.822 20H263.822C267.593 20 271.328 20.6494 274.689 22.1868C277.289 19.6035 280.894 18 284.974 18C292.409 18 298.424 23.4275 299.389 30.5H364.063C370.036 30.5 374.863 35.3273 374.863 41.3V64.2C374.863 70.9416 369.184 75 364.013 75H281.524C275.797 75 271.123 70.5616 270.748 64.9305C270.373 70.5616 265.7 75 259.972 75H252.822C250.712 75 248.876 74.4521 247.349 73.5441C244.23 75.0275 240.879 75.6 237.815 75.6H155.948C150.033 75.6 144.772 73.5163 140.784 70.0607C136.323 74.0391 130.711 75.65 125.28 75.65C121.531 75.65 118.122 74.8849 115.184 73.5693C113.515 74.5035 111.644 75 109.836 75H71.5395C68.9789 75 66.6432 74.0376 64.8741 72.4549C62.3623 74.6115 59.3372 75 57.85 75H49.5C48.5209 75 46.6925 74.8905 44.6792 73.9276C43.8938 73.5519 43.2154 73.1123 42.6324 72.6507C40.7872 74.1216 38.4478 75 35.9 75H28.75C21.9404 75 18 69.2972 18 64.2V30.8C18 25.7028 21.9404 20 28.75 20H35.9C38.0694 20 40.0877 20.6368 41.7785 21.7341C43.789 20.453 45.9705 20 47.8 20H56.5C58.559 20 61.9371 20.7455 64.355 23.3634C65.2775 24.3621 66.0602 25.6335 66.5765 27.2399C66.9523 28.4089 67.0979 29.519 67.0868 30.5494C68.1908 30.1298 69.3883 29.9 70.6395 29.9H101.836L101.846 29.9Z" fill="#E93B47" class="fill-sauce"/>
<path d="M222.433 147.839C225.64 147.108 228.951 145.387 231.255 143.991C234.403 146.381 236.93 147.734 239.456 148.495C240.865 148.919 242.132 149.115 243.229 149.258C243.515 149.295 243.781 149.328 244.035 149.36L244.143 149.373C244.876 149.464 245.522 149.543 246.302 149.68L246.734 149.756L247.172 149.755C248.029 149.754 249.437 149.745 251.02 149.5C252.719 149.237 254.074 148.793 254.934 148.498L254.941 148.495C259.045 147.085 262.24 144.934 265.102 141.86L265.105 141.856L265.11 141.85L265.114 141.847L265.117 141.843C267.601 139.169 269.596 135.954 270.712 132.105C271.592 129.069 271.542 126.108 271.491 123.07L271.485 122.692L271.476 122.153L271.476 122.151L271.469 121.734C271.395 116.992 271.315 115.121 270.781 111.774C269.191 101.828 266.685 93.4393 262.583 84.4305C257.602 73.4907 251.298 64.3132 242.96 55.9748C237.832 50.8456 233.91 47.6132 228.104 43.796C227.69 43.5228 227.279 43.2452 226.871 42.9632L226.533 42.7294C225.548 42.0466 223.296 40.4848 220.237 39.6069C217.347 38.7777 214.489 38.7839 212.861 38.7875L212.717 38.7878L212.639 38.7879H211.689C208.273 38.7882 204.594 39.7627 201.723 41.1021L201.721 41.1029C198.763 42.4844 195.751 44.4552 193.244 47.1852L193.242 47.1869L193.241 47.1877C192.081 48.4524 190.776 50.1151 189.724 52.2955L189.681 52.3861C188.346 52.6182 186.868 52.9568 185.599 53.3864C178.625 55.7479 171.565 60.7584 166.346 66.1568C163.885 68.7015 162.146 70.8656 160.399 73.7722C159.795 74.2962 158.84 75.0986 157.182 76.4893L157.175 76.4945C155.125 78.2197 152.774 80.2213 150.741 81.9841L150.734 81.9901L150.569 82.1317L150.559 82.1409C149.977 82.6472 149.577 82.9938 149.289 83.2414C145.66 84.7805 142.634 87.0791 140.159 89.6913L139.782 90.0885L135.903 95.3305L135.593 95.9105C135.442 96.1934 135.279 96.5072 135.12 96.8226C134.891 97.0828 134.486 97.5311 133.776 98.2968C131.199 101.078 128.888 103.683 127.068 105.863C125.635 107.58 123.471 110.226 122.247 112.61L121.902 113.282L120.379 121.915L120.379 122.443C120.378 123.319 120.377 124.804 120.56 126.214C120.773 127.848 121.265 129.277 121.549 130.035L121.608 130.192L122.551 132.275L122.734 132.566C124.835 135.899 127.931 139.998 134.061 142.145C138.447 143.681 143.67 143.953 149.944 143.438C154.892 147.337 157.861 148.657 163.689 148.675C165.484 152.083 171.689 158.068 179.055 157.82C179.055 157.82 183.445 157.835 186.348 156.785C190.173 155.401 192.433 152.91 193.199 152.065L193.227 152.035C196.133 148.832 197.525 145.267 198.191 142.121C198.997 142.121 199.754 142.124 200.425 142.132C202.071 143.438 204.392 145.228 207.261 146.471C210.62 147.928 213.634 148.194 215.79 148.293L216.076 148.306L222.04 147.928L222.433 147.839Z" fill="#FDA8F3" class="fill-gum"/>
<path fill-rule="evenodd" clip-rule="evenodd" d="M106.832 30.5523C107.114 30.6283 107.395 30.7108 107.674 30.8C110.633 31.7471 113.354 33.4408 115.562 35.8763C117.628 38.1547 119.024 40.8291 119.83 43.6841V30.8C119.83 28.522 120.617 26.123 122.096 24.1662C123.925 21.7445 126.814 20 130.58 20H137.73C141.216 20 144.312 21.6446 146.286 24.2016C147.693 26.0254 148.53 28.3134 148.53 30.8V31.0634C148.815 30.9703 149.102 30.8825 149.393 30.8C151.455 30.2139 153.652 29.9 155.948 29.9H237.665C239.156 29.9 240.636 30.0493 242.083 30.3466C242.132 29.249 242.361 28.1321 242.758 27.0579C244.163 23.2625 247.672 20 252.822 20H263.822C267.593 20 271.328 20.6494 274.689 22.1868C277.289 19.6035 280.894 18 284.974 18C292.409 18 298.424 23.4275 299.389 30.5H364.063C370.036 30.5 374.863 35.3273 374.863 41.3V64.2C374.863 70.9416 369.184 75 364.013 75H281.524C281.412 75 281.301 74.9983 281.191 74.995C275.616 74.8267 271.115 70.452 270.748 64.9305C270.381 70.452 265.88 74.8267 260.306 74.995C260.195 74.9983 260.084 75 259.972 75H252.822C250.712 75 248.876 74.4521 247.349 73.5441C244.23 75.0275 240.879 75.6 237.815 75.6H155.948C150.033 75.6 144.772 73.5163 140.784 70.0607C136.323 74.0391 130.711 75.65 125.28 75.65C121.531 75.65 118.122 74.8849 115.184 73.5693C113.515 74.5035 111.644 75 109.836 75H71.5395C68.9789 75 66.6432 74.0376 64.8741 72.4549C62.3623 74.6115 59.3372 75 57.85 75H49.5C48.5209 75 46.6925 74.8905 44.6792 73.9276C43.8938 73.5519 43.2154 73.1123 42.6324 72.6507C40.7872 74.1216 38.4478 75 35.9 75H28.75C21.9404 75 18 69.2972 18 64.2V30.8C18 25.7028 21.9404 20 28.75 20H35.9C38.0694 20 40.0877 20.6368 41.7785 21.7341C43.789 20.453 45.9705 20 47.8 20H56.5C58.559 20 61.9371 20.7455 64.355 23.3634C65.2775 24.3621 66.0602 25.6335 66.5765 27.2399C66.9523 28.4089 67.0979 29.519 67.0868 30.5494C68.1908 30.1298 69.3883 29.9 70.6395 29.9H101.836C103.534 29.9 105.214 30.1177 106.832 30.5523Z" fill="#0F1218" class="fill-dark"/>
<path fill-rule="evenodd" clip-rule="evenodd" d="M130.58 7C121.186 7 114.403 11.8516 110.548 18.0933C107.705 17.2954 104.769 16.9 101.836 16.9H75.8557C70.3187 8.90011 61.1935 7 56.5 7H47.8C45.9558 7 43.9234 7.21432 41.821 7.74433C39.923 7.25807 37.9376 7 35.9 7H28.75C13.38 7 5 19.9863 5 30.8V64.2C5 75.0138 13.3801 88 28.75 88H35.9C38.2404 88 40.5084 87.66 42.6532 87.0264C45.5863 87.8855 48.0616 88 49.5 88H109.836C111.682 88 113.512 87.777 115.285 87.3544C118.452 88.2033 121.806 88.65 125.28 88.65C130.29 88.65 135.689 87.7063 140.83 85.3691C145.432 87.4576 150.554 88.6 155.948 88.6H237.815C240.752 88.6 243.981 88.2541 247.278 87.3655C249.054 87.7821 250.91 88 252.822 88H259.972C263.852 88 267.514 87.074 270.748 85.4304C273.983 87.074 277.644 88 281.524 88H364.013C375.027 88 387.863 79.3893 387.863 64.2V41.3C387.863 28.1479 377.216 17.5 364.063 17.5H308.093C303.192 9.96209 294.694 5 284.974 5C280.52 5 276.311 6.03858 272.587 7.89764C269.609 7.2627 266.651 7 263.822 7H252.822C244.042 7 237.538 11.2568 233.578 16.9H157.056C152.737 10.9022 145.692 7 137.73 7H130.58ZM106.832 30.5523C107.114 30.6283 107.395 30.7108 107.674 30.8C110.633 31.7471 113.354 33.4408 115.562 35.8763C117.628 38.1547 119.024 40.8291 119.83 43.6841V30.8C119.83 28.522 120.617 26.123 122.096 24.1662C123.925 21.7445 126.814 20 130.58 20H137.73C141.216 20 144.312 21.6446 146.286 24.2016C147.693 26.0254 148.53 28.3134 148.53 30.8V31.0634C148.815 30.9703 149.102 30.8825 149.393 30.8C151.455 30.2139 153.652 29.9 155.948 29.9H237.665C239.156 29.9 240.636 30.0493 242.083 30.3466C242.132 29.249 242.361 28.1321 242.758 27.0579C244.163 23.2625 247.672 20 252.822 20H263.822C267.593 20 271.328 20.6494 274.689 22.1868C277.289 19.6035 280.894 18 284.974 18C292.409 18 298.424 23.4275 299.389 30.5H364.063C370.036 30.5 374.863 35.3273 374.863 41.3V64.2C374.863 70.9416 369.184 75 364.013 75H281.524C281.412 75 281.301 74.9983 281.191 74.995C275.616 74.8267 271.115 70.452 270.748 64.9305C270.381 70.452 265.88 74.8267 260.306 74.995C260.195 74.9983 260.084 75 259.972 75H252.822C250.712 75 248.876 74.4521 247.349 73.5441C244.23 75.0275 240.879 75.6 237.815 75.6H155.948C150.033 75.6 144.772 73.5163 140.784 70.0607C136.323 74.0391 130.711 75.65 125.28 75.65C121.531 75.65 118.122 74.8849 115.184 73.5693C113.515 74.5035 111.644 75 109.836 75H71.5395C68.9789 75 66.6432 74.0376 64.8741 72.4549C62.3623 74.6115 59.3372 75 57.85 75H49.5C48.5209 75 46.6925 74.8905 44.6792 73.9276C43.8938 73.5519 43.2154 73.1123 42.6324 72.6507C40.7872 74.1216 38.4478 75 35.9 75H28.75C21.9404 75 18 69.2972 18 64.2V30.8C18 25.7028 21.9404 20 28.75 20H35.9C38.0694 20 40.0877 20.6368 41.7785 21.7341C43.789 20.453 45.9705 20 47.8 20H56.5C58.559 20 61.9371 20.7455 64.355 23.3634C65.2775 24.3621 66.0602 25.6335 66.5765 27.2399C66.9523 28.4089 67.0979 29.519 67.0868 30.5494C68.1908 30.1298 69.3883 29.9 70.6395 29.9H101.836C103.534 29.9 105.214 30.1177 106.832 30.5523Z" fill="#0F1218" class="fill-dark"/>
<path fill-rule="evenodd" clip-rule="evenodd" d="M110.83 32.1487C112.566 33.0941 114.166 34.337 115.562 35.8763C117.628 38.1547 119.024 40.8291 119.83 43.6841V30.8C119.83 29.8281 119.973 28.8342 120.252 27.862C121.437 23.7354 125.069 20 130.58 20H137.73C141.216 20 144.312 21.6446 146.286 24.2016C147.693 26.0254 148.53 28.3134 148.53 30.8V31.0634C148.815 30.9703 149.102 30.8825 149.393 30.8C151.455 30.2139 153.652 29.9 155.948 29.9H237.665C239.156 29.9 240.636 30.0493 242.083 30.3466C242.132 29.249 242.361 28.1321 242.758 27.0578C244.163 23.2625 247.672 20 252.822 20H263.822C267.593 20 271.328 20.6494 274.689 22.1868C277.289 19.6035 280.894 18 284.974 18C292.409 18 298.424 23.4275 299.389 30.5H364.063C370.036 30.5 374.863 35.3273 374.863 41.3V64.2C374.863 70.9416 369.184 75 364.013 75H281.524C279.962 75 278.479 74.6701 277.14 74.076C273.568 72.4911 271.021 69.0263 270.748 64.9305C270.476 69.0263 267.929 72.4911 264.356 74.076C263.017 74.6701 261.534 75 259.972 75H252.822C250.712 75 248.876 74.4521 247.349 73.5441C244.23 75.0275 240.879 75.6 237.815 75.6H155.948C150.033 75.6 144.772 73.5163 140.784 70.0607C136.323 74.0391 130.711 75.65 125.28 75.65C121.531 75.65 118.122 74.8849 115.184 73.5693C113.515 74.5035 111.644 75 109.836 75H71.5395C68.9789 75 66.6432 74.0376 64.8741 72.4549C62.3623 74.6115 59.3372 75 57.85 75H49.5C48.5209 75 46.6925 74.8905 44.6792 73.9276C43.8938 73.5519 43.2154 73.1123 42.6324 72.6507C40.7872 74.1216 38.4478 75 35.9 75H28.75C21.9404 75 18 69.2972 18 64.2V30.8C18 25.7028 21.9404 20 28.75 20H35.9C38.0694 20 40.0877 20.6368 41.7785 21.7341C43.789 20.453 45.9705 20 47.8 20H56.5C58.559 20 61.9371 20.7455 64.355 23.3634C65.2775 24.3621 66.0602 25.6335 66.5765 27.2399C66.9523 28.4089 67.0979 29.519 67.0868 30.5494C68.1908 30.1298 69.3883 29.9 70.6395 29.9H101.836C104.991 29.9 108.081 30.6511 110.83 32.1487Z" fill="#FFCA28" class="fill-cheese"/>
<path fill-rule="evenodd" clip-rule="evenodd" d="M130.58 11C121.45 11 115.261 16.5218 112.488 22.9843C109.097 21.5904 105.471 20.9 101.836 20.9H73.6165C69.2335 12.8726 60.7786 11 56.5 11H47.8C45.9668 11 43.9154 11.2535 41.8119 11.8985C39.9404 11.3142 37.953 11 35.9 11H28.75C16.014 11 9 21.7453 9 30.8V64.2C9 73.2548 16.014 84 28.75 84H35.9C38.2645 84 40.5386 83.5836 42.648 82.8198C45.5774 83.8718 48.1041 84 49.5 84H109.836C111.698 84 113.549 83.7249 115.325 83.2071C118.436 84.147 121.78 84.65 125.28 84.65C130.354 84.65 135.796 83.5792 140.825 80.9154C145.323 83.2825 150.467 84.6 155.948 84.6H237.815C240.747 84.6 243.975 84.2146 247.226 83.2186C248.989 83.7287 250.865 84 252.822 84H259.972C263.948 84 267.648 82.8316 270.748 80.8184C273.848 82.8316 277.548 84 281.524 84H364.013C373.229 84 383.863 76.79 383.863 64.2V41.3C383.863 30.357 375.007 21.5 364.063 21.5H305.809C301.872 14.0515 294.052 9 284.974 9C280.653 9 276.614 10.1371 273.143 12.1368C270.017 11.3317 266.86 11 263.822 11H252.822C244.696 11 238.894 15.3911 235.763 20.9H155.948C155.596 20.9 155.244 20.9054 154.895 20.9163C151.476 14.987 145.073 11 137.73 11H130.58ZM110.83 32.1487C112.566 33.0941 114.166 34.337 115.562 35.8763C117.628 38.1547 119.024 40.8291 119.83 43.6841V30.8C119.83 29.8281 119.973 28.8342 120.252 27.862C121.437 23.7354 125.069 20 130.58 20H137.73C141.216 20 144.312 21.6446 146.286 24.2016C147.693 26.0254 148.53 28.3134 148.53 30.8V31.0634C148.815 30.9703 149.102 30.8825 149.393 30.8C151.455 30.2139 153.652 29.9 155.948 29.9H237.665C239.156 29.9 240.636 30.0493 242.083 30.3466C242.132 29.249 242.361 28.1321 242.758 27.0578C244.163 23.2625 247.672 20 252.822 20H263.822C267.593 20 271.328 20.6494 274.689 22.1868C277.289 19.6035 280.894 18 284.974 18C292.409 18 298.424 23.4275 299.389 30.5H364.063C370.036 30.5 374.863 35.3273 374.863 41.3V64.2C374.863 70.9416 369.184 75 364.013 75H281.524C279.962 75 278.479 74.6701 277.14 74.076C273.568 72.4911 271.021 69.0263 270.748 64.9305C270.476 69.0263 267.929 72.4911 264.356 74.076C263.017 74.6701 261.534 75 259.972 75H252.822C250.712 75 248.876 74.4521 247.349 73.5441C244.23 75.0275 240.879 75.6 237.815 75.6H155.948C150.033 75.6 144.772 73.5163 140.784 70.0607C136.323 74.0391 130.711 75.65 125.28 75.65C121.531 75.65 118.122 74.8849 115.184 73.5693C113.515 74.5035 111.644 75 109.836 75H71.5395C68.9789 75 66.6432 74.0376 64.8741 72.4549C62.3623 74.6115 59.3372 75 57.85 75H49.5C48.5209 75 46.6925 74.8905 44.6792 73.9276C43.8938 73.5519 43.2154 73.1123 42.6324 72.6507C40.7872 74.1216 38.4478 75 35.9 75H28.75C21.9404 75 18 69.2972 18 64.2V30.8C18 25.7028 21.9404 20 28.75 20H35.9C38.0694 20 40.0877 20.6368 41.7785 21.7341C43.789 20.453 45.9705 20 47.8 20H56.5C58.559 20 61.9371 20.7455 64.355 23.3634C65.2775 24.3621 66.0602 25.6335 66.5765 27.2399C66.9523 28.4089 67.0979 29.519 67.0868 30.5494C68.1908 30.1298 69.3883 29.9 70.6395 29.9H101.836C104.991 29.9 108.081 30.6511 110.83 32.1487Z" fill="#FFCA28" class="fill-cheese"/>
<path fill-rule="evenodd" clip-rule="evenodd" d="M119.83 43.6841C119.059 40.9543 117.749 38.3896 115.83 36.1783C115.742 36.0769 115.653 35.9762 115.562 35.8763C111.955 31.899 106.983 29.9 101.836 29.9H70.6395C69.3883 29.9 68.1908 30.1298 67.0868 30.5494C67.0979 29.519 66.9523 28.4089 66.5765 27.2399C66.503 27.0111 66.424 26.7891 66.34 26.5737C64.2888 21.3131 59.2327 20 56.5 20H47.8C45.9705 20 43.789 20.453 41.7785 21.7341C40.0877 20.6368 38.0694 20 35.9 20H28.75C21.9404 20 18 25.7028 18 30.8V64.2C18 69.2972 21.9404 75 28.75 75H35.9C38.4478 75 40.7872 74.1216 42.6324 72.6507C43.2154 73.1123 43.8938 73.5519 44.6792 73.9276C46.6925 74.8905 48.5209 75 49.5 75H57.85C59.3372 75 62.3623 74.6115 64.8741 72.4549C66.6432 74.0376 68.9789 75 71.5395 75H109.836C111.644 75 113.515 74.5035 115.184 73.5693C118.122 74.8849 121.531 75.65 125.28 75.65C130.711 75.65 136.323 74.0391 140.784 70.0607C144.772 73.5163 150.033 75.6 155.948 75.6H237.815C240.879 75.6 244.23 75.0275 247.349 73.5441C248.876 74.4521 250.712 75 252.822 75H259.972C263.367 75 266.392 73.4404 268.371 70.9973C269.73 69.3189 270.596 67.2236 270.748 64.9305C270.901 67.2236 271.766 69.3189 273.125 70.9973C275.104 73.4404 278.129 75 281.524 75H364.013C369.184 75 374.863 70.9416 374.863 64.2V41.3C374.863 35.3273 370.036 30.5 364.063 30.5H299.389C298.424 23.4275 292.409 18 284.974 18C280.894 18 277.289 19.6035 274.689 22.1868C271.328 20.6494 267.593 20 263.822 20H252.822C247.672 20 244.163 23.2625 242.758 27.0579C242.361 28.1321 242.132 29.249 242.083 30.3466C240.777 30.0783 239.444 29.9306 238.101 29.9043C237.956 29.9014 237.81 29.9 237.665 29.9H155.948C154.777 29.9 153.631 29.9817 152.516 30.1396C151.445 30.2912 150.403 30.5129 149.393 30.8C149.102 30.8825 148.815 30.9703 148.53 31.0634V30.8C148.53 29.4911 148.298 28.2372 147.873 27.0771C146.359 22.9433 142.394 20 137.73 20H130.58C123.77 20 119.83 25.7028 119.83 30.8V43.6841Z" fill="#0F1218" class="fill-dark"/>
<path fill-rule="evenodd" clip-rule="evenodd" d="M151.803 26.201C149.872 20.2749 144.306 16 137.73 16H130.58C121.195 16 115.896 23.8456 115.831 30.6722C111.787 27.4836 106.849 25.9 101.836 25.9H70.6395C70.5421 25.9 70.4449 25.901 70.3479 25.903C67.6941 17.8446 60.2206 16 56.5 16H47.8C45.978 16 43.8818 16.3321 41.7961 17.2195C39.9869 16.4345 37.9913 16 35.9 16H28.75C19.3064 16 14 23.9439 14 30.8V64.2C14 71.0561 19.3065 79 28.75 79H35.9C38.3243 79 40.6173 78.4165 42.6403 77.3819C42.7433 77.4341 42.8476 77.4855 42.9533 77.5361C45.7138 78.8564 48.208 79 49.5 79H109.836C111.692 79 113.558 78.628 115.305 77.9324C118.334 79.0379 121.692 79.65 125.28 79.65C130.496 79.65 136.013 78.3458 140.811 75.0988C145.099 77.9554 150.291 79.6 155.948 79.6H237.815C240.781 79.6 244.043 79.1375 247.23 77.9369C248.922 78.6207 250.799 79 252.822 79H259.972C264.222 79 268.05 77.2147 270.748 74.3513C273.446 77.2147 277.274 79 281.524 79H364.013C370.982 79 378.863 73.5409 378.863 64.2V41.3C378.863 33.1183 372.245 26.5 364.063 26.5H302.536C300.057 19.2151 293.179 14 284.974 14C280.807 14 276.997 15.3294 273.929 17.5857C270.642 16.4642 267.197 16 263.822 16H252.822C245.585 16 240.775 20.6761 238.924 25.9302C238.505 25.9101 238.085 25.9 237.665 25.9H155.948C154.537 25.9 153.153 26.0024 151.803 26.201ZM115.83 36.1783C117.749 38.3896 119.059 40.9543 119.83 43.6841V30.8C119.83 25.7028 123.77 20 130.58 20H137.73C142.394 20 146.359 22.9433 147.873 27.0771C148.298 28.2372 148.53 29.4911 148.53 30.8V31.0634C148.815 30.9703 149.102 30.8825 149.393 30.8C150.403 30.5129 151.445 30.2912 152.516 30.1396C153.631 29.9817 154.777 29.9 155.948 29.9H237.665C237.81 29.9 237.956 29.9014 238.101 29.9043C239.444 29.9306 240.777 30.0783 242.083 30.3466C242.132 29.249 242.361 28.1321 242.758 27.0579C244.163 23.2625 247.672 20 252.822 20H263.822C267.593 20 271.328 20.6494 274.689 22.1868C277.289 19.6035 280.894 18 284.974 18C292.409 18 298.424 23.4275 299.389 30.5H364.063C370.036 30.5 374.863 35.3273 374.863 41.3V64.2C374.863 70.9416 369.184 75 364.013 75H281.524C278.129 75 275.104 73.4404 273.125 70.9973C271.766 69.3189 270.901 67.2236 270.748 64.9305C270.596 67.2236 269.73 69.3189 268.371 70.9973C266.392 73.4404 263.367 75 259.972 75H252.822C250.712 75 248.876 74.4521 247.349 73.5441C244.23 75.0275 240.879 75.6 237.815 75.6H155.948C150.033 75.6 144.772 73.5163 140.784 70.0607C136.323 74.0391 130.711 75.65 125.28 75.65C121.531 75.65 118.122 74.8849 115.184 73.5693C113.515 74.5035 111.644 75 109.836 75H71.5395C68.9789 75 66.6432 74.0376 64.8741 72.4549C62.3623 74.6115 59.3372 75 57.85 75H49.5C48.5209 75 46.6925 74.8905 44.6792 73.9276C43.8938 73.5519 43.2154 73.1123 42.6324 72.6507C40.7872 74.1216 38.4478 75 35.9 75H28.75C21.9404 75 18 69.2972 18 64.2V30.8C18 25.7028 21.9404 20 28.75 20H35.9C38.0694 20 40.0877 20.6368 41.7785 21.7341C43.789 20.453 45.9705 20 47.8 20H56.5C59.2327 20 64.2888 21.3131 66.34 26.5737C66.424 26.7891 66.503 27.0111 66.5765 27.2399C66.9523 28.4089 67.0979 29.519 67.0868 30.5494C68.1908 30.1298 69.3883 29.9 70.6395 29.9H101.836C106.983 29.9 111.955 31.899 115.562 35.8763C115.653 35.9762 115.742 36.0769 115.83 36.1783Z" fill="#0F1218" class="fill-dark"/>
<path d="M101.836 29.9C106.983 29.9 111.955 31.899 115.562 35.8763C117.628 38.1547 119.024 40.8291 119.83 43.6841V30.8C119.83 25.7028 123.77 20 130.58 20H137.73C143.703 20 148.53 24.8271 148.53 30.8V31.0634C150.839 30.3084 153.329 29.9 155.948 29.9H237.665C239.156 29.9 240.636 30.0493 242.083 30.3466C242.308 25.3707 246.214 20 252.822 20H263.822C267.593 20 271.328 20.6494 274.689 22.1868C277.289 19.6035 280.894 18 284.974 18C292.409 18 298.424 23.4275 299.389 30.5H364.063C370.036 30.5 374.863 35.3273 374.863 41.3V64.2C374.863 70.9416 369.184 75 364.013 75H281.524C275.797 75 271.123 70.5616 270.748 64.9305C270.373 70.5616 265.7 75 259.972 75H252.822C250.712 75 248.876 74.4521 247.349 73.5441C244.23 75.0275 240.879 75.6 237.815 75.6H155.948C150.033 75.6 144.772 73.5163 140.784 70.0607C136.323 74.0391 130.711 75.65 125.28 75.65C121.531 75.65 118.122 74.8849 115.184 73.5693C113.515 74.5035 111.644 75 109.836 75H49.5C48.5209 75 46.6925 74.8905 44.6792 73.9276C43.8938 73.5519 43.2154 73.1123 42.6324 72.6507C40.7872 74.1216 38.4478 75 35.9 75H28.75C21.9404 75 18 69.2972 18 64.2V30.8C18 25.7028 21.9404 20 28.75 20H35.9C38.0694 20 40.0877 20.6368 41.7785 21.7341C43.789 20.453 45.9705 20 47.8 20H56.5C59.3446 20 64.7068 21.4228 66.5765 27.2399C66.9523 28.4089 67.0979 29.519 67.0868 30.5494C68.1908 30.1298 69.3883 29.9 70.6395 29.9H101.836Z" fill="#3BD4E9" class="fill-berry"/>
<path fill-rule="evenodd" clip-rule="evenodd" d="M269.712 91.3139C268.693 88.4825 267.537 85.6567 266.224 82.7729C261.051 71.4126 254.477 61.8349 245.788 53.1464C240.483 47.84 236.352 44.4319 230.304 40.4554C229.915 40.1987 229.529 39.9379 229.146 39.6731L228.808 39.4393L228.783 39.4224C227.724 38.6878 225.035 36.8222 221.34 35.762C217.902 34.7756 213.336 34.784 211.689 34.7879C207.593 34.7883 203.333 35.9371 200.026 37.4797C196.704 39.0314 193.231 41.2852 190.297 44.4795L190.297 44.4805L190.294 44.4828L190.292 44.4859C189.264 45.6057 188.101 47.0378 187.04 48.8383C186.127 49.0478 185.194 49.3005 184.316 49.5976C176.593 52.2128 169.012 57.6446 163.471 63.3761L157.314 71.1487C156.733 71.6441 155.891 72.351 154.611 73.4244L154.6 73.4336C152.538 75.1687 150.172 77.1833 148.121 78.9616L148.114 78.9676L147.952 79.1064L147.933 79.1231C147.612 79.4025 147.349 79.631 147.132 79.8194C143.182 81.6001 139.91 84.1383 137.255 86.9398L136.712 87.5136L132.622 93.0401C135.344 92.5824 138.105 91.851 140.83 90.7923C145.524 92.6171 150.627 93.6 155.948 93.6H237.815C240.778 93.6 244.028 93.2889 247.38 92.4963C249.145 92.8285 250.964 93 252.822 93H259.972C263.391 93 266.671 92.4055 269.712 91.3139Z" fill="#0F1218" class="fill-dark"/>
<path d="M222.433 147.839C225.64 147.108 228.951 145.387 231.255 143.991C234.403 146.381 236.93 147.734 239.456 148.495C240.865 148.919 242.132 149.115 243.229 149.258C243.515 149.295 243.781 149.328 244.035 149.36L244.143 149.373C244.876 149.464 245.522 149.543 246.302 149.68L246.734 149.756L247.172 149.755C248.029 149.754 249.437 149.745 251.02 149.5C252.719 149.237 254.074 148.793 254.934 148.498L254.941 148.495C259.045 147.085 262.24 144.934 265.102 141.86L265.105 141.856L265.11 141.85L265.114 141.847L265.117 141.843C267.601 139.169 269.596 135.954 270.712 132.105C271.592 129.069 271.542 126.108 271.491 123.07L271.485 122.692L271.476 122.153L271.476 122.151L271.469 121.734C271.395 116.992 271.315 115.121 270.781 111.774C269.191 101.828 266.685 93.4393 262.583 84.4305C257.602 73.4907 251.298 64.3132 242.96 55.9748C237.832 50.8456 233.91 47.6132 228.104 43.796C227.69 43.5228 227.279 43.2452 226.871 42.9632L226.533 42.7294C225.548 42.0466 223.296 40.4848 220.237 39.6069C217.347 38.7777 214.489 38.7839 212.861 38.7875L212.717 38.7878L212.639 38.7879H211.689C208.273 38.7882 204.594 39.7627 201.723 41.1021L201.721 41.1029C198.763 42.4844 195.751 44.4552 193.244 47.1852L193.242 47.1869L193.241 47.1877C192.081 48.4524 190.776 50.1151 189.724 52.2955L189.681 52.3861C188.346 52.6182 186.868 52.9568 185.599 53.3864C178.625 55.7479 171.565 60.7584 166.346 66.1568C163.885 68.7015 162.146 70.8656 160.399 73.7722C159.795 74.2962 158.84 75.0986 157.182 76.4894L157.175 76.4945C155.125 78.2197 152.774 80.2213 150.741 81.9841L150.734 81.9901L150.569 82.1317L150.559 82.1409C149.977 82.6472 149.577 82.9938 149.289 83.2414C145.66 84.7805 142.634 87.0791 140.159 89.6912L139.782 90.0886L135.903 95.3305L135.593 95.9105C135.442 96.1934 135.279 96.5072 135.12 96.8226C134.891 97.0828 134.486 97.5311 133.776 98.2968C131.199 101.078 128.888 103.683 127.068 105.863C125.635 107.58 123.471 110.226 122.247 112.61L121.902 113.282L120.379 121.915L120.379 122.443C120.378 123.319 120.377 124.804 120.56 126.214C120.773 127.848 121.265 129.277 121.549 130.035L121.608 130.192L122.551 132.275L122.734 132.566C124.835 135.899 127.931 139.998 134.061 142.145C138.447 143.681 143.67 143.953 149.944 143.438C154.892 147.337 157.861 148.657 163.689 148.675C165.484 152.083 171.689 158.068 179.055 157.82C179.055 157.82 183.445 157.835 186.348 156.785C190.173 155.401 192.433 152.91 193.199 152.065L193.223 152.039L193.227 152.035C196.133 148.832 197.525 145.267 198.191 142.121C198.997 142.121 199.754 142.124 200.425 142.132C202.071 143.438 204.392 145.228 207.261 146.471C210.62 147.928 213.634 148.194 215.79 148.293L216.076 148.306L222.04 147.928L222.433 147.839Z" fill="#FDA8F3" class="fill-gum"/>
<path d="M164.15 77.1314C163.509 77.707 162.45 78.5963 160.394 80.3205C158.356 82.0353 156.022 84.0231 154.009 85.7679L153.84 85.9131C152.796 86.822 152.268 87.279 151.911 87.5702C151.85 87.5952 151.618 87.6888 151.532 87.7239C148.513 88.9487 145.943 90.8568 143.788 93.1305L143.621 93.3071L140.14 98.0109L140.002 98.2687C139.789 98.6679 139.545 99.1463 139.335 99.5794C139.117 99.8583 138.667 100.376 137.444 101.695C134.906 104.434 132.655 106.972 130.906 109.067C129.413 110.856 127.623 113.085 126.695 114.894L125.379 122.354C125.379 123.275 125.378 124.487 125.519 125.57C125.658 126.645 125.997 127.656 126.231 128.282L126.964 129.9C128.826 132.854 131.152 135.828 135.714 137.426C139.586 138.782 144.683 139.006 151.821 138.237C152.753 139.225 154.207 140.748 156.005 141.813C158.632 143.37 161.077 143.514 162.59 143.519H162.592L162.594 143.519C163.869 143.523 165.323 143.392 166.862 142.894C167.48 145.262 168.702 147.602 170.886 149.637C173.087 151.688 175.98 152.82 178.973 152.82C179.853 152.821 182.599 152.824 184.647 152.083C187.303 151.122 188.883 149.381 189.521 148.678L189.524 148.675C192.908 144.946 193.635 140.469 193.77 137.153C194.316 137.145 194.877 137.139 195.442 137.134C195.832 137.13 196.221 137.127 196.607 137.125C198.075 137.117 199.487 137.12 200.644 137.134C201.209 137.141 201.686 137.15 202.065 137.162C202.345 137.33 202.801 137.634 203.458 138.156C205.095 139.456 206.996 140.907 209.25 141.884C211.789 142.985 214.095 143.21 216.02 143.298L216.027 143.299L221.322 142.964C224.023 142.349 227.116 140.699 229.281 139.334C229.821 138.994 230.246 138.748 230.567 138.576L232.965 138.979C240.099 144.747 242.25 143.893 247.165 144.755C247.986 144.754 249.073 144.742 250.256 144.559C251.515 144.364 252.539 144.033 253.312 143.768L253.316 143.767C256.606 142.636 259.112 140.956 261.442 138.453L261.445 138.45L261.448 138.446C263.474 136.267 265.037 133.721 265.91 130.712C266.577 128.41 266.54 126.131 266.485 122.774L266.476 122.232L266.47 121.812C266.397 117.137 266.321 115.55 265.843 112.562C264.322 103.047 261.944 95.0917 258.033 86.5024C253.291 76.0881 247.325 67.4108 239.424 59.5099C234.518 54.6026 230.858 51.5902 225.354 47.9724C224.909 47.6784 224.466 47.3795 224.027 47.0758L223.816 46.9298L223.739 46.8768C222.819 46.2395 221.121 45.0624 218.858 44.4129C216.656 43.7811 214.393 43.7849 212.725 43.7877L212.639 43.7879H211.689C209.122 43.7881 206.163 44.548 203.837 45.6332C201.334 46.8018 198.9 48.4183 196.926 50.5671L196.925 50.5688C195.983 51.5949 195.005 52.8562 194.227 54.4682C193.971 54.9985 193.758 55.5227 193.58 56.0373L191.855 57.1157C190.445 57.2873 188.583 57.6549 187.203 58.1222C181.165 60.1667 174.756 64.6509 169.94 69.6327C167.554 72.0998 166.013 74.0595 164.385 76.8543L164.15 77.1314Z" fill="#0F1218" class="fill-dark"/>
<path fill-rule="evenodd" clip-rule="evenodd" d="M205.949 49.0617L205.948 49.0621L205.529 49.2575C203.392 50.2557 201.419 51.5889 199.872 53.2728L199.871 53.2737C199.105 54.109 198.388 55.0491 197.83 56.2063C197.438 57.0174 197.179 57.8224 196.999 58.6173L193.714 60.6708L193.712 60.6717C193.373 60.8834 192.989 61.0155 192.591 61.0575C191.364 61.1872 189.622 61.5261 188.485 61.9109C183.196 63.7019 177.309 67.7644 172.816 72.4127C170.615 74.6885 169.282 76.3948 167.841 78.8679L167.835 78.8776L167.785 78.9621L167.775 78.9806C167.576 79.3254 167.527 79.4034 167.495 79.4498L167.49 79.4562L167.489 79.4574C167.486 79.463 167.475 79.4806 167.416 79.5432C167.33 79.6354 167.162 79.8023 166.822 80.1077C166.117 80.7408 164.995 81.6828 162.969 83.3819L162.964 83.3857L162.668 83.6329L162.661 83.6388C160.638 85.3409 158.627 87.0579 156.63 88.7897L156.621 88.7971L156.478 88.9204L156.466 88.9306C155.411 89.8489 154.817 90.3645 154.389 90.7106C154.19 90.8717 154.076 90.9557 154.01 91.0011C153.961 91.0351 153.939 91.0479 153.927 91.0545C153.854 91.0933 153.741 91.1442 153.189 91.369L153.047 91.426L153.035 91.4305C150.633 92.4051 148.524 93.9485 146.691 95.882L143.529 100.155C143.346 100.497 143.163 100.86 142.972 101.255C142.807 101.597 142.722 101.742 142.486 102.044C142.147 102.477 141.581 103.116 140.377 104.414C137.871 107.119 135.669 109.604 133.977 111.631C132.429 113.485 130.94 115.38 130.251 116.724L130.251 116.725C129.371 118.443 129.375 120.173 129.378 121.825C129.379 121.931 129.379 122.036 129.379 122.142L129.379 122.233C129.379 123.246 129.379 124.234 129.485 125.055C129.648 126.306 130.348 127.767 130.348 127.767C133.689 133.068 137.189 136.068 153.309 134.035C153.361 134.084 153.419 134.14 153.485 134.205C153.765 134.478 154.121 134.845 154.597 135.35C155.579 136.391 156.719 137.587 158.044 138.372C159.778 139.399 161.385 139.515 162.604 139.519L162.606 139.519C164.246 139.524 166.045 139.247 167.91 137.939C168.857 137.275 169.732 136.393 170.574 135.432C169.965 139.397 170.284 143.61 173.613 146.711C175.071 148.069 176.988 148.82 178.973 148.82L179.618 148.82C180.481 148.82 181.907 148.821 183.287 148.321C184.973 147.712 186.001 146.604 186.562 145.987C190.118 142.068 189.779 137.068 189.779 133.75V133.245L189.779 133.749C189.777 133.567 189.775 133.399 189.773 133.245C189.775 133.245 189.777 133.245 189.779 133.245C189.923 133.239 190.073 133.234 190.231 133.229C191.652 133.184 193.512 133.151 195.406 133.134C197.299 133.117 199.196 133.116 200.693 133.134C201.444 133.144 202.07 133.157 202.533 133.175C202.783 133.185 202.931 133.194 203.003 133.198C203.345 133.293 204.234 133.664 205.945 135.023C207.577 136.319 209.117 137.467 210.841 138.214C212.723 139.03 214.463 139.222 216.204 139.303L216.208 139.303C217.555 139.364 219.143 139.358 220.434 139.064C222.459 138.602 225.089 137.249 227.148 135.95C228.089 135.357 228.814 134.961 229.345 134.716C229.602 134.597 229.769 134.535 229.859 134.504C229.926 134.505 230.01 134.509 230.113 134.515C230.449 134.535 230.88 134.578 231.345 134.645C233.249 134.921 234.282 135.15 234.872 135.345C234.972 135.378 235.046 135.406 235.097 135.426C236.617 137.051 237.878 138.148 239.733 139.073L239.735 139.074C242.206 140.305 244.362 140.758 247.162 140.755L247.163 140.755C247.957 140.754 248.78 140.739 249.645 140.606C250.55 140.466 251.31 140.226 252.014 139.984L252.016 139.984C254.655 139.077 256.609 137.773 258.514 135.728L258.515 135.726C260.173 133.944 261.391 131.934 262.068 129.598C262.565 127.883 262.538 126.192 262.477 122.295L262.47 121.874C262.398 117.252 262.325 115.894 261.893 113.194C260.427 104.023 258.15 96.4135 254.392 88.1599C249.842 78.1662 244.146 69.889 236.595 62.3383C231.866 57.6084 228.416 54.7717 223.155 51.3133C222.684 51.0026 222.216 50.6869 221.752 50.366L221.742 50.3591C221.677 50.3142 221.61 50.2678 221.541 50.22L221.538 50.2183C220.626 49.5866 219.38 48.7242 217.754 48.2577C216.142 47.7951 214.402 47.7851 212.639 47.7879H211.689C209.706 47.7881 207.746 48.2229 205.949 49.0617Z" fill="#F4F5F7" class="fill-light"/>
<path fill-rule="evenodd" clip-rule="evenodd" d="M205.949 49.0617L205.948 49.0621L205.529 49.2575C203.392 50.2557 201.419 51.5889 199.872 53.2728L199.871 53.2737C199.105 54.109 198.388 55.0491 197.83 56.2063C197.438 57.0174 197.179 57.8224 196.999 58.6173L193.714 60.6708L193.712 60.6717C193.373 60.8834 192.989 61.0155 192.591 61.0575C191.364 61.1872 189.622 61.5261 188.485 61.9109C183.196 63.7019 177.309 67.7644 172.816 72.4127C170.615 74.6885 169.282 76.3948 167.841 78.8679L167.835 78.8776L167.785 78.9621L167.775 78.9806C167.576 79.3254 167.527 79.4034 167.495 79.4498L167.49 79.4562L167.489 79.4574C167.486 79.463 167.475 79.4806 167.416 79.5432C167.33 79.6354 167.162 79.8023 166.822 80.1077C166.117 80.7408 164.995 81.6828 162.969 83.3819L162.964 83.3857L162.668 83.6329L162.661 83.6388C160.638 85.3409 158.627 87.0579 156.63 88.7897L156.621 88.7971L156.478 88.9204L156.466 88.9306C155.411 89.8489 154.817 90.3645 154.389 90.7106C154.19 90.8717 154.076 90.9557 154.01 91.0011C153.961 91.0351 153.939 91.0479 153.927 91.0545C153.854 91.0933 153.741 91.1442 153.189 91.369L153.047 91.426L153.035 91.4305C150.633 92.4051 148.524 93.9485 146.691 95.882L143.529 100.155C143.346 100.497 143.163 100.86 142.972 101.255C142.807 101.597 142.722 101.742 142.486 102.044C142.147 102.477 141.581 103.116 140.377 104.414C137.871 107.119 135.669 109.604 133.977 111.631C132.429 113.485 130.94 115.38 130.251 116.724L130.251 116.725C129.371 118.443 129.375 120.173 129.378 121.825C129.379 121.931 129.379 122.036 129.379 122.142L129.379 122.233C129.379 123.246 129.379 124.234 129.485 125.055C129.648 126.306 130.348 127.767 130.348 127.767C133.689 133.068 137.189 136.068 153.309 134.035C153.361 134.084 153.419 134.14 153.485 134.205C153.765 134.478 154.121 134.845 154.597 135.35C155.579 136.391 156.719 137.587 158.044 138.372C159.778 139.399 161.385 139.515 162.604 139.519L162.606 139.519C164.246 139.524 166.045 139.247 167.91 137.939C168.857 137.275 169.732 136.393 170.574 135.432C169.965 139.397 170.284 143.61 173.613 146.711C175.071 148.069 176.988 148.82 178.973 148.82L179.618 148.82C180.481 148.82 181.907 148.821 183.287 148.321C184.973 147.712 186.001 146.604 186.562 145.987C190.118 142.068 189.779 137.068 189.779 133.75V133.245L189.779 133.749C189.777 133.567 189.775 133.399 189.773 133.245C189.775 133.245 189.777 133.245 189.779 133.245C189.923 133.239 190.073 133.234 190.231 133.229C191.652 133.184 193.512 133.151 195.406 133.134C197.299 133.117 199.196 133.116 200.693 133.134C201.444 133.144 202.07 133.157 202.533 133.175C202.783 133.185 202.931 133.194 203.003 133.198C203.345 133.293 204.234 133.664 205.945 135.023C207.577 136.319 209.117 137.467 210.841 138.214C212.723 139.03 214.463 139.222 216.204 139.303L216.208 139.303C217.555 139.364 219.143 139.358 220.434 139.064C222.459 138.602 225.089 137.249 227.148 135.95C228.089 135.357 228.814 134.961 229.345 134.716C229.602 134.597 229.769 134.535 229.859 134.504C229.926 134.505 230.01 134.509 230.113 134.515C230.449 134.535 230.88 134.578 231.345 134.645C233.249 134.921 234.282 135.15 234.872 135.345C234.972 135.378 235.046 135.406 235.097 135.426C236.617 137.051 237.878 138.148 239.733 139.073L239.735 139.074C242.206 140.305 244.362 140.758 247.162 140.755L247.163 140.755C247.957 140.754 248.78 140.739 249.645 140.606C250.55 140.466 251.31 140.226 252.014 139.984L252.016 139.984C254.655 139.077 256.609 137.773 258.514 135.728L258.515 135.726C260.173 133.944 261.391 131.934 262.068 129.598C262.565 127.883 262.538 126.192 262.477 122.295L262.47 121.874C262.398 117.252 262.325 115.894 261.893 113.194C260.427 104.023 258.15 96.4135 254.392 88.1599C249.842 78.1662 244.146 69.889 236.595 62.3383C231.866 57.6084 228.416 54.7717 223.155 51.3133C222.684 51.0026 222.216 50.6869 221.752 50.366L221.742 50.3591C221.677 50.3142 221.61 50.2678 221.541 50.22L221.538 50.2183C220.626 49.5866 219.38 48.7242 217.754 48.2577C216.142 47.7951 214.402 47.7851 212.639 47.7879H211.689C209.706 47.7881 207.746 48.2229 205.949 49.0617Z" fill="#F4F5F7" class="fill-light"/>
<path d="M242.703 124.915C244.586 118.987 251.821 120.121 253.278 122.986L242.703 124.915Z" fill="#CC8237"/>
<path d="M239.03 124.254C241.67 100.091 225.653 73.019 203.987 62.042C201.245 63.6329 198.306 65.4556 195.236 67.4525C200.749 71.7298 197.97 78.9904 192.814 82.2035C186.392 86.1935 177.793 88.783 173.296 83.6171C173.262 83.5665 173.228 83.516 173.157 83.4754C167.857 87.7004 162.593 92.1338 157.63 96.6453C162.492 95.14 167.008 96.4082 168.704 99.5667C170.798 103.452 169.027 107.662 161.844 110.248C156.346 112.202 150.858 111.473 149.322 107.875C148.911 106.952 148.836 105.94 148.994 104.905C148.15 105.767 147.306 106.629 146.476 107.468C144.175 109.874 142.023 112.239 140.057 114.555C139.613 115.052 139.179 115.586 138.759 116.096C138.087 116.932 137.43 117.744 136.809 118.546C134.13 121.987 136.525 126.983 140.876 127.124C145.267 126.977 149.621 126.839 153.939 126.711C154.037 126.704 154.145 126.735 154.243 126.729C158.765 127.062 159.568 132.149 162.457 132.424C163.914 132.569 164.903 131.727 166.931 128.759C170.35 123.928 179.499 127.844 177.523 135.564C175.694 142.648 181.451 144.219 182.935 138.657C183.197 137.712 183.23 136.731 183.165 135.755C182.7 130.518 182.872 126.52 188.901 125.932C193.64 125.889 198.207 125.873 202.575 125.931C202.575 125.931 202.575 125.931 202.598 125.944C206.735 126.182 209.107 128.226 211.185 130.07C214.19 132.758 218.588 133.145 222.02 131.01C224.806 129.288 227.641 127.156 230.561 127.325L230.585 127.338C230.767 127.349 230.974 127.373 231.18 127.397C231.629 127.435 232.065 127.496 232.501 127.558C233.106 127.653 233.687 127.736 234.218 127.851C234.339 127.858 234.471 127.902 234.593 127.909C236.9 128.322 238.63 128.81 240.202 130.115C240.367 130.428 240.569 130.731 240.822 131.001C239.841 129.815 238.709 127.041 239.03 124.254ZM204.846 83.3581C206.643 82.4778 208.923 81.9049 211.418 81.8301C217.253 81.6317 221.723 84.124 222.181 87.357C222.704 90.97 219.479 93.7234 211.819 93.5977C205.988 93.5168 201.183 91.3332 201.055 88.0708C201.016 86.2345 202.47 84.5329 204.846 83.3581ZM217.741 121.06C213.878 120.728 209.896 120.547 205.823 120.47L205.799 120.457L205.775 120.443C202.311 120.401 198.768 120.44 195.161 120.536C190.641 117.859 187.874 114.213 188.54 111.155C189.535 106.658 197.272 103.982 205.863 104.89C214.454 105.798 220.756 110.995 219.931 116.777C219.718 118.344 218.818 119.956 217.741 121.06Z" fill="#FFCA28" class="fill-cheese"/>
<path d="M217.74 121.06C210.585 120.441 203.047 120.322 195.157 120.596C190.637 117.919 187.87 114.274 188.537 111.215C189.531 106.718 197.268 104.042 205.859 104.95C214.45 105.858 220.752 111.055 219.927 116.838C219.718 118.344 218.818 119.956 217.74 121.06Z" fill="#E93B47" class="fill-sauce"/>
<path d="M245.157 133.51C243.508 133.099 241.979 132.319 240.923 131.152C240.89 131.102 240.842 131.075 240.832 131.038C240.809 131.024 240.799 130.987 240.775 130.974C239.832 129.778 238.685 127.028 239.03 124.254C241.67 100.091 225.653 73.0189 203.987 62.042C203.923 61.8805 203.836 61.7054 203.809 61.5338C202.434 56.8394 211.042 52.222 216.533 54.5789C216.914 54.7345 217.269 54.9371 217.61 55.1631C241.964 70.0845 255.291 96.807 256.36 123.528C256.431 131.949 249.667 134.68 245.157 133.51Z" fill="#EB984E"/>
<path d="M211.819 93.5978C205.988 93.517 201.183 91.3331 201.055 88.0708C200.992 86.2212 202.47 84.533 204.846 83.3582C206.643 82.4779 208.923 81.905 211.417 81.8302C217.253 81.6318 221.722 84.1241 222.181 87.3571C222.703 90.9701 219.479 93.7235 211.819 93.5978Z" fill="#E93B47" class="fill-sauce"/>
<path d="M192.814 82.2035C186.392 86.1935 177.793 88.783 173.296 83.6171C173.262 83.5665 173.228 83.5159 173.157 83.4754C173.677 82.5217 174.257 81.5713 174.884 80.648C179.827 73.5605 188.644 67.2186 195.198 67.4625C196.612 68.552 197.488 69.8656 197.921 71.2388C199.155 75.1965 196.653 79.8012 192.814 82.2035Z" fill="#E93B47" class="fill-sauce"/>
<path d="M159.794 110.859C153.174 111.546 150.06 110.079 149.116 107.85C147.115 103.205 154.635 95.2459 159.443 96.5553C161.363 96.2772 163.161 96.4295 164.722 96.8838C171.191 98.7989 173.242 106.132 159.794 110.859Z" fill="#E93B47" class="fill-sauce"/>
<g opacity="0.25">
<path d="M221.142 102.699C222.129 102.81 222.985 102.419 223.053 101.823C223.121 101.228 222.376 100.655 221.389 100.543C220.402 100.431 219.547 100.823 219.478 101.418C219.41 102.013 220.155 102.586 221.142 102.699Z" fill="#E66E5F" class="fill-light-pep"/>
</g>
<g opacity="0.25">
<path d="M206.62 78.9231C207.607 79.035 208.462 78.6433 208.53 78.0482C208.598 77.4531 207.854 76.88 206.867 76.768C205.88 76.6561 205.024 77.0479 204.956 77.643C204.888 78.2381 205.633 78.8112 206.62 78.9231Z" fill="#E66E5F" class="fill-light-pep"/>
</g>
<g opacity="0.25">
<path d="M226.667 109.692C227.176 109.75 227.617 109.543 227.653 109.231C227.689 108.918 227.305 108.618 226.797 108.561C226.288 108.503 225.847 108.709 225.811 109.022C225.776 109.334 226.159 109.634 226.667 109.692Z" fill="#E66E5F" class="fill-light-pep"/>
</g>
<g opacity="0.25">
<path d="M178.402 104.503C179.379 104.678 180.259 104.342 180.365 103.753C180.472 103.163 179.766 102.543 178.789 102.368C177.811 102.193 176.932 102.528 176.825 103.118C176.718 103.707 177.424 104.327 178.402 104.503Z" fill="#E66E5F" class="fill-light-pep"/>
<path d="M185.033 100.461C185.388 100.525 185.709 100.397 185.749 100.176C185.789 99.9554 185.533 99.7247 185.178 99.6609C184.822 99.5971 184.502 99.7245 184.462 99.9456C184.422 100.167 184.677 100.397 185.033 100.461Z" fill="#E66E5F" class="fill-light-pep"/>
<path d="M184.555 105.602C185.221 105.721 185.822 105.484 185.897 105.071C185.972 104.659 185.492 104.227 184.826 104.108C184.159 103.988 183.558 104.226 183.483 104.638C183.408 105.051 183.888 105.482 184.555 105.602Z" fill="#E66E5F" class="fill-light-pep"/>
<path d="M197.296 96.4796C198.283 96.5915 199.138 96.1999 199.206 95.6048C199.274 95.0096 198.529 94.4365 197.542 94.3247C196.555 94.2126 195.7 94.6044 195.632 95.1996C195.564 95.7947 196.308 96.3678 197.296 96.4796Z" fill="#E66E5F" class="fill-light-pep"/>
<path d="M196.444 100.109C196.953 100.167 197.394 99.9605 197.43 99.648C197.465 99.3356 197.082 99.0355 196.574 98.9779C196.065 98.9202 195.624 99.1269 195.588 99.4393C195.553 99.7516 195.936 100.052 196.444 100.109Z" fill="#E66E5F" class="fill-light-pep"/>
<path d="M190.284 96.0369C190.942 96.1114 191.513 95.8463 191.559 95.4447C191.605 95.0429 191.109 94.6568 190.451 94.5823C189.793 94.5075 189.222 94.7728 189.176 95.1746C189.13 95.5762 189.626 95.9623 190.284 96.0369Z" fill="#E66E5F" class="fill-light-pep"/>
</g>
<g opacity="0.25">
<path d="M212.34 101.026C212.696 101.09 213.016 100.962 213.056 100.741C213.096 100.52 212.84 100.289 212.485 100.226C212.129 100.162 211.809 100.289 211.769 100.51C211.729 100.731 211.985 100.962 212.34 101.026Z" fill="#E66E5F" class="fill-light-pep"/>
</g>
<g opacity="0.25">
<path d="M200.28 80.9695C200.635 81.0333 200.956 80.9058 200.996 80.6848C201.036 80.4637 200.781 80.2328 200.425 80.169C200.069 80.1052 199.749 80.2327 199.709 80.4539C199.669 80.6748 199.924 80.9058 200.28 80.9695Z" fill="#E66E5F" class="fill-light-pep"/>
</g>
<g opacity="0.25">
<path d="M147.765 116.768C148.752 116.88 149.607 116.489 149.675 115.894C149.744 115.298 148.999 114.725 148.012 114.613C147.025 114.502 146.169 114.893 146.101 115.488C146.033 116.083 146.778 116.657 147.765 116.768Z" fill="#E66E5F" class="fill-light-pep"/>
</g>
<g opacity="0.25">
<path d="M174.565 115.92C175.552 116.032 176.407 115.64 176.475 115.045C176.543 114.45 175.799 113.877 174.811 113.765C173.825 113.653 172.969 114.045 172.901 114.64C172.833 115.235 173.578 115.808 174.565 115.92Z" fill="#E66E5F" class="fill-light-pep"/>
</g>
<g opacity="0.25">
<path d="M175.419 95.7838C175.987 95.8484 176.48 95.6232 176.519 95.2809C176.558 94.9389 176.129 94.6091 175.561 94.5448C174.993 94.4803 174.5 94.7056 174.461 95.0477C174.422 95.3899 174.851 95.7195 175.419 95.7838Z" fill="#E66E5F" class="fill-light-pep"/>
</g>
<g opacity="0.25">
<path d="M155.523 118.794C156.21 118.872 156.807 118.597 156.855 118.18C156.902 117.764 156.383 117.363 155.695 117.285C155.008 117.207 154.411 117.482 154.363 117.898C154.316 118.315 154.835 118.715 155.523 118.794Z" fill="#E66E5F" class="fill-light-pep"/>
</g>
<g opacity="0.25">
<path d="M208.939 86.913C209.65 87.0404 210.276 86.8691 210.338 86.5303C210.399 86.1914 209.873 85.8133 209.162 85.6857C208.451 85.5581 207.825 85.7293 207.763 86.0684C207.702 86.4072 208.228 86.7855 208.939 86.913Z" fill="#F4F5F7" class="fill-light"/>
</g>
<g opacity="0.25">
<path d="M217.271 88.0279C217.671 88.0997 218.02 88.0146 218.053 87.8377C218.085 87.6608 217.787 87.4594 217.387 87.3876C216.987 87.3159 216.636 87.401 216.604 87.5779C216.572 87.7548 216.871 87.9563 217.271 88.0279Z" fill="#F4F5F7" class="fill-light"/>
</g>
<g opacity="0.25">
<path d="M214.161 88.168C214.428 88.2159 214.661 88.159 214.682 88.0412C214.704 87.9232 214.505 87.7888 214.238 87.7411C213.972 87.6932 213.738 87.7501 213.717 87.8679C213.695 87.9857 213.894 88.1201 214.161 88.168Z" fill="#F4F5F7" class="fill-light"/>
</g>
<g opacity="0.25">
<path d="M214.598 85.8055C215.102 85.8959 215.545 85.7779 215.587 85.5421C215.63 85.3064 215.257 85.0421 214.753 84.9518C214.249 84.8612 213.806 84.9792 213.764 85.215C213.721 85.4507 214.094 85.7151 214.598 85.8055Z" fill="#F4F5F7" class="fill-light"/>
</g>
<g opacity="0.25">
<path d="M184.271 77.9653C184.969 77.7806 185.463 77.3612 185.374 77.0283C185.285 76.6955 184.647 76.5753 183.949 76.76C183.251 76.9448 182.757 77.3644 182.846 77.6973C182.935 78.0301 183.573 78.1501 184.271 77.9653Z" fill="#F4F5F7" class="fill-light"/>
</g>
<g opacity="0.25">
<path d="M189.912 75.9427C190.305 75.8388 190.585 75.6138 190.539 75.4402C190.493 75.2665 190.137 75.21 189.744 75.3139C189.351 75.4178 189.07 75.6428 189.117 75.8164C189.163 75.9901 189.519 76.0466 189.912 75.9427Z" fill="#F4F5F7" class="fill-light"/>
</g>
<g opacity="0.25">
<path d="M188.046 78.5734C188.308 78.5042 188.495 78.3541 188.464 78.2383C188.433 78.1227 188.196 78.0849 187.934 78.1542C187.672 78.2236 187.485 78.3735 187.516 78.4891C187.547 78.6051 187.784 78.6428 188.046 78.5734Z" fill="#F4F5F7" class="fill-light"/>
</g>
<g opacity="0.25">
<path d="M188.845 72.852C189.34 72.7211 189.691 72.4273 189.629 72.1957C189.567 71.9642 189.116 71.8826 188.621 72.0135C188.127 72.1443 187.776 72.4381 187.838 72.6695C187.9 72.901 188.351 72.9826 188.845 72.852Z" fill="#F4F5F7" class="fill-light"/>
</g>
<g opacity="0.25">
<path d="M163.066 100.941C163.741 100.685 164.189 100.217 164.066 99.8955C163.942 99.5734 163.295 99.5196 162.62 99.7751C161.945 100.031 161.497 100.499 161.62 100.821C161.743 101.143 162.39 101.196 163.066 100.941Z" fill="#F4F5F7" class="fill-light"/>
</g>
<g opacity="0.25">
<path d="M155.159 103.712C155.539 103.568 155.794 103.315 155.73 103.148C155.666 102.98 155.306 102.96 154.926 103.104C154.546 103.247 154.291 103.5 154.355 103.668C154.419 103.836 154.779 103.856 155.159 103.712Z" fill="#F4F5F7" class="fill-light"/>
</g>
<g opacity="0.25">
<path d="M157.646 101.791C157.899 101.695 158.07 101.526 158.027 101.415C157.984 101.303 157.744 101.29 157.491 101.385C157.238 101.481 157.067 101.65 157.11 101.762C157.153 101.874 157.393 101.887 157.646 101.791Z" fill="#F4F5F7" class="fill-light"/>
</g>
<g opacity="0.25">
<path d="M158.672 104.426C159.151 104.245 159.469 103.917 159.383 103.693C159.298 103.469 158.841 103.434 158.362 103.615C157.884 103.796 157.566 104.124 157.651 104.348C157.737 104.572 158.194 104.607 158.672 104.426Z" fill="#F4F5F7" class="fill-light"/>
</g>
<g opacity="0.25">
<path d="M202.488 111.603C203.333 111.755 204.076 111.555 204.148 111.157C204.22 110.759 203.594 110.314 202.749 110.162C201.905 110.011 201.162 110.211 201.09 110.609C201.018 111.006 201.644 111.452 202.488 111.603Z" fill="#F4F5F7" class="fill-light"/>
</g>
<g opacity="0.25">
<path d="M206.662 109.648C207.048 109.717 207.386 109.629 207.418 109.452C207.45 109.276 207.164 109.076 206.779 109.007C206.393 108.938 206.055 109.025 206.023 109.202C205.991 109.379 206.277 109.578 206.662 109.648Z" fill="#F4F5F7" class="fill-light"/>
</g>
<g opacity="0.25">
<path d="M199.689 113.844C200.163 113.929 200.579 113.819 200.62 113.598C200.66 113.377 200.308 113.129 199.834 113.044C199.36 112.959 198.943 113.069 198.903 113.29C198.863 113.511 199.215 113.759 199.689 113.844Z" fill="#F4F5F7" class="fill-light"/>
</g>
<g opacity="0.25">
<path d="M209.195 112.82C209.906 112.948 210.532 112.777 210.593 112.438C210.655 112.099 210.128 111.721 209.417 111.593C208.706 111.466 208.08 111.637 208.019 111.976C207.957 112.315 208.484 112.693 209.195 112.82Z" fill="#F4F5F7" class="fill-light"/>
</g>
<g opacity="0.25">
<path d="M205.428 115.565C205.843 115.64 206.208 115.545 206.242 115.353C206.277 115.162 205.969 114.946 205.554 114.872C205.139 114.797 204.775 114.892 204.74 115.084C204.706 115.275 205.014 115.491 205.428 115.565Z" fill="#F4F5F7" class="fill-light"/>
</g>
<g opacity="0.25">
<path d="M210.901 115.421C211.182 115.471 211.43 115.405 211.454 115.272C211.478 115.14 211.27 114.991 210.988 114.941C210.707 114.89 210.459 114.957 210.435 115.089C210.411 115.222 210.62 115.37 210.901 115.421Z" fill="#F4F5F7" class="fill-light"/>
</g>
<g opacity="0.8">
<path d="M148.994 104.904C148.15 105.767 147.307 106.629 146.476 107.468C144.175 109.874 142.023 112.239 140.057 114.555C139.613 115.052 139.179 115.586 138.759 116.096C138.087 116.932 137.43 117.744 136.809 118.546C134.683 121.302 135.759 125.044 138.518 126.527C136.852 124.731 136.47 121.854 138.186 119.646C138.806 118.843 139.464 118.031 140.135 117.195C140.556 116.685 140.976 116.175 141.434 115.655C143.4 113.339 145.566 110.95 147.853 108.567C148.256 108.141 148.66 107.715 149.086 107.302C148.875 106.525 148.837 105.721 148.994 104.904ZM203.987 62.042C201.245 63.6329 198.307 65.4554 195.236 67.4525C195.715 67.8203 196.143 68.2214 196.497 68.6426C199.48 66.6891 202.686 64.6755 205.377 63.118C208.294 64.5978 211.133 66.3767 213.823 68.4142C210.708 65.915 207.414 63.7819 203.987 62.042Z" fill="#F4F5F7" class="fill-light"/>
</g>
<g opacity="0.7">
<path d="M256.008 124.16C254.939 97.4395 241.612 70.717 217.258 55.7956C217.012 55.6237 216.752 55.475 216.478 55.3499C216.492 55.3265 216.505 55.3029 216.519 55.2794C215.935 55.0393 215.323 54.8461 214.681 54.7607L214.62 54.7571C211.12 54.0697 206.928 55.6134 204.779 57.9188C205.175 57.6137 205.619 57.3355 206.096 57.1079C204.318 58.4994 203.296 60.3231 203.799 62.1738C203.809 62.2109 203.843 62.2614 203.876 62.3119C204.028 62.4299 204.251 62.37 204.299 62.1783C205.121 59.1772 208.896 55.6702 212.957 56.2766C213.583 57.4786 215.779 58.1396 216.929 57.4529C224.997 62.533 231.803 68.9251 237.35 76.1918C237.407 76.2559 237.414 76.3534 237.383 76.4609C236.291 79.4952 241.246 87.08 244.624 87.7605C244.709 87.7775 244.78 87.8181 244.8 87.892C245.635 89.4947 246.432 91.1074 247.178 92.7536C247.198 92.8278 247.205 92.9253 247.178 92.9721C246.05 95.142 246.448 98.3713 249.883 99.7717C249.954 99.8122 250.025 99.8528 250.045 99.9268C252.889 108.119 254.478 116.688 254.832 125.271C254.838 127.275 254.472 128.942 253.854 130.34C253.714 130.635 254.139 130.879 254.302 130.596C255.337 128.968 256.022 126.858 256.008 124.16Z" fill="#F4F5F7" class="fill-light"/>
</g>
<g opacity="0.6">
<path d="M165.365 97.9094C165.331 98.0773 165.324 98.1985 165.324 98.1985C156.233 97.286 150.108 104.354 150.34 108.958C150.34 108.958 150.134 108.934 149.796 108.866C147.796 104.221 155.316 96.2615 160.123 97.5709C162.006 97.3028 163.818 97.4316 165.365 97.9094Z" fill="#F4F5F7" class="fill-light"/>
<path d="M197.141 72.8395C197.431 73.3177 197.646 73.816 197.811 74.3476C198.284 75.8687 198.202 77.4794 197.722 79.0185C198.588 77.1373 198.854 75.1001 198.256 73.1953C197.823 71.8221 196.971 70.5222 195.534 69.419C188.98 69.175 179.725 74.9023 174.783 81.9898C174.118 82.923 173.975 84.4882 173.493 85.4319C173.526 85.4824 173.56 85.533 173.631 85.5736C173.984 84.9624 174.369 83.6131 174.783 83.0053C176.635 80.3429 178.549 78.283 181.163 76.1504C183.595 76.9462 186.413 75.5248 186.29 73.2344C188.361 72.0422 190.472 71.2165 192.461 70.8208C194.277 70.452 196.185 71.2297 197.141 72.8395Z" fill="#F4F5F7" class="fill-light"/>
<path d="M205.859 105.966C197.268 105.058 189.531 107.734 188.537 112.231C188.458 112.53 188.44 112.833 188.446 113.149C189.981 109.023 197.396 106.632 205.599 107.506C213.885 108.396 220.073 113.247 219.712 118.825C219.804 118.502 219.896 118.179 219.927 117.853C220.766 112.048 214.45 106.874 205.859 105.966Z" fill="#F4F5F7" class="fill-light"/>
<path d="M202.042 86.8508C202.555 85.5809 202.931 86.6712 204.745 85.7069C206.509 84.7764 208.822 84.2539 211.317 84.1787C217.152 83.9807 221.622 86.473 222.081 89.7058C222.114 89.9751 222.123 90.2305 222.133 90.4861C222.405 89.7974 222.475 89.0241 222.338 88.2269C221.879 84.994 217.409 82.5017 211.574 82.6998C209.066 82.7981 206.762 83.3578 205.002 84.228C202.64 85.3793 201.149 87.0908 201.212 88.9406C201.249 88.9306 202.055 86.8273 202.042 86.8508Z" fill="#F4F5F7" class="fill-light"/>
</g>
<g opacity="0.8">
<path d="M170.114 88.1461C171.987 90.999 168.42 94.1818 164.156 93.1832C163.075 94.129 161.981 95.0984 160.901 96.0442C159.86 96.1056 158.737 96.3082 157.63 96.6452C162.593 92.1338 167.833 87.6868 173.157 83.4755C173.191 83.5259 173.225 83.5765 173.296 83.6171C173.64 84.0012 174.021 84.3754 174.405 84.689C172.973 85.809 171.55 86.9659 170.114 88.1461Z" fill="#F4F5F7" class="fill-light"/>
</g>
<g opacity="0.3">
<path d="M252.109 132.45C252.745 132.438 253.98 131.768 254.636 131.611C252.323 133.604 249.154 134.138 246.702 133.486C245.053 133.075 243.523 132.295 242.468 131.129C242.434 131.078 242.387 131.051 242.377 131.014C242.353 131.001 242.343 130.964 242.32 130.95C241.376 129.754 240.23 127.004 240.574 124.23C243.201 100.091 227.184 73.0191 205.518 62.042C204.092 58.8506 207.443 55.6066 211.553 54.4224C209.559 55.9713 208.448 58.0571 209.39 60.1276C233.386 70.7165 247.741 96.9639 244.433 122.34C244.364 122.894 244.342 123.476 244.371 124.024C245.579 121.932 248.02 120.7 250.544 121.173C253.757 121.759 255.9 124.798 255.311 127.995C254.996 129.628 253.663 131.555 252.109 132.45Z" fill="#0F1218" class="fill-dark"/>
</g>
<g opacity="0.1">
<path d="M240.605 130.974C240.389 130.694 240.173 130.415 239.985 130.088C238.399 128.806 236.683 128.294 234.375 127.882C233.915 127.807 232.121 127.813 231.6 127.734C231.594 127.637 231.587 127.539 231.567 127.465C231.361 127.441 231.155 127.417 230.948 127.393C230.742 127.369 230.55 127.322 230.354 127.335L230.33 127.321C227.41 127.153 224.575 129.285 221.789 131.007C218.37 133.118 213.936 132.741 210.954 130.067C208.876 128.223 206.528 126.193 202.367 125.941C202.367 125.941 202.367 125.941 202.343 125.927C197.963 125.893 193.385 125.873 188.67 125.929C182.641 126.517 182.446 130.501 182.934 135.752C183.022 136.741 182.966 137.709 182.703 138.654C181.22 144.216 175.463 142.645 177.292 135.56C179.291 127.854 170.156 123.915 166.7 128.756C164.672 131.724 163.683 132.566 162.226 132.421C159.276 132.142 158.497 126.85 153.707 126.708C149.414 126.849 145.06 126.987 140.644 127.121C136.271 126.966 133.913 121.96 136.578 118.543C137.198 117.74 137.856 116.928 138.527 116.092C135.978 124.86 153.221 122.271 168.013 121.095L187.336 120.945C188.546 120.918 189.168 119.46 188.329 118.573C186.444 116.558 185.519 114.403 185.936 112.484C186.398 110.434 188.24 108.767 190.931 107.647C189.542 108.635 188.63 109.834 188.319 111.188C187.653 114.247 190.419 117.892 194.94 120.57C198.56 120.45 202.103 120.411 205.554 120.477L205.591 120.467L216.181 121.016L217.8 121.097L227.442 122.199C229.537 122.49 231.427 121.069 231.786 119.086C231.838 118.833 231.841 118.554 231.846 118.275C231.112 96.9055 218.116 74.7807 199.558 64.5174C200.99 63.6161 202.381 62.7852 203.746 62.0016C225.412 72.9785 241.442 100.027 238.788 124.214C238.538 127.041 239.671 129.815 240.605 130.974Z" fill="#0F1218" class="fill-dark"/>
</g>
<g opacity="0.3">
<path d="M219.121 119.16C219.08 119.23 219.04 119.301 218.999 119.371C218.972 119.418 218.717 119.804 218.463 120.19L218.449 120.214C218.225 120.493 217.988 120.795 217.754 121.036C210.599 120.418 203.061 120.299 195.171 120.573C190.65 117.896 187.884 114.25 188.55 111.192C188.984 109.188 190.79 107.531 193.382 106.418C192.379 107.283 191.711 108.277 191.462 109.416C191.1 111.023 191.366 112.739 192.369 114.375C193.966 116.945 196.846 118.435 199.875 118.415C204.834 118.373 210.036 118.563 214.791 118.874C217.029 119.027 219.071 117.505 219.515 115.32C219.529 115.297 219.529 115.297 219.519 115.26L218.999 119.153C219.06 119.156 219.097 119.146 219.121 119.16Z" fill="#0F1218" class="fill-dark"/>
</g>
<g opacity="0.3">
<path d="M192.814 82.2035C186.392 86.1936 177.793 88.7831 173.296 83.6172C173.262 83.5667 173.228 83.516 173.157 83.4755C173.677 82.5217 174.257 81.5715 174.885 80.6481C176.97 86.5616 192.375 84.923 197.897 71.2253C199.155 75.1966 196.653 79.8013 192.814 82.2035Z" fill="#0F1218" class="fill-dark"/>
</g>
<g opacity="0.3">
<path d="M222.227 88.0396C221.635 91.297 218.127 93.6698 211.832 93.5742C206.001 93.4933 201.196 91.3097 201.069 88.0472C201.018 86.8298 201.646 85.6878 202.74 84.7186C202.648 85.0411 202.617 85.3672 202.623 85.6834C202.726 88.9323 207.545 91.0924 213.386 91.2105C217.605 91.3076 220.598 89.3911 222.227 88.0396Z" fill="#0F1218" class="fill-dark"/>
</g>
<g opacity="0.3">
<path d="M151.246 102.132C150.463 108.657 155.363 110.895 163.531 107.746L166.277 105.876L167.836 103.829C167.363 106.935 165.792 109.383 162.665 110.879L159.188 111.456L155.665 111.568C155.665 111.568 153.085 110.812 152.831 110.761C152.578 110.71 150.77 109.051 150.726 108.964C150.682 108.877 149.483 107.253 149.629 106.836C149.803 106.372 151.246 102.132 151.246 102.132Z" fill="#0F1218" class="fill-dark"/>
</g>
<path fill-rule="evenodd" clip-rule="evenodd" d="M203.55 56.6601C204.564 55.5566 205.96 54.5781 207.641 53.7927L208.059 53.5977C208.587 53.351 209.139 53.1589 209.706 53.0243C210.355 52.8704 211.019 52.7927 211.686 52.7927H212.639C216.437 52.7868 216.704 52.9703 218.905 54.4835C219.322 54.7702 219.809 55.1048 220.402 55.4949C225.36 58.754 228.549 61.3708 233.056 65.8785C240.168 72.9916 245.526 80.7688 249.837 90.2364C253.405 98.0711 255.555 105.248 256.952 113.988C257.326 116.329 257.395 117.4 257.467 121.956C257.539 126.561 257.513 127.345 257.262 128.211C256.829 129.704 256.045 131.041 254.85 132.326C253.478 133.8 252.212 134.632 250.388 135.259C249.143 135.686 248.683 135.757 247.153 135.759C245.048 135.762 243.669 135.455 241.961 134.603C240.804 134.026 239.998 133.368 238.602 131.863C237.63 130.814 235.978 130.268 232.056 129.702C230.883 129.532 229.771 129.466 229.228 129.534C228.17 129.665 226.585 130.397 224.479 131.725C222.546 132.945 220.496 133.926 219.318 134.194C218.725 134.329 217.71 134.371 216.431 134.312C213.397 134.173 212.312 133.702 209.051 131.113C206.938 129.435 205.266 128.528 203.794 128.262C202.396 128.009 188.173 128.138 187.347 128.411C186.365 128.735 185.616 129.327 185.161 130.138C184.75 130.87 184.738 130.979 184.776 133.821C184.844 139.011 184.434 140.892 182.856 142.631C181.896 143.688 181.519 143.825 179.555 143.825H178.969C178.244 143.825 177.547 143.551 177.018 143.058C175.427 141.578 174.976 139.356 175.562 135.888C176.046 133.017 175.669 131.451 174.181 130.146C172.885 129.012 170.887 128.614 169.579 129.232C169.239 129.393 168.529 130.068 167.94 130.792C165.356 133.966 164.552 134.53 162.618 134.523C160.912 134.518 160.376 134.201 158.231 131.924C156.259 129.833 155.628 129.339 154.619 129.096C154.242 129.005 151.382 129.024 147.453 129.143C140.411 129.356 139.448 129.299 138.006 128.582C136.863 128.014 135.317 126.537 134.814 125.533C134.401 124.708 134.375 124.507 134.375 122.147C134.375 120.018 134.424 119.542 134.697 119.01C135.476 117.49 139.107 113.141 144.041 107.817C146.404 105.268 146.878 104.662 147.471 103.434C148.339 101.635 148.912 100.807 150.316 99.3263C151.745 97.8187 153.279 96.7309 154.911 96.0691C155.515 95.8242 155.913 95.6655 156.287 95.4644C157.057 95.0514 157.73 94.4602 159.893 92.579C161.505 91.1766 164.198 88.8777 165.876 87.4702C170.115 83.9153 170.99 83.1908 171.608 82.2916C171.786 82.0325 171.943 81.7588 172.152 81.3988C173.361 79.3218 174.435 77.9313 176.407 75.8928C180.497 71.6626 185.732 68.1261 190.085 66.6514C190.785 66.4141 192.147 66.1365 193.112 66.0346C194.265 65.9126 195.375 65.5301 196.357 64.9164L198.206 63.7617L200.454 62.357C201.148 61.9233 201.619 61.2111 201.744 60.4052C201.991 58.8143 202.455 57.8536 203.55 56.6601ZM224.316 81.3612C219.355 74.7253 213.479 69.32 206.823 65.2689C205.707 64.5895 204.752 64.0401 204.7 64.0481C204.649 64.0559 203.346 64.8541 201.804 65.8216C200.263 66.7892 198.891 67.6498 198.756 67.7341C198.55 67.8629 198.597 68.0741 199.044 69.0458C199.838 70.7723 199.99 71.5862 199.899 73.6329C199.756 76.8432 198.638 78.9406 195.236 82.3769C193.01 84.6262 191.64 85.5523 188.849 86.6962C185.5 88.0688 182.213 88.6304 178.293 88.5003C175.588 88.4106 174.326 88.1679 172.862 87.4556C172.355 87.209 171.75 87.2811 171.316 87.6396L170.569 88.2567C167.114 91.1101 163.398 94.3295 163.474 94.4041C163.518 94.4487 164.072 94.5929 164.703 94.7244C169.05 95.6294 171.679 99.0828 171.216 103.278C170.98 105.414 169.257 107.808 166.772 109.452C165.216 110.482 162.16 111.822 160.192 112.338C158.071 112.894 154.48 112.961 152.633 112.479C150.521 111.928 148.774 110.828 147.95 109.529C147.696 109.13 147.687 109.138 145.471 111.558C140.664 116.807 140.008 117.708 140.338 118.598C140.621 119.358 142.476 119.903 145.697 120.174C148.21 120.384 150.636 120.304 158.833 119.738C167.7 119.125 172.027 118.931 175.365 118.998L177.649 119.044C178.124 119.054 178.573 119.259 178.889 119.611C179.522 120.317 179.553 121.129 178.972 121.797C178.711 122.097 178.33 122.266 177.93 122.259L176.212 122.224C173.283 122.166 168.107 122.418 161.361 122.947C152.741 123.623 149.068 123.771 146.162 123.56C141.936 123.253 139.959 122.728 138.419 121.502C137.668 120.905 137.524 121.035 137.542 122.293C137.558 123.415 138.131 124.458 139.103 125.138C139.829 125.645 139.867 125.652 141.99 125.652C143.173 125.652 146.587 125.587 149.576 125.508C154.511 125.377 155.089 125.391 155.858 125.655C157.136 126.094 158.3 126.91 159.607 128.28C160.256 128.961 161.101 129.846 161.486 130.247C161.935 130.716 162.333 130.977 162.598 130.977C163.058 130.977 163.773 130.293 164.983 128.695C166.003 127.348 167.172 126.296 168.145 125.848C168.83 125.533 169.242 125.483 171.147 125.483H171.943C172.87 125.483 173.783 125.71 174.6 126.145C177.55 127.714 179.384 130.642 179.384 133.782C179.384 134.454 179.27 135.601 179.13 136.33C178.576 139.209 179.066 141.258 180.088 140.338C180.929 139.58 180.985 139.263 181.093 134.696C181.185 130.776 181.229 130.298 181.574 129.418C182.419 127.261 183.912 125.839 186.178 125.031C187.279 124.639 187.305 124.638 195.945 124.638C203.994 124.638 204.673 124.66 205.541 124.957C207.595 125.659 209.122 126.57 211.486 128.5C213.427 130.086 214.715 130.675 216.459 130.776C218.491 130.893 219.324 130.634 221.887 129.087C226.515 126.292 227.894 125.806 230.745 125.96C232.319 126.045 235.128 126.512 236.962 126.993C237.178 127.05 237.389 126.89 237.392 126.668L237.41 125.11C237.422 124.014 237.455 121.215 237.483 118.89C237.522 115.63 237.468 114.166 237.244 112.486C235.748 101.271 231.431 90.8782 224.316 81.3612ZM194.68 78.0624C196.801 75.4658 197.234 72.1223 195.727 69.9805C195.497 69.654 194.539 69.4971 193.567 69.6266C188.351 70.3215 179.889 76.2892 175.988 82.023L175.751 82.3715C175.564 82.6462 175.614 83.0167 175.867 83.2332C177.152 84.3335 180.29 84.7803 182.964 84.2443C185.047 83.8269 186.679 83.2526 188.981 82.1269C192.023 80.6388 193.345 79.6962 194.68 78.0624ZM203.503 81.9148C204.908 81.1447 206.768 80.4863 208.413 80.1767C210.366 79.8089 214.887 79.944 216.666 80.4235C219.688 81.2381 222.323 83.1032 223.328 85.1387C223.748 85.9904 223.799 86.2791 223.799 87.7852C223.799 89.3897 223.77 89.5299 223.217 90.5441C222.498 91.8634 221.446 92.8157 219.893 93.5509C217.684 94.5966 215.447 94.9701 211.405 94.9686C206.355 94.9666 202.768 93.991 200.791 92.0823C199.642 90.9726 199.511 90.584 199.511 88.2923C199.511 86.4853 199.557 86.1713 199.926 85.4184C200.479 84.2895 202.143 82.6596 203.503 81.9148ZM220.328 86.6286C219.895 85.4968 217.885 84.2118 215.671 83.6516C211.653 82.6347 206.511 83.4938 204.05 85.5936C202.279 87.1046 202.448 88.6189 204.528 89.8611C208.972 92.5168 218.786 91.9784 220.205 89.0013C220.518 88.3464 220.573 87.2708 220.328 86.6286ZM167.733 101.044C167.397 99.9076 166.264 98.7514 165.029 98.2849C164.4 98.0476 163.639 97.9536 162.06 97.9183C159.751 97.8666 159.678 97.8743 157.835 98.3656C156.273 98.7818 155.335 99.3233 153.963 100.6C152.652 101.821 151.922 102.792 151.12 104.384L150.945 104.731C150.666 105.284 150.631 105.928 150.849 106.508C151.41 108.001 152.579 108.819 154.669 109.182C159.298 109.984 166.756 106.701 167.731 103.432C168.069 102.299 168.069 102.181 167.733 101.044ZM187.466 109.085C189.081 105.781 193.69 103.491 200.021 102.847C201.381 102.709 206.004 102.907 207.494 103.167C212.177 103.984 215.973 105.809 218.634 108.521C219.97 109.882 221.169 112.031 221.513 113.68C221.785 114.985 221.635 117.133 221.189 118.288C220.994 118.794 220.861 119.234 220.893 119.266C220.925 119.298 222.127 119.476 223.564 119.663C226.895 120.095 228.512 120.55 229.072 121.212C229.618 121.858 229.598 122.273 228.993 122.876C228.518 123.348 228.43 123.37 226.978 123.37C226.142 123.37 225.079 123.298 224.615 123.211C223.638 123.026 218.224 122.45 214.882 122.175C211.3 121.88 197.246 121.775 192.717 122.009C188.471 122.229 187.442 122.136 186.73 121.471C186.221 120.995 186.223 120.164 186.735 119.686C187.246 119.208 188.425 118.806 189.314 118.806C189.707 118.806 190.078 118.756 190.139 118.695C190.2 118.635 189.943 118.254 189.569 117.849C186.986 115.061 186.183 111.712 187.466 109.085ZM215.83 110.607C213.77 108.582 210.785 107.168 207.239 106.536C205.8 106.279 201.482 106.094 200.191 106.233C197.656 106.507 195.125 107.171 193.482 107.994C189.553 109.961 189.156 112.518 192.269 115.802C192.885 116.452 193.858 117.317 194.433 117.725C195.113 118.208 195.927 118.467 196.762 118.467H201.939C207.169 118.467 213.247 118.628 216.656 118.857C217.107 118.887 217.207 118.791 217.675 117.876C218.134 116.98 218.194 116.693 218.194 115.425C218.194 113.456 217.696 112.439 215.83 110.607ZM222.271 61.1501C219.58 59.1543 216.839 57.3713 215.572 56.7918C214.41 56.2607 212.265 56.1347 210.772 56.5097C208.61 57.0528 206.369 58.5232 205.693 59.842C205.503 60.2129 205.372 60.5329 205.402 60.5532C205.431 60.5733 206.297 61.0711 207.324 61.6596C221.878 69.9922 233.832 85.6111 238.642 102.577C240.553 109.319 241.23 115.294 240.856 122.104C240.644 125.949 240.646 126.009 241.021 127.26C241.229 127.956 241.663 128.912 241.984 129.384C242.305 129.855 242.567 130.368 242.567 130.522C242.567 130.677 242.854 130.989 243.204 131.216C244.911 132.323 248.08 132.493 249.956 131.58C252.467 130.357 254.153 126.927 253.812 125.658C253.591 124.831 252.925 124.086 252.488 123.667C252.229 123.419 251.957 123.183 251.666 122.974C249.401 121.354 245.988 121.85 244.507 124.131C243.305 125.981 242.623 126.315 241.773 125.469C241.385 125.082 241.346 124.937 241.433 124.209C241.667 122.235 243.222 120.214 245.238 119.263C246.327 118.75 246.495 118.721 248.352 118.721C250.276 118.721 250.339 118.733 251.6 119.354C252.348 119.722 253.145 120.271 253.502 120.665C253.84 121.037 254.117 121.247 254.117 121.13C254.117 121.014 253.967 119.612 253.784 118.017C252.583 107.564 249.931 98.291 245.62 89.4755C240.133 78.254 231.953 68.3309 222.271 61.1501Z" fill="#0F1218" class="fill-dark"/>
<rect x="179.689" y="31.0677" width="62" height="16" fill="#3BD4E9" class="fill-berry"/>
<path fill-rule="evenodd" clip-rule="evenodd" d="M48.6 64.55L40.15 52.1L36.7 56.4V64.2C36.7 64.65 36.35 65 35.9 65H28.75C28.3 65 28 64.65 28 64.2V30.8C28 30.35 28.3 30 28.75 30H35.9C36.35 30 36.7 30.35 36.7 30.8V44.55L46.9 30.4C47.15 30.1 47.45 30 47.8 30H56.5C57.15 30 57.2 30.5 56.9 30.9L45.45 45.3L58.3 64.1C58.65 64.6 58.45 65 57.85 65H49.5C49.1 65 48.85 64.9 48.6 64.55ZM61.9943 68.2851C60.6287 69.7323 58.7891 70 57.85 70H49.5C48.9104 70 47.915 69.9327 46.8365 69.4169C45.7197 68.8828 44.9913 68.1002 44.5313 67.4562C44.5081 67.4237 44.4853 67.3909 44.4629 67.3579L41.7 63.2871V64.2C41.7 67.4114 39.1114 70 35.9 70H28.75C25.1202 70 23 66.9736 23 64.2V30.8C23 28.0264 25.1202 25 28.75 25H35.9C38.6012 25 40.8617 26.8313 41.5118 29.3242L42.844 27.4762C42.9123 27.3813 42.984 27.2889 43.0589 27.1991C44.4532 25.526 46.299 25 47.8 25H56.5C58.0848 25 60.8534 25.7739 61.8164 28.77C62.5629 31.0924 61.5676 33.0099 60.9 33.9C60.8717 33.9377 60.8429 33.975 60.8136 34.0119L51.6597 45.5243L53.4606 48.159C55.2842 40.5232 61.754 34.9 70.6395 34.9C75.1003 34.9 78.994 36.3644 81.9334 38.9392C82.8349 36.9098 84.8656 35.5 87.2355 35.5H93.8355C94.4677 35.5 95.3862 35.6035 96.3352 36.0494C98.0026 35.2829 99.851 34.9 101.836 34.9C105.672 34.9 109.264 36.3745 111.858 39.235C114.426 42.0662 115.686 45.8798 115.686 50.05V51.818C117.789 49.6986 121.051 49.6723 123.25 51.3255C123.344 51.3922 123.433 51.4563 123.498 51.5035L123.534 51.5292C123.647 51.6112 123.73 51.6705 123.811 51.7258C123.966 51.8313 124.077 51.8968 124.174 51.9443C124.302 52.0076 124.478 52.0778 124.779 52.0957C124.808 51.8904 124.83 51.613 124.83 51.25V30.8C124.83 28.0264 126.95 25 130.58 25H137.73C140.941 25 143.53 27.5886 143.53 30.8V39.6957C146.699 36.7141 151.023 34.9 155.948 34.9C160.738 34.9 164.96 36.6312 168.099 39.4883C168.857 37.1685 171.034 35.5 173.613 35.5H180.212C180.845 35.5 181.763 35.6035 182.712 36.0494C184.38 35.2829 186.228 34.9 188.212 34.9C192.049 34.9 195.641 36.3745 198.235 39.235C198.818 39.8781 199.334 40.5719 199.783 41.309C202.899 37.3912 207.743 34.9 213.657 34.9C218.69 34.9 223.001 36.7642 226.034 39.9844C226.072 40.0241 226.109 40.0639 226.146 40.104C226.753 39.3224 227.455 38.6186 228.233 38.0015C230.931 35.8609 234.347 34.9 237.665 34.9C241.045 34.9 244.314 35.885 247.072 37.8198V30.8C247.072 28.0264 249.192 25 252.822 25H263.822C268.618 25 272.888 26.2225 276.099 28.9381C277.477 25.4645 280.837 23 284.974 23C290.335 23 294.524 27.2385 294.524 32.5C294.524 33.5514 294.359 34.563 294.052 35.509C294.164 35.503 294.277 35.5 294.392 35.5H312.742C313.657 35.5 314.475 35.6921 315.188 36.0238C315.901 35.6921 316.72 35.5 317.634 35.5H335.984C337.982 35.5 339.522 36.4165 340.504 37.7031C342.997 35.9463 346.066 34.9 349.613 34.9C351.77 34.9 353.749 35.2687 355.509 35.9947C356.228 35.6766 357.024 35.5 357.863 35.5H364.063C367.274 35.5 369.863 38.0887 369.863 41.3V64.2C369.863 67.7958 366.824 70 364.013 70H357.863C357.001 70 356.184 69.8136 355.45 69.4787C353.72 70.2086 351.77 70.6 349.613 70.6C346.076 70.6 343.012 69.5648 340.521 67.8206C339.46 69.1503 337.824 70 335.984 70H317.484C316.596 70 315.798 69.8186 315.099 69.504C314.379 69.8229 313.582 70 312.742 70H294.242C293.119 70 292.14 69.7102 291.324 69.2277C290.472 69.7192 289.482 70 288.424 70H281.524C278.312 70 275.724 67.4115 275.724 64.2V54.5683C273.012 56.7114 269.596 57.8481 265.772 58.1297V64.2C265.772 67.4115 263.184 70 259.972 70H252.822C250.572 70 248.902 68.8368 247.957 67.2917C247.796 67.4238 247.631 67.5522 247.462 67.6768C244.644 69.7604 241.144 70.6 237.815 70.6C233.324 70.6 229.342 69.1303 226.292 66.5679C223.01 69.571 218.602 70.6 214.557 70.6C209.643 70.6 205.157 69.0156 201.778 66.0261C200.96 68.5274 198.51 70 196.213 70H189.462C187.629 70 185.999 69.1565 184.938 67.8352C183.876 69.1565 182.246 70 180.413 70H173.613C171.034 70 168.857 68.3315 168.099 66.0117C164.96 68.8688 160.738 70.6 155.948 70.6C149.339 70.6 143.812 67.3329 140.706 62.3616C140.043 63.4856 139.261 64.5219 138.359 65.4598C134.864 69.0927 130.141 70.65 125.28 70.65C120.956 70.65 117.336 69.4109 114.623 67.5505C113.49 69.1145 111.617 70 109.836 70H103.086C101.252 70 99.6222 69.1565 98.5605 67.8352C97.4989 69.1565 95.8687 70 94.0355 70H87.2355C85.182 70 83.3831 68.9415 82.3529 67.3386C79.194 69.7496 75.2166 70.6 71.5395 70.6C68.0631 70.6 64.8014 69.8072 61.9943 68.2851ZM86.4355 64.2C86.4355 64.65 86.7855 65 87.2355 65H94.0355C94.4855 65 94.8355 64.65 94.8355 64.2V52.15C94.8355 50.8229 95.0911 49.7893 95.5776 49.045C96.1806 48.1223 97.1384 47.6442 98.4039 47.6029C98.4638 47.601 98.5243 47.6 98.5855 47.6C101.036 47.6 102.286 49.1 102.286 52.15V64.2C102.286 64.65 102.636 65 103.086 65H109.836C110.286 65 110.686 64.65 110.686 64.2V50.05C110.686 43.7 106.886 39.9 101.836 39.9C100.973 39.9 100.192 40.0063 99.4829 40.2048C98.7622 40.4066 98.1167 40.7039 97.5372 41.0817C97.4063 41.1671 97.2787 41.2566 97.1544 41.35C96.5038 41.8391 95.9429 42.4362 95.4567 43.1169C95.2345 43.4279 95.028 43.7564 94.8355 44.1L94.5855 41.35C94.5855 40.7 94.2355 40.5 93.8355 40.5H87.2355C86.7855 40.5 86.4355 40.85 86.4355 41.3V64.2ZM81.8672 54.7793C82.329 54.0361 82.4895 52.9664 82.4895 51.65C82.4895 49.8355 82.1286 48.0914 81.4355 46.5278C79.7224 42.6627 75.9793 39.9 70.6395 39.9C62.9895 39.9 57.9395 45.45 57.9395 52.65C57.9395 53.4529 58.0022 54.2316 58.1241 54.982C58.5632 57.6853 59.7693 60.0224 61.571 61.8103C61.5818 61.8209 61.5925 61.8316 61.6033 61.8422C62.1246 62.3556 62.6953 62.8233 63.3113 63.241C65.5304 64.7455 68.3371 65.6 71.5395 65.6C75.0395 65.6 78.1895 64.65 80.2395 62.55C80.7395 62.1 80.6895 61.7 80.4895 61.4L78.1895 58.2C77.9395 57.8 77.6895 57.7 77.2895 57.9C75.2395 59 73.6395 59.05 72.2395 59.05C69.1895 59.05 67.0395 58.2 66.1395 55.95H79.3895C80.3008 55.95 80.9631 55.7217 81.4355 55.2985C81.6022 55.1492 81.7453 54.9756 81.8672 54.7793ZM115.686 61.8885C117.439 63.8486 120.667 65.65 125.28 65.65C131.708 65.65 136.741 62.2163 138.141 55.0765C138.285 54.3405 138.39 53.5651 138.455 52.75C138.505 52.1235 138.53 51.4735 138.53 50.8V30.8C138.53 30.35 138.18 30 137.73 30H130.58C130.13 30 129.83 30.35 129.83 30.8V51.25C129.83 55.6 127.78 57.1 124.93 57.1C122.707 57.1 121.393 56.1509 120.567 55.5539C120.464 55.4797 120.369 55.4109 120.28 55.35C119.93 55.05 119.43 55.1 119.18 55.4L115.43 60.35C115.18 60.7 115.18 61.3 115.48 61.65C115.546 61.7297 115.615 61.8092 115.686 61.8885ZM143.204 55.1399C144.264 61.1618 149.301 65.6 155.948 65.6C161.47 65.6 165.893 62.4963 167.812 57.9582C168.483 56.3734 168.848 54.6136 168.848 52.75C168.848 50.8864 168.483 49.1266 167.812 47.5418C165.893 43.0037 161.47 39.9 155.948 39.9C149.828 39.9 145.072 43.6626 143.53 48.9597C143.357 49.5548 143.224 50.1693 143.135 50.8C143.044 51.4347 142.998 52.0857 142.998 52.75C142.998 53.5687 143.069 54.3674 143.204 55.1399ZM172.812 64.2C172.812 64.65 173.163 65 173.613 65H180.413C180.863 65 181.212 64.65 181.212 64.2V52.15C181.212 50.8229 181.468 49.7893 181.955 49.045C182.558 48.1223 183.515 47.6442 184.781 47.6029C184.841 47.601 184.901 47.6 184.962 47.6C187.412 47.6 188.663 49.1 188.663 52.15V64.2C188.663 64.65 189.012 65 189.462 65H196.213C196.663 65 197.062 64.65 197.062 64.2V50.05C197.062 48.9984 196.958 48.0167 196.761 47.1106C195.77 42.5456 192.426 39.9 188.212 39.9C187.35 39.9 186.569 40.0063 185.86 40.2048C185.139 40.4066 184.494 40.7039 183.914 41.0817C183.783 41.167 183.656 41.2566 183.531 41.35C182.881 41.8391 182.32 42.4362 181.834 43.1169C181.611 43.4279 181.405 43.7564 181.212 44.1L180.962 41.35C180.962 40.7 180.612 40.5 180.212 40.5H173.613C173.163 40.5 172.812 40.85 172.812 41.3V64.2ZM202.062 58.1229C204.063 62.676 208.633 65.6 214.557 65.6C218.035 65.6 221.166 64.6622 223.217 62.5904C223.231 62.577 223.244 62.5635 223.257 62.55C223.757 62.1 223.707 61.7 223.507 61.4L221.207 58.2C220.957 57.8 220.707 57.7 220.307 57.9C218.257 59 216.657 59.05 215.257 59.05C212.207 59.05 210.057 58.2 209.157 55.95H222.407C223.64 55.95 224.417 55.5322 224.885 54.7793C225.063 54.493 225.196 54.1582 225.292 53.7795C225.446 53.1753 225.507 52.4593 225.507 51.65C225.507 50.2587 225.295 48.9088 224.883 47.65C224.614 46.8263 224.26 46.0416 223.824 45.3097C221.908 42.0952 218.417 39.9 213.657 39.9C207.958 39.9 203.703 42.9797 201.902 47.5271C201.586 48.3257 201.345 49.1696 201.186 50.05C201.035 50.8862 200.957 51.7554 200.957 52.65C200.957 54.6443 201.344 56.4885 202.062 58.1229ZM228.315 59.85C228.31 59.857 228.305 59.864 228.3 59.871C227.914 60.4164 227.868 61.0538 228.115 61.35C228.286 61.5525 228.465 61.7492 228.65 61.9399C230.842 64.197 233.988 65.6 237.815 65.6C242.125 65.6 245.935 63.7431 247.072 60.0593C247.281 59.3842 247.399 58.6477 247.415 57.85C247.427 56.9863 247.305 56.2017 247.072 55.4909C246.74 54.4757 246.183 53.6112 245.466 52.8828C244.535 51.9366 243.336 51.2198 242.015 50.7L238.115 49.15C237.265 48.85 236.565 48.3 236.565 47.65C236.565 47.15 236.765 46.4 238.115 46.4C238.421 46.4 238.729 46.4389 239.045 46.5152C239.08 46.5238 239.116 46.5328 239.151 46.5423C239.859 46.7314 240.601 47.106 241.419 47.65C241.467 47.6817 241.515 47.714 241.563 47.7468C241.791 47.9019 242.025 48.0698 242.265 48.25C242.485 48.3967 242.693 48.4836 242.883 48.4932C242.886 48.4934 242.889 48.4935 242.892 48.4936C243.087 48.5011 243.264 48.4263 243.415 48.25L246.265 44.85C246.515 44.6 246.615 44.2 246.315 43.85C244.115 41.25 241.015 39.9 237.665 39.9C233.882 39.9 230.441 41.6388 229.152 44.7983C228.806 45.6481 228.615 46.6008 228.615 47.65C228.615 49.1247 229.012 50.3863 229.734 51.4432C229.782 51.513 229.831 51.582 229.881 51.65C230.067 51.9004 230.272 52.1387 230.495 52.3652C231.223 53.1055 232.142 53.7182 233.216 54.2074C233.24 54.2183 233.264 54.2291 233.288 54.2399C233.492 54.3309 233.701 54.4176 233.915 54.5L237.115 55.75C237.166 55.7722 237.216 55.794 237.265 55.8156C238.645 56.4243 239.065 56.7739 239.065 57.45C239.065 58.35 238.365 58.65 237.265 58.65C236.865 58.65 236.459 58.6035 236.037 58.5086C236.002 58.5006 235.966 58.4923 235.93 58.4836C235.351 58.343 234.742 58.1121 234.081 57.7865C233.705 57.6014 233.313 57.3856 232.9 57.1385C232.896 57.1359 232.891 57.1334 232.887 57.1308C232.545 56.9256 232.188 56.6988 231.815 56.45C231.415 56.2 230.965 56.05 230.515 56.75L228.315 59.85ZM252.072 64.2C252.072 64.65 252.372 65 252.822 65H259.972C260.422 65 260.772 64.65 260.772 64.2V53.2H263.822C270.299 53.2 274.195 50.5346 275.724 46.2716C276.225 44.8736 276.472 43.3039 276.472 41.6C276.472 41.4995 276.471 41.3995 276.47 41.3C276.455 40.4624 276.38 39.6584 276.243 38.8926C275.276 33.4996 271.243 30 263.822 30H252.822C252.372 30 252.072 30.35 252.072 30.8V64.2ZM280.747 41.1044C280.732 41.1667 280.724 41.2322 280.724 41.3V64.2C280.724 64.65 281.074 65 281.524 65H288.424C288.466 65 288.508 64.9969 288.549 64.9908C288.937 64.9329 289.224 64.6075 289.224 64.2V41.3C289.224 41.2284 289.215 41.1593 289.198 41.0938C289.132 40.8346 288.943 40.6308 288.694 40.5446C288.61 40.5157 288.519 40.5 288.424 40.5H281.524C281.497 40.5 281.471 40.5012 281.445 40.5037C281.099 40.5358 280.826 40.7771 280.747 41.1044ZM293.842 57.85C293.542 58.1 293.492 58.45 293.492 58.8V64.2C293.492 64.6255 293.76 64.9615 294.17 64.9969C294.194 64.999 294.218 65 294.242 65H312.742C313.192 65 313.542 64.65 313.542 64.2V59C313.542 58.9295 313.534 58.8626 313.517 58.8C313.43 58.4633 313.122 58.25 312.742 58.25H302.792L313.142 47.65C313.392 47.4 313.492 47.05 313.492 46.7V41.3C313.492 40.85 313.192 40.5 312.742 40.5H294.392C294.315 40.5 294.241 40.5104 294.174 40.5299C293.848 40.6237 293.642 40.9276 293.642 41.3V46.5C293.642 46.8912 293.869 47.1691 294.224 47.235C294.277 47.2449 294.333 47.25 294.392 47.25H304.142L293.842 57.85ZM288.437 35.5C289.121 34.7044 289.524 33.659 289.524 32.5C289.524 30 287.574 28 284.974 28C282.324 28 280.424 30 280.424 32.5C280.424 33.659 280.816 34.7044 281.493 35.5001C281.503 35.5119 281.514 35.5237 281.524 35.5354C282.336 36.4696 283.546 37.05 284.974 37.05C286.384 37.05 287.603 36.4614 288.424 35.5157C288.428 35.5105 288.433 35.5053 288.437 35.5ZM317.084 57.85C316.784 58.1 316.734 58.45 316.734 58.8V64.2C316.734 64.65 317.034 65 317.484 65H335.984C336.434 65 336.784 64.65 336.784 64.2V59C336.784 58.55 336.434 58.25 335.984 58.25H326.034L336.384 47.65C336.634 47.4 336.734 47.05 336.734 46.7V41.3C336.734 40.85 336.434 40.5 335.984 40.5H317.634C317.184 40.5 316.884 40.85 316.884 41.3V46.5C316.884 46.5705 316.892 46.6374 316.906 46.7C316.982 47.0367 317.255 47.25 317.634 47.25H327.384L317.084 57.85ZM338.501 49.7164C338.498 49.7304 338.495 49.7443 338.493 49.7582C338.309 50.7155 338.213 51.7168 338.213 52.75C338.213 52.8112 338.213 52.8723 338.214 52.9333C338.217 53.1942 338.226 53.453 338.24 53.7094C338.351 55.6335 338.796 57.4233 339.524 59C340.105 60.2605 340.867 61.3849 341.784 62.3328C343.761 64.3765 346.458 65.6 349.613 65.6C350.539 65.6 351.389 65.5006 352.169 65.3114C353.062 65.0945 353.864 64.7596 354.582 64.321C354.647 64.2815 354.711 64.2412 354.775 64.2C355.615 63.6544 356.339 62.963 356.963 62.15L357.063 64.2C357.063 64.65 357.413 65 357.863 65H364.013C364.463 65 364.863 64.65 364.863 64.2V41.3C364.863 40.85 364.513 40.5 364.063 40.5H357.863C357.413 40.5 357.063 40.85 357.063 41.3L356.963 43.3C356.389 42.5041 355.706 41.8315 354.897 41.3C354.837 41.26 354.775 41.2209 354.713 41.1825C353.971 40.725 353.128 40.3821 352.173 40.1665C351.396 39.9911 350.544 39.9 349.613 39.9C346.431 39.9 343.716 41.1554 341.734 43.2368C340.797 44.2215 340.024 45.3911 339.443 46.7C339.026 47.6393 338.709 48.6504 338.501 49.7164ZM265.772 45.2381C265.111 45.4367 264.369 45.5 263.622 45.5H260.772V37.7H263.622C264.369 37.7 265.111 37.7633 265.772 37.9619C267.147 38.3746 268.172 39.3719 268.172 41.6C268.172 43.8281 267.147 44.8254 265.772 45.2381ZM351.491 52.9998C351.503 52.9268 351.513 52.8279 351.513 52.7C351.513 52.6202 351.509 52.554 351.503 52.5001C351.476 52.5003 351.454 52.5016 351.435 52.5034C351.424 52.5557 351.413 52.6363 351.413 52.75C351.413 52.8596 351.422 52.9406 351.432 52.9969C351.449 52.9983 351.469 52.9994 351.491 52.9998ZM75.0395 50.2C74.5395 47.6 72.7395 46.75 70.6895 46.75C68.5395 46.75 66.6395 47.7 65.9895 50.2H75.0395ZM155.948 57.9C153.248 57.9 151.048 56 151.048 52.75C151.048 49.5 153.248 47.6 155.948 47.6C158.598 47.6 160.798 49.5 160.798 52.75C160.798 56 158.598 57.9 155.948 57.9ZM209.007 50.2C209.657 47.7 211.557 46.75 213.707 46.75C215.757 46.75 217.557 47.6 218.057 50.2H209.007ZM351.513 58C348.613 58 346.413 55.95 346.413 52.75C346.413 49.6 348.613 47.5 351.513 47.5C354.463 47.5 356.513 49.55 356.513 52.7C356.513 55.9 354.463 58 351.513 58Z" fill="#0F1218" class="fill-dark"/>
<path d="M28.75 65C28.3 65 28 64.65 28 64.2V30.8C28 30.35 28.3 30 28.75 30H35.9C36.35 30 36.7 30.35 36.7 30.8V44.55L46.9 30.4C47.15 30.1 47.45 30 47.8 30H56.5C57.15 30 57.2 30.5 56.9 30.9L45.45 45.3L58.3 64.1C58.65 64.6 58.45 65 57.85 65H49.5C49.1 65 48.85 64.9 48.6 64.55L40.15 52.1L36.7 56.4V64.2C36.7 64.65 36.35 65 35.9 65H28.75Z" fill="#F4F5F7" class="fill-light"/>
<path d="M71.5395 65.6C63.4895 65.6 57.9395 60.2 57.9395 52.65C57.9395 45.45 62.9895 39.9 70.6395 39.9C78.1395 39.9 82.4895 45.35 82.4895 51.65C82.4895 54.3 81.8395 55.95 79.3895 55.95H66.1395C67.0395 58.2 69.1895 59.05 72.2395 59.05C73.6395 59.05 75.2395 59 77.2895 57.9C77.6895 57.7 77.9395 57.8 78.1895 58.2L80.4895 61.4C80.6895 61.7 80.7395 62.1 80.2395 62.55C78.1895 64.65 75.0395 65.6 71.5395 65.6ZM65.9895 50.2H75.0395C74.5395 47.6 72.7395 46.75 70.6895 46.75C68.5395 46.75 66.6395 47.7 65.9895 50.2Z" fill="#F4F5F7" class="fill-light"/>
<path d="M87.2355 65C86.7855 65 86.4355 64.65 86.4355 64.2V41.3C86.4355 40.85 86.7855 40.5 87.2355 40.5H93.8355C94.2355 40.5 94.5855 40.7 94.5855 41.35L94.8355 44.1C96.2355 41.6 98.3856 39.9 101.836 39.9C106.886 39.9 110.686 43.7 110.686 50.05V64.2C110.686 64.65 110.286 65 109.836 65H103.086C102.636 65 102.286 64.65 102.286 64.2V52.15C102.286 49.1 101.036 47.6 98.5855 47.6C96.1855 47.6 94.8355 49.1 94.8355 52.15V64.2C94.8355 64.65 94.4855 65 94.0355 65H87.2355Z" fill="#F4F5F7" class="fill-light"/>
<path d="M125.28 65.65C120.48 65.65 117.18 63.7 115.48 61.65C115.18 61.3 115.18 60.7 115.43 60.35L119.18 55.4C119.43 55.1 119.93 55.05 120.28 55.35C121.08 55.9 122.43 57.1 124.93 57.1C127.78 57.1 129.83 55.6 129.83 51.25V30.8C129.83 30.35 130.13 30 130.58 30H137.73C138.18 30 138.53 30.35 138.53 30.8V50.8C138.53 60.85 132.88 65.65 125.28 65.65Z" fill="#F4F5F7" class="fill-light"/>
<path d="M155.948 65.6C148.448 65.6 142.998 59.95 142.998 52.75C142.998 45.55 148.448 39.9 155.948 39.9C163.398 39.9 168.848 45.55 168.848 52.75C168.848 59.95 163.398 65.6 155.948 65.6ZM151.048 52.75C151.048 56 153.248 57.9 155.948 57.9C158.598 57.9 160.798 56 160.798 52.75C160.798 49.5 158.598 47.6 155.948 47.6C153.248 47.6 151.048 49.5 151.048 52.75Z" fill="#F4F5F7" class="fill-light"/>
<path d="M173.613 65C173.163 65 172.812 64.65 172.812 64.2V41.3C172.812 40.85 173.163 40.5 173.613 40.5H180.212C180.612 40.5 180.962 40.7 180.962 41.35L181.212 44.1C182.612 41.6 184.762 39.9 188.212 39.9C193.262 39.9 197.062 43.7 197.062 50.05V64.2C197.062 64.65 196.663 65 196.213 65H189.462C189.012 65 188.663 64.65 188.663 64.2V52.15C188.663 49.1 187.412 47.6 184.962 47.6C182.562 47.6 181.212 49.1 181.212 52.15V64.2C181.212 64.65 180.863 65 180.413 65H173.613Z" fill="#F4F5F7" class="fill-light"/>
<path d="M214.557 65.6C206.507 65.6 200.957 60.2 200.957 52.65C200.957 45.45 206.007 39.9 213.657 39.9C221.157 39.9 225.507 45.35 225.507 51.65C225.507 54.3 224.857 55.95 222.407 55.95H209.157C210.057 58.2 212.207 59.05 215.257 59.05C216.657 59.05 218.257 59 220.307 57.9C220.707 57.7 220.957 57.8 221.207 58.2L223.507 61.4C223.707 61.7 223.757 62.1 223.257 62.55C221.207 64.65 218.057 65.6 214.557 65.6ZM209.007 50.2H218.057C217.557 47.6 215.757 46.75 213.707 46.75C211.557 46.75 209.657 47.7 209.007 50.2Z" fill="#F4F5F7" class="fill-light"/>
<path d="M237.815 65.6C233.665 65.6 230.315 63.95 228.115 61.35C227.865 61.05 227.915 60.4 228.315 59.85L230.515 56.75C230.965 56.05 231.415 56.2 231.815 56.45C234.065 57.95 235.715 58.65 237.265 58.65C238.365 58.65 239.065 58.35 239.065 57.45C239.065 56.75 238.615 56.4 237.115 55.75L233.915 54.5C230.665 53.25 228.615 51 228.615 47.65C228.615 42.7 232.865 39.9 237.665 39.9C241.015 39.9 244.115 41.25 246.315 43.85C246.615 44.2 246.515 44.6 246.265 44.85L243.415 48.25C243.115 48.6 242.715 48.55 242.265 48.25C240.665 47.05 239.365 46.4 238.115 46.4C236.765 46.4 236.565 47.15 236.565 47.65C236.565 48.3 237.265 48.85 238.115 49.15L242.015 50.7C245.065 51.9 247.465 54.15 247.415 57.85C247.315 63 242.915 65.6 237.815 65.6Z" fill="#F4F5F7" class="fill-light"/>
<path d="M252.822 65C252.372 65 252.072 64.65 252.072 64.2V30.8C252.072 30.35 252.372 30 252.822 30H263.822C272.422 30 276.472 34.7 276.472 41.6C276.472 48.5 272.422 53.2 263.822 53.2H260.772V64.2C260.772 64.65 260.422 65 259.972 65H252.822ZM260.772 45.5H263.622C265.922 45.5 268.172 44.9 268.172 41.6C268.172 38.3 265.922 37.7 263.622 37.7H260.772V45.5Z" fill="#F4F5F7" class="fill-light"/>
<path d="M284.974 37.05C282.324 37.05 280.424 35.05 280.424 32.5C280.424 30 282.324 28 284.974 28C287.574 28 289.524 30 289.524 32.5C289.524 35.05 287.574 37.05 284.974 37.05ZM280.724 64.2V41.3C280.724 40.85 281.074 40.5 281.524 40.5H288.424C288.874 40.5 289.224 40.85 289.224 41.3V64.2C289.224 64.65 288.874 65 288.424 65H281.524C281.074 65 280.724 64.65 280.724 64.2Z" fill="#F4F5F7" class="fill-light"/>
<path d="M294.242 65C293.792 65 293.492 64.65 293.492 64.2V58.8C293.492 58.45 293.542 58.1 293.842 57.85L304.142 47.25H294.392C293.942 47.25 293.642 46.95 293.642 46.5V41.3C293.642 40.85 293.942 40.5 294.392 40.5H312.742C313.192 40.5 313.492 40.85 313.492 41.3V46.7C313.492 47.05 313.392 47.4 313.142 47.65L302.792 58.25H312.742C313.192 58.25 313.542 58.55 313.542 59V64.2C313.542 64.65 313.192 65 312.742 65H294.242Z" fill="#F4F5F7" class="fill-light"/>
<path d="M317.484 65C317.034 65 316.734 64.65 316.734 64.2V58.8C316.734 58.45 316.784 58.1 317.084 57.85L327.384 47.25H317.634C317.184 47.25 316.884 46.95 316.884 46.5V41.3C316.884 40.85 317.184 40.5 317.634 40.5H335.984C336.434 40.5 336.734 40.85 336.734 41.3V46.7C336.734 47.05 336.634 47.4 336.384 47.65L326.034 58.25H335.984C336.434 58.25 336.784 58.55 336.784 59V64.2C336.784 64.65 336.434 65 335.984 65H317.484Z" fill="#F4F5F7" class="fill-light"/>
<path d="M349.613 65.6C342.863 65.6 338.213 60 338.213 52.75C338.213 45.55 342.863 39.9 349.613 39.9C353.063 39.9 355.413 41.15 356.963 43.3L357.063 41.3C357.063 40.85 357.413 40.5 357.863 40.5H364.063C364.513 40.5 364.863 40.85 364.863 41.3V64.2C364.863 64.65 364.463 65 364.013 65H357.863C357.413 65 357.063 64.65 357.063 64.2L356.963 62.15C355.313 64.3 352.963 65.6 349.613 65.6ZM346.413 52.75C346.413 55.95 348.613 58 351.513 58C354.463 58 356.513 55.9 356.513 52.7C356.513 49.55 354.463 47.5 351.513 47.5C348.613 47.5 346.413 49.6 346.413 52.75Z" fill="#F4F5F7" class="fill-light"/>
<path d="M285.04 38.3316C277.656 38.2293 271.571 35.4637 271.409 31.3326C271.329 28.9903 273.201 26.8525 276.209 25.3648C278.485 24.2501 281.372 23.5245 284.531 23.4298C291.921 23.1786 297.581 26.3347 298.162 30.4287C298.823 35.004 294.74 38.4908 285.04 38.3316Z" fill="#E93B47" class="fill-sauce"/>
<g opacity="0.25">
<path d="M281.393 29.8663C282.294 30.0277 283.087 29.8108 283.165 29.3817C283.242 28.9526 282.576 28.4738 281.675 28.3122C280.775 28.1505 279.982 28.3675 279.904 28.7968C279.826 29.2259 280.493 29.7049 281.393 29.8663Z" fill="#F4F5F7" class="fill-light"/>
</g>
<g opacity="0.25">
<path d="M291.943 31.2784C292.45 31.3693 292.893 31.2614 292.934 31.0375C292.974 30.8135 292.597 30.5584 292.09 30.4675C291.584 30.3767 291.14 30.4845 291.1 30.7085C291.059 30.9324 291.437 31.1877 291.943 31.2784Z" fill="#F4F5F7" class="fill-light"/>
</g>
<g opacity="0.25">
<path d="M288.006 31.4556C288.343 31.5163 288.639 31.4443 288.666 31.2951C288.693 31.1457 288.441 30.9755 288.104 30.9151C287.766 30.8544 287.47 30.9264 287.443 31.0756C287.416 31.2248 287.668 31.395 288.006 31.4556Z" fill="#F4F5F7" class="fill-light"/>
</g>
<g opacity="0.25">
<path d="M288.559 28.4638C289.197 28.5783 289.758 28.4289 289.812 28.1303C289.866 27.8318 289.393 27.4972 288.755 27.3827C288.117 27.2681 287.556 27.4175 287.502 27.716C287.448 28.0146 287.921 28.3494 288.559 28.4638Z" fill="#F4F5F7" class="fill-light"/>
</g>
<g opacity="0.6">
<path d="M272.658 29.7876C273.308 28.1794 273.785 29.5601 276.082 28.3391C278.315 27.1606 281.245 26.499 284.404 26.4038C291.793 26.153 297.453 29.3091 298.034 33.403C298.077 33.744 298.089 34.0674 298.101 34.3911C298.445 33.5189 298.533 32.5396 298.36 31.5301C297.779 27.4363 292.119 24.2802 284.73 24.5309C281.553 24.6555 278.636 25.3643 276.408 26.4662C273.416 27.9241 271.527 30.0915 271.607 32.434C271.655 32.4213 272.675 29.7578 272.658 29.7876Z" fill="#F4F5F7" class="fill-light"/>
</g>
<path fill-rule="evenodd" clip-rule="evenodd" d="M274.509 23.5371C276.289 22.5619 278.644 21.7281 280.727 21.3361C283.201 20.8703 288.926 21.0414 291.178 21.6486C295.005 22.6802 298.342 25.042 299.614 27.6196C300.146 28.6981 300.211 29.0638 300.211 30.971C300.211 33.0029 300.174 33.1804 299.474 34.4647C298.564 36.1354 297.231 37.3413 295.265 38.2724C292.468 39.5965 289.634 40.0696 284.516 40.0676C278.121 40.0651 273.578 38.8296 271.076 36.4125C269.621 35.0074 269.455 34.5152 269.455 31.6131C269.455 29.3249 269.512 28.9273 269.979 27.9739C270.68 26.5443 272.787 24.4802 274.509 23.5371ZM295.815 29.5064C295.268 28.0731 292.722 26.4459 289.918 25.7364C284.83 24.4487 278.319 25.5367 275.202 28.1957C272.959 30.1091 273.174 32.0268 275.807 33.5998C281.435 36.9628 293.863 36.2809 295.66 32.511C296.056 31.6817 296.126 30.3196 295.815 29.5064Z" fill="#0F1218" class="fill-dark"/>
</svg>
